<?xml version="1.0" encoding="utf-8"?>
<!-- Generator: Adobe Illustrator 15.1.0, SVG Export Plug-In . SVG Version: 6.00 Build 0)  -->
<!DOCTYPE svg PUBLIC "-//W3C//DTD SVG 1.1//EN" "http://www.w3.org/Graphics/SVG/1.1/DTD/svg11.dtd">
<svg version="1.1" id="Layer_1" xmlns="http://www.w3.org/2000/svg" xmlns:xlink="http://www.w3.org/1999/xlink" x="0px" y="0px"
	 width="194.081px" height="259.459px" viewBox="0 0 194.081 259.459" enable-background="new 0 0 194.081 259.459"
	 xml:space="preserve">
<g>
	<path fill="#F6F6F6" stroke="#231F20" stroke-width="2" stroke-miterlimit="10" d="M91.062,1.46
		c44.81-4.143,63.323,20.76,61.344,32.493c-1.979,11.732-7.129,39.901-6.13,50.875c0.999,10.975,1.039,23.313-7.434,29.905
		c-8.471,6.593-18.031,10.217-26.027,10.458c-2.787,7.088-3.061,9.098,0.646,10.319c3.705,1.221,3.785,3.888,3.785,3.888
		s15.053,1.545,21.535,6.352c7.754,2.768,13.752,2.585,19.254-2.918c5.504-5.502,7.633-12.235,7.633-12.235
		s-8.672-0.071-7.662-10.773c1.01-10.701,12.418-8.379,16.387-9.5c3.968-1.12,16.669-0.17,18.607,8.775
		c0.767,3.312-4.01,10.792-11.672,11.023c-4.959,23.494-20.85,27.312-37.49,28.48c-4.594,13.479-11.813,17.364-31.117,18.616
		c-1.09,8.036-1.282,12.71-7.209,15.225c-1.577,36.064,2.734,46.272,2.734,46.272s41.707,0.738,44.342,10.664
		c0.455,3.987-19.112,7.581-56.761,8.721c-37.65,1.139-52.037-0.428-52.501-4.748c-0.464-4.321,11.712-9.691,18.699-10.236
		c6.986-0.546,25.514-5.44,25.514-5.44s3.968-1.119,3.897-3.452c-0.07-2.333-0.412-35.671-0.502-38.67
		c-0.091-2.998-0.778-3.646-4.513-5.866s-6.684-11.47-6.684-11.47s-23.413-2.293-28.845-5.463
		c-5.432-3.171-6.128-15.155-6.128-15.155s-11.218,4.008-22.767-2.979c-11.55-6.986-10.923-19.346-10.923-19.346
		s-9.097-3.059-10.005-11.035c-0.908-7.976,7.442-7.562,9.441-7.622c1.999-0.06,21.828-5.996,24.443,3.263
		c2.615,9.259-2.585,13.751-9.229,14.618c-1.818,6.059,5.38,12.511,11.055,12.673c5.674,0.16,9.299-1.282,9.299-1.282l2.666-0.08
		c0,0,3.231-3.434,10.571-3.321c7.34,0.11,12.307-1.04,15.275-2.131c2.969-1.09,4.231-3.462,4.231-3.462l3.958-1.453
		c0,0,0.769-7.693-2.967-9.915c-3.736-2.223-21.486-4.686-32.046-12.036c-10.56-7.352-0.857-17.315-3.229-40.588
		c-2.372-23.272-6.026-33.833-5.198-39.528C40.165,27.678,48.162,5.426,91.062,1.46z"/>
	<g>
		<g>
			<path fill="#010101" d="M147.297,98.777c-3.106-15.861-1.209-33.68,1.408-48.666c1.334-7.635,4.941-16.005,2.172-23.476
				c-4.082-11.003-18.848-19.209-31.295-22.464c-20.529-5.369-47.126-0.59-62.416,8.372c-7.379,4.325-17.163,13.542-16.902,24.642
				c0.104,4.463,2.327,9.366,2.965,14.677c1.899,15.804,4.072,30.981,2.103,45.677c-0.588-19.899-0.346-40.099-6.083-58.163
				C39.542,13.462,69.309,2.72,96.084,1.28c17.042-0.917,39.329,3.933,50.562,16.479c2.911,3.251,6.161,8.271,6.542,13.848
				c0.383,5.61-2.081,10.539-3.12,15.942C147.344,61.725,146.004,79.732,147.297,98.777z"/>
			<path fill="#010101" d="M124.697,18.424c5.435,0.665,11.171,4.225,12.212,10.796c0.071,0.42,0.666,0.283,1.09,0.327
				c-1.903,2.287-1.942-2.222-2.627-3.522C133.15,22.07,129.122,20.038,124.697,18.424z"/>
			<path fill="#010101" d="M136.985,31.738c0.359-0.011,0.721-0.021,1.08-0.033c-1.052,2.855-0.462,7.256-2.236,9.432
				C136.836,38.59,136.133,34.431,136.985,31.738z"/>
			<path fill="#010101" d="M80.633,38.125c0.479-0.015,0.959-0.029,1.439-0.043c0.819,2.348,2.02,4.291,5.168,4.166
				c-2.548,2.027-4.663-2.007-6.924-2.672C80.586,39.247,80.678,38.751,80.633,38.125z"/>
			<path fill="#010101" d="M73.087,38.714c2.262,1.8-0.645,6.504-4.133,6.248C71.727,44.193,72.755,41.781,73.087,38.714z"/>
			<path fill="#010101" d="M118.426,37.342c1.6,1.891,2.171,4.874,5.898,4.504C122.252,43.392,117.038,40.654,118.426,37.342z"/>
			<path fill="#010101" d="M111.273,38.999c0.36-0.011,0.72-0.022,1.08-0.033c0.926,3.203-1.827,4.711-4.885,5.19
				C109.04,42.813,112.672,42.031,111.273,38.999z"/>
			<path fill="#010101" d="M52.326,42.944c1.673,0.022,0.197,1.979,0.447,2.868C51.746,45.02,53.205,43.891,52.326,42.944z"/>
			<path fill="#010101" d="M82.66,45.627c-1.06,1.613-3.428,3.303-6.052,2.344c-0.14-0.841-0.609-1.333-0.436-2.508
				c1.208,0.079,0.646,2.037,1.865,2.104c1.542-0.413,3.095-0.815,3.533-2.268c0.114-1.236-1.11-1.049-1.494-1.756
				c-1.415-0.049-1.298,1.342-2.846,1.167C77.647,41.627,82.927,42.645,82.66,45.627z"/>
			<path fill="#010101" d="M113.956,44.32c-0.492,1.632-0.234,2.746,0.828,3.577c1.777-0.426,3.521-0.883,3.512-2.988
				c-0.137-2.236-2.731-1.098-4.352-0.948c1.527-2.967,6.939-1.097,5.125,2.726c-2.046,1.559-3.805,2.57-6.096,0.904
				C112.513,46.115,112.437,44.737,113.956,44.32z"/>
			<path fill="#010101" d="M76.042,53.031c-0.993-2.659-3.746-3.448-5.561-5.234C72.785,47.635,76.066,49.495,76.042,53.031z"/>
			<path fill="#010101" d="M114.184,51.877c-2.247-1.328-4.127-3.043-5.563-5.234C110.745,46.675,112.493,50.166,114.184,51.877z"/>
			<path fill="#010101" d="M88.112,47.264c-3.341,0.7-4.396,3.553-6.685,5.244C82.346,49.527,84.269,47.491,88.112,47.264z"/>
			<path fill="#010101" d="M125.601,48.29c-2.171,1.103-4.845,1.733-6.009,3.784C118.25,50.453,123.264,47.613,125.601,48.29z"/>
			<path fill="#010101" d="M53.372,53.717c0.806,3.527,0.771,10.46,0.392,12.954C53.522,63.693,53.333,57.845,53.372,53.717z"/>
			<path fill="#010101" d="M53.415,67.042c0.685,2.023-0.18,4.126,0.545,6.106C52.262,72.339,53.509,68.634,53.415,67.042z"/>
			<path fill="#010101" d="M78.745,70.957c2.475,1.332,3.524,4.179,6.629,4.842C82.04,75.38,79.503,74.113,78.745,70.957z"/>
			<path fill="#010101" d="M73.75,72.549c0.36-0.011,0.72-0.021,1.079-0.033c0.223,4.054-2.134,5.682-5.942,5.942
				C70.508,77.301,74.566,76.985,73.75,72.549z"/>
			<path fill="#010101" d="M110.825,71.788c0.578-0.119,0.631,0.321,1.09,0.327c-0.76,2.897-1.797,5.533-5.594,5.572
				C108.713,76.56,110.696,75.046,110.825,71.788z"/>
			<path fill="#010101" d="M117.672,71.94c1.918,1.18,3.627,2.584,5.517,3.795C120.75,75.301,117.404,74.034,117.672,71.94z"/>
			<path fill="#010101" d="M80.772,78.46c-0.06,2.825-2.126,4.125-4.939,3.392c0.062-1.058-0.847-1.082-0.786-2.138
				c1.103,0.066,0.839,1.584,1.854,1.745c1.343-0.252,2.372-0.797,2.824-1.887c0.115-1.36-0.81-1.616-1.504-2.116
				c-1.505-0.367-1.379,0.799-2.497,0.795C75.882,75.19,80.191,76.717,80.772,78.46z"/>
			<path fill="#010101" d="M111.86,82.201c-0.217-0.513-0.588-0.859-1.111-1.047c0.435-3.365,1.155-6.75,4.896-4.83
				C117.1,79.003,115.629,82.417,111.86,82.201z M113.856,76.738c-1.165,0.893-2.926,3.327-1.298,4.723
				C115.239,81.744,116.497,77.454,113.856,76.738z"/>
			<path fill="#010101" d="M71.155,81.992c2.632,1.041,3.775,3.666,4.525,6.706C74.795,86.008,71.496,84.037,71.155,81.992z"/>
			<path fill="#010101" d="M105.012,82.048c3.482,0.385,5.148,2.701,5.244,6.686C109.359,85.601,107.059,83.958,105.012,82.048z"/>
			<path fill="#010101" d="M119.863,84.839c-1.21,1.309-2.097,2.922-3.106,4.418C115.444,88.135,118.377,85.594,119.863,84.839z"/>
			<path fill="#010101" d="M43.61,100.113c0.617,2.813,0.203,6.209,1.723,9.313c2.885,5.896,13.803,9.063,21.6,11.592
				c19.457,6.312,50.313,6.909,68.336-3.147c3.888-4.964,10.332-7.521,10.315-16.158c2.916,4.326-0.873,10.929-5.037,12.037
				c-5.123,7.764-16.434,9.702-27.37,11.992c-2.636,2.413-3.827,10.446,2.452,9.65c-5.78,2.282-6.529-5.734-4.24-9.236
				c-9.559-0.043-22.112,2.329-29.561-0.905c2.086,3.088,2.061,8.995,0,11.886c0.832-3.36,1.53-10.057-2.169-12.182
				c-4.969-1.018-11.088-1.859-16.683-3.815C52.487,117.471,41.512,114.041,43.61,100.113z"/>
			<path fill="#010101" d="M31.833,115.597c-8.83-2.532-18.893,1.079-26.584,2.245c0.823-1.774,4.131-1.526,6.063-1.983
				c3.244-0.769,6.78-1.663,10.37-2.476c0.304-0.075,0.343,0.131,0.371,0.349C24.875,113.578,29.292,114.283,31.833,115.597z"/>
			<path fill="#010101" d="M190.629,114.394c-2.43-1.503-5.195-2.65-7.688-4.089c-10.915,0.055-25.053-0.333-24.84,12.275
				c3.868,12.509,20.484,8.813,30.029,4.494c1.839-1.766,3.103-4.071,4.494-6.259c-0.246-0.854,0.373-2.624-0.447-2.868
				c4.419,2.509-3.653,12.75-10.785,12.572c-0.967,17.035-11.783,24.8-28.352,27.15c14.584-3.636,26.533-9.753,26.922-26.747
				c-3.793,0.981-10.254,1.549-14.033,0.425c-2.458,9.688-9.229,15.316-20.01,17.173c8.865-3.191,16.854-7.208,18.569-17.129
				c-8.606-1.352-9.153-14.686-3.106-19.355C171.27,110.376,184.907,105.846,190.629,114.394z"/>
			<path fill="#010101" d="M163.284,115.222c1.139,1.075-0.734,2.696-0.58,4.699c0.735,9.46,18.737,5.056,23.434,0.73
				c-0.258-1.087,0.367-3.113-0.469-3.588c1.361-1.307,1.478,3.448,1.199,3.926C181.782,128.123,154.438,129.262,163.284,115.222z"
				/>
			<path fill="#010101" d="M7.146,121.026c-6.44,10.845,16.823,12.515,22.888,6.51c0.191-0.866,0.467-1.655,0.272-2.889
				c1.21,0.076,1.058,1.601,1.167,2.846c-4.845,5.406-19.575,6.108-24.817,1.111C5.079,127.103,2.892,121.946,7.146,121.026z"/>
			<path fill="#010101" d="M97.955,146.372c1.295,1.131-2.247,0.661-3.217,0.817c-1.439,0.043-2.878,0.087-4.317,0.13
				c-1.109-0.68,4.983-0.36,6.826-0.565C97.666,146.799,97.883,146.654,97.955,146.372z"/>
			<path fill="#010101" d="M80.366,148.344c-3.489-0.334-8.779,0.565-12.202,1.45C70.308,147.939,77.494,147.192,80.366,148.344z"/>
			<path fill="#010101" d="M80.715,147.974c0.591-0.842,2.743-0.216,3.947-0.479C84.071,148.336,81.919,147.709,80.715,147.974z"/>
			<path fill="#010101" d="M63.471,244.66c-2.746,2.075-7.632,2.139-9.203,5.32c2.813,3.442,10.319,2.43,14.84,2.433
				c13.653,0.007,28.133-2.185,38.133-1.515c-11.969,2.147-27.031,1.922-39.201,1.906c-5.42-0.006-11.934,2.409-14.841-2.434
				C54.456,246.365,59.88,245.431,63.471,244.66z"/>
			<path fill="#010101" d="M109.388,250.473c-0.289,0.544-1.144,0.557-1.777,0.774C107.64,250.459,108.495,250.447,109.388,250.473z
				"/>
			<path fill="#010101" d="M48.116,34.788c-1.137-3.425,0.402-7.296,2.585-9.803c3.912-4.492,12.765-9.166,20.881-12.157
				c15.82-5.83,37.473-7.037,53.278-0.892c6.438,2.503,11.652,7.634,15.821,11.046c4.144,9.978,0.104,21.621-1.507,33.541
				c-1.938,14.359-1.432,28.52-0.416,45.753c-1.271,2.186-2.786,4.136-4.133,6.248c-0.291-1.976,2.47-4.213,3.043-6.574
				c1.43-5.883-1.263-14.605-1.383-21.928c-0.137-8.2,1.131-16.86,2.127-24.916c1.41-11.408,4.855-21.678,1.604-30.303
				C122.547,0.666,67.149,6.555,49.72,28.256C48.941,30.203,49.345,33.263,48.116,34.788z"/>
			<path fill="#010101" d="M96.783,12.425c0.117,0.476-3.201,0.705-4.656,0.861C93.329,12.67,94.965,12.462,96.783,12.425z"/>
			<path fill="#010101" d="M91.047,13.319c-0.728,0.308-4.142,1.216-3.587,0.469c1.294-0.181,2.399-0.539,3.577-0.828
				C91.76,13.264,91.787,14.146,91.047,13.319z"/>
			<path fill="#010101" d="M86.75,14.169c-1.923,0.916-7.114,2.331-7.862,2.039c0.993-0.347,2.176-0.515,2.846-1.167
				C84.015,15.323,84.579,13.99,86.75,14.169z"/>
			<path fill="#010101" d="M75.683,17.386c-6.299,3.043-15.05,5.642-18.046,10.631c-0.807,0.522-1.883,0.791-2.846,1.167
				c1.129-2.929,4.937-4.626,8.091-6.368C66.919,20.585,70.662,18.764,75.683,17.386z"/>
			<path fill="#010101" d="M48.269,39.825c1.584,1.717,1.798,5.899,2.061,8.582c0.64,6.542,0.238,12.351,0.958,19.78
				c1.247,12.855-2.085,26.854,1.089,35.983c2.218,3.471,6.645,5.472,11.395,7.579c7.288,3.233,20.617,5.965,32.963,6.205
				c6.641,0.13,12.456,1.297,18.309-1.994c0.125-0.422,1.734-0.471,0.719-0.021c-4.092,2.104-10.66,4.774-16.477,3.021
				c-20.384,0.484-36.159-3.926-47.574-12.969c-3.156-11.485-0.972-25.463-1.917-39.56C49.145,56.738,49.582,48.462,48.269,39.825z"
				/>
			<path fill="#010101" d="M135.874,42.577C136.334,39.738,135.034,47.739,135.874,42.577L135.874,42.577z"/>
			<path fill="#010101" d="M52.849,48.331c-1.253-3.218,0.552-1.004,0.359-0.011C53.122,48.766,52.91,48.489,52.849,48.331z"/>
			<path fill="#010101" d="M135.229,45.117c1.379,2.82-0.452,6.338-0.033,10.806C133.866,53.621,135.638,48.816,135.229,45.117z"/>
			<path fill="#010101" d="M134.487,56.305c1.333,2.215,0.301,4.68,0.219,7.196c-0.383,11.76,0.918,26.191-2.14,36.442
				c-0.349,1.521-2.76,5.957-2.748,4.405C136.767,92.355,132.788,73.455,134.487,56.305z"/>
			<path fill="#010101" d="M60.391,107.17c-1.524,0.984-3.541-0.686-4.721-1.3c-3.486-8.968-1.892-22.766-2.049-31.993
				c-0.56-0.173-0.034-0.375,0.349-0.371C55.75,80.079,50.112,105.19,60.391,107.17z"/>
			<path fill="#010101" d="M86.999,81.873c-3.992,0.926-5.876,5.627-8.44,6.738C80.272,85.332,82.546,82.576,86.999,81.873z"/>
			<path fill="#010101" d="M121.377,111.087c-15.383,6.562-38.442,3.354-53.332-0.907
				C85.244,113.384,104.433,116.471,121.377,111.087z"/>
			<path fill="#010101" d="M10.079,134.625c-6.987-1.548-12.006-8.108-7.676-15.615c2.419,2.451-2.16,6.47,0.294,9.716
				c5.567,7.43,20.309,6.548,29.245,2.355c3.172-1.944,6.09-10.44,2.159-11.95c4.435,0.537,2.088,7.489,1.046,10.772
				c-2.156,1.934-4.975,3.242-8.527,3.859c0.102,10.086,7.385,14.644,19.136,13.468c-10.828,3.212-20.318-3.084-20.194-12.715
				c-4.748,0.879-9.536,1.373-14.404,0.075c0.979,17.916,13.359,24.07,28.448,23.631c1.088-0.031,1.631-0.444,2.148-0.425
				c1.097,0.042-5.624,1.437-8.604,1.341c-5.258-0.172-11.296-2.009-14.928-5.313C14.342,148.666,10.122,143.863,10.079,134.625z"/>
			<path fill="#010101" d="M191.034,115.822C191.011,114.923,192.903,118.905,191.034,115.822L191.034,115.822z"/>
			<path fill="#010101" d="M79.871,239.121c-11.639,4.672-29.806,4.323-36.66,14.436c7.664,3.402,18.078,3.045,27.838,3.479
				c18.691,0.834,35.839,0.532,55.786-1.327c9.543-0.892,19.816-0.769,26.084-6.912c-4.424-5.016-11.84-6.743-18.603-7.722
				c-14.151-2.046-29.741-2.924-45.775-1.136c2.423-1.959,6.916-1.884,10.741-2.127c2.938-0.186,5.955,0.041,8.299,0.471
				c-3.953-13.07-3.918-31.684-2.463-45.668c-3.893,0.815-9.698,0.724-13.673,0.414c0.91,11.575,2.586,30.76-0.144,42.864
				c-0.458-6.123,0.731-13.921,0.426-21.623c-0.319-8.063-0.543-14.645-1.722-21.197c-6.39-0.838-8.404-8.67-10.893-14.798
				c-9.38-2.045-29.469,0.071-33.453-10.513c-3.203-8.508-1.114-24.9,7.514-25.438c14.572-1.17,29.923-5.164,46.322-4.644
				c12.51,0.397,24.892,2.451,35.448,5.05c1.666,1.449,4.06,2.126,5.866,3.425c-1.225,1.221-4.516-1.582-6.194-2.334
				c-15.75-3.548-27.875-5.844-45.175-5.114c-6.638,0.277-13.024,1.714-19.726,2.757c-4.938,0.769-9.899,0.856-14.71,1.886
				c-1.015,0.218-0.182,0.834-0.687,1.102c-0.393,0.207-3.404-0.782-4.308,0.49c-5.176,5.709-6.804,21.877,0.817,26.988
				c2.56,1.717,8.597,3.314,13.084,3.926c20.116,2.735,56.127,2.788,73.309-5.46c5.542-4.662,7.636-12.898,4.046-21.012
				c5.5,6.774,2.86,16.124-2.597,21.328c-16.396,8.655-36.703,6.98-58.108,7.881c1.29,3.335,2.35,6.914,3.903,9.967
				c4.364,3.901,14.254,5.406,21.339,2.956c5.483-1.896,4.669-8.035,6.444-13.161c0.396,5.657-0.822,12.099-6.052,14.229
				c-1.54,13.789-1.42,31.689,2.462,45.667c12.822,0.256,31.852,1.772,41.262,6.675c4.568,2.38,4.947,4.689,0.588,7.546
				c-25.108,6.576-56.654,6.072-83.046,5.034c-8.747-0.345-17.618,0.437-25.657-2.826c1.575-5.604,8.537-9.122,14.797-10.893
				C64.394,241.584,73.023,241.117,79.871,239.121z"/>
			<path fill="#010101" d="M118.868,147.179c-6.875-0.461-14.193-0.629-20.172-0.109c2.221-1.465,5.395-0.574,8.625-0.621
				C111.188,146.393,116.361,145.017,118.868,147.179z"/>
			<path fill="#010101" d="M111.976,169.357c-18.514,0.34-38.493,1.868-55.578-3.72c-5.329-3.29-4.514-13.019-0.512-16.912
				c-0.685,4.153-3.841,9.391-1.025,13.717c3.024,4.646,12.01,4.884,18.537,5.563c18.667,1.938,43.116,0.514,57.508-3.901
				c2.574-1.539,4.339-3.84,6.304-5.953c-0.016-2.831-0.772-4.874-1.297-7.164c5.844,7.616-1.731,15.107-10.338,15.44
				c0.463,3-0.721,4.448-0.873,6.869c-1.099-1.86,0.155-4.508,0.164-6.488c-7.703-0.461-7.5,4.75-11.275,8.266
				c1.164-2.4,2.07-5.045,4.123-6.607c-0.523-0.807-2.508-0.059-3.608-0.251c-1.94,2.369-3.417,5.174-5.54,7.371
				c-0.734,0.426-0.75,0.41-0.371-0.35C109.624,173.436,110.768,171.366,111.976,169.357z"/>
			<path fill="#010101" d="M151.973,158.062C154.333,157.366,149.088,159.069,151.973,158.062L151.973,158.062z"/>
			<path fill="#010101" d="M145.286,246.506c2.08,0.017,0.604,2.251,0.086,2.878c-1.681-0.086-9.303,2.065-7.904,0.6
				c3.646-0.096,4.83-0.773,7.523-1.308C145.392,248.237,145.359,247.392,145.286,246.506z"/>
		</g>
	</g>
</g>
</svg>
