<?xml version="1.0" encoding="utf-8"?>
<!-- Generator: Adobe Illustrator 15.1.0, SVG Export Plug-In . SVG Version: 6.00 Build 0)  -->
<!DOCTYPE svg PUBLIC "-//W3C//DTD SVG 1.1//EN" "http://www.w3.org/Graphics/SVG/1.1/DTD/svg11.dtd">
<svg version="1.1" id="Layer_1" xmlns="http://www.w3.org/2000/svg" xmlns:xlink="http://www.w3.org/1999/xlink" x="0px" y="0px"
	 width="73.754px" height="98.414px" viewBox="0 0 73.754 98.414" enable-background="new 0 0 73.754 98.414" xml:space="preserve">
<g>
	<path fill="#F6F6F6" stroke="#231F20" stroke-width="2" stroke-miterlimit="10" d="M37.737,1c17,0,19.667,5.667,19.667,5.667
		s3.666-2,6.666-2s2.667,2,2.667,2s2.666-2.666,5.333-1.333s-3.333,6.667-3.333,6.667s1,1.667,1,3s-5.333,4.667-5.333,4.667
		s9.999,16-5.334,62.333c6.667,2,7.334,5,6.667,7s-2.667,2.332-2.667,2.332s5,2,2.667,4s-7.333-3.332-7.333-3.332s0.334,3-3,2.332
		c-3.334-0.666-3.334-3.332-3.334-3.332s-7.333,8.332-19.333,6c-12-2.334-14-3.334-14-3.334s-1.999,3-5.333,3s-4-1.666-4-1.666
		s-3.667,3-5.667,1s2.667-5,2.667-5s-2.668-0.668-2.334-3.668s4-4,4-4s-6.334-1.332-7-33.333c-1-14,9-33,9-33s-4-1.333-3.333-4.667
		s3-4.333,3-4.333S6.404,5.334,8.404,4.334s4.333,2,4.333,2s2.666-2.667,5.333-1.667s3,2.667,3,2.667S27.404,1,37.737,1z"/>
	<g>
		<g>
			<path fill="#010101" d="M40.631,44.92c-8.325,3.676-15.174,8.828-22.682,13.32c2.919-3.044,6.979-5.234,10.8-7.56
				C32.514,48.39,36.286,45.441,40.631,44.92z"/>
			<path fill="#010101" d="M62.95,74.08c-1.353,6.982-4.934,12.987-10.438,17.28c1.079,0.841,1.467,2.373,2.88,2.88
				c1.977-0.183,1.457-2.863,3.24-3.24c1.241,2.25,4.686,5.951,7.56,3.24c-0.495-1.904-3.189-1.611-4.32-2.88
				c0.827-1.093,2.999-0.842,3.24-2.521c-0.982-2.377-1.626-5.094-4.32-5.76c2.924-0.638,4.159,3.519,5.4,5.76
				c-0.288,1.393-1.513,1.849-2.16,2.881c0.727,0.834,2.641,0.479,2.88,1.8c0.21,1.649-1.201,1.678-1.8,2.521
				c-3.46,0.34-4.711-1.529-6.479-2.881c-1.139,0.543-1.673,1.688-2.882,2.16c-1.609-0.549-3.434-0.886-3.238-3.24
				c-12.82,10.262-37.401,4.455-44.28-7.56c-4.945,0.706-4.771,5.453,0.359,5.76c-0.959,2.029-6.293,2.126-4.319,6.841
				c3.074,0.555,3.351-1.689,5.04-2.521c2.819,1.875,7.01,3.586,8.64-0.72c2.172,3.317-6.532,5.011-8.279,1.8
				c-1.471,0.569-2.206,1.874-3.601,2.52c-1.341-0.219-2.356-0.762-3.24-1.44C2.389,93.435,3.736,91.904,5.713,91
				c-0.943-1.097-2.482-1.598-2.521-3.6c0.685-1.835,1.884-3.157,3.96-3.6C-3.282,65.332-1.473,33.661,9.673,17.2
				c-1.794-0.727-3.657-1.383-4.319-3.24c0.101-2.779,1.795-3.965,3.239-5.4C7.952,7.4,6.261,7.293,6.792,4.96
				C7.235,4.803,7.531,4.5,7.514,3.88c2.394-0.234,3.865,0.455,5.398,1.08c2.42-2.36,7.025-1.239,7.92,1.8
				c9.228-5.292,28.396-9.686,36.36-0.36c2.011-1.234,7.351-3.425,9.72,0c2.057-0.666,3.276-2.985,5.762-2.16
				c2.399,2.529-0.291,6.717-2.882,7.56c0.433,1.009,0.396,2.484,0.36,3.96c-1.018,1.862-3.241,2.519-4.68,3.96
				c3.295,14.366,3.417,29.856,0,43.56c-0.308,0.065-0.34-0.141-0.36-0.36c2.831-18.132,3.048-38.085-5.04-52.2
				c-4.329-5.117-11.055-10.051-20.52-9c-3.988,0.442-7.727,2.707-11.881,2.88C17.282,8.371,11.025,16.273,5.711,25.12
				C2.204,38.502-0.652,51.912,2.831,67.6c-0.01,6.13,3.021,9.219,4.32,14.04c8.096,15.25,35.339,20.267,47.88,6.119
				C58.538,83.802,60.407,79.446,62.95,74.08z M8.23,7.12c1.518,1.032,3.221,0.655,3.6,2.16c-4.38-1.226-8.103,6.631-1.8,7.2
				c2.592-3.768,6.802-5.918,9.72-9.36c-0.684-3.194-5.799-3.066-6.479,0c-1.518-0.882-2.233-2.567-4.681-2.52
				C8.232,5.938,7.821,5.541,8.23,7.12z M66.551,9.64c-0.52-0.202-0.879-0.562-1.08-1.08c0.031-0.567,0.918-0.282,0.72-1.08
				c-1.443-2.541-6.6-2.779-7.56,0.36c3.481,2.517,4.716,7.284,6.84,11.16c1.759-1.241,3.768-2.232,3.6-5.4
				c-0.59-0.85-1.854-1.025-2.52-1.8c3.331-0.596,6.444-3.033,5.76-6.48C69.371,4.364,68.446,8.37,66.551,9.64z"/>
			<path fill="#010101" d="M58.271,73.36c-0.165-4.149,1.814-9.005,2.88-14.399c4.4-22.306,0.686-58.658-27.72-52.561
				C20.742,9.124,9.276,22.498,5.709,34.84c-1.127,14.155-3.598,32.434,4.32,43.201c2.412,3.279,5.354,5.221,7.92,8.279
				c2.225,0.776,4.155,1.846,6.12,2.88c9.146,2.265,24.419,2.528,29.521-5.04c1.108-1.348,2.477-6.085,3.238-5.4
				c-1.07,2.305-1.771,3.283-2.159,5.761c-5.651,9.394-27.336,8.774-36.721,3.239C11.891,84.187,5.24,75.142,3.909,66.88
				C1.976,54.876,4.028,40.545,6.431,28.72c4.845-9.084,13.808-19.928,25.2-23.04c9.54-2.606,18.611,0.898,24.118,6.12
				C66.872,27.586,65.269,55.037,58.271,73.36z"/>
			<path fill="#010101" d="M43.15,23.32c-5.761,2.563-13.698,7.869-18.72,11.16C29.549,29.879,36.673,25.363,43.15,23.32z"/>
			<path fill="#010101" d="M56.11,25.84c-3.333,3.035-7.569,4.917-11.52,7.2c-11.688,6.755-24.691,12.587-35.28,20.879
				c1.994-3.405,6.086-4.713,9.359-6.839c9.791-6.409,20.552-11.849,30.961-17.64C51.723,28.172,53.141,26.23,56.11,25.84z"/>
			<path fill="#010101" d="M48.19,68.68c-3.737,2.622-8.19,4.528-12.6,6.479c-1.726,0.803-3.329,3.624-5.4,2.881
				C35.736,74.466,41.784,71.394,48.19,68.68z"/>
		</g>
	</g>
</g>
</svg>
