<?xml version="1.0" encoding="utf-8"?>
<!-- Generator: Adobe Illustrator 15.1.0, SVG Export Plug-In . SVG Version: 6.00 Build 0)  -->
<!DOCTYPE svg PUBLIC "-//W3C//DTD SVG 1.1//EN" "http://www.w3.org/Graphics/SVG/1.1/DTD/svg11.dtd">
<svg version="1.1" id="Layer_1" xmlns="http://www.w3.org/2000/svg" xmlns:xlink="http://www.w3.org/1999/xlink" x="0px" y="0px"
	 width="62.417px" height="57.734px" viewBox="0 0 62.417 57.734" enable-background="new 0 0 62.417 57.734" xml:space="preserve">
<g>
	<path fill="#F6F6F6" stroke="#231F20" stroke-width="2" stroke-miterlimit="10" d="M31.991,24.375c0,0,20.666-18,22.333-20
		c0,0,1-6,4-2s-1.667,4-1.667,4s-17.333,15-19.333,17.333s-2,2.333-2,2.333s13-1.333,17-1.333s8.667,0,9,2.333
		c0.333,2.333-0.333,8.333-0.333,11.333s1.333,13.332-6.667,15c-8,1.666-27,3.332-36,3.332s-10.333,0.334-12-1.332
		s-4.667-10.668-5-15c-0.333-4.334-1.333-9.334,3.333-10.668C9.323,28.373,23.99,27.04,23.99,27.04s-7.334-12-10.667-14.667
		S9.99,9.706,9.99,9.706s-3.333,2-4-0.667s2.333-7,4.333-6s9.333,13.333,12,17s4.333,5,4.333,5s1.667-2.333,3-1.667
		S31.991,24.375,31.991,24.375z"/>
	<g>
		<g>
			<path fill="#010101" d="M55.364,0.481c2.371,0.389,4.157,1.363,4.681,3.6c-0.41,1.63-1.816,2.264-3.601,2.52
				c-6.882,6.079-13.892,12.029-20.521,18.36c8.42,1.469,17.986-3.335,25.561,0.72c0.199,0.641,0.186,1.495,0.72,1.8
				c-0.64,6.676,0.074,22.165-5.04,25.56c-2.375,1.577-5.563,0.806-9.359,1.801c3.781-1.604,7.051-0.918,9.359-3.601
				c3.495-4.061,3.065-12.838,3.961-18c-0.742-1.179-1.863-1.978-2.881-2.88c-10.876-1.063-23.602,0.979-36,1.439
				c-8.096,0.301-15.557-0.396-19.8,2.881c-0.65,7.475,1.209,15.273,3.96,20.52c9.848,1.26,20.51,0.736,30.96,0.721
				c3.789-0.006,7.826-1.648,10.08-0.721c-0.613,1.924-3.276,0.983-4.681,1.08C32.333,57,15.16,57.876,5.324,55.921
				C2.093,48.861,0.162,39,1.364,30.361c1.266-1.014,2.86-1.7,5.04-1.8c-0.908,1.853-4.638,0.883-4.32,3.96
				c18.569-1.987,34.744-2.527,55.44-3.6c1.427,0.492,2.249,1.592,3.6,2.16c0.277-1.785-0.009-1.908,0-3.96
				c-0.616-1.305-2.503-1.337-3.6-2.16c-9.136,0.695-20.337,0.831-31.68,2.52c-0.442,0.638-0.701,1.459-1.44,1.8
				c-1.211-0.581,1.132-1.14,0-1.8c-6.931,0.424-12.1,1.946-18,0.72c5.292-0.896,11.283-0.538,16.92-1.44
				c-3.26-6.7-8.69-11.23-13.32-16.56c-1.571,0.664-4.08,1.224-5.04-0.36c-0.316-3.305,2.366-6.434,5.04-7.92
				c6.796,6.164,9.651,16.269,16.2,22.68c1.783-0.058,3.524-1.296,4.68,0c8.972-6.028,15.454-14.546,24.12-20.88
				C54.677,2.31,54.565,1.476,55.364,0.481z M56.083,5.521c3.758,1.333,3.67-3.881,0-3.96C55.093,3.066,58.468,4.423,56.083,5.521z
				 M10.724,3.361c-0.46-0.02-0.499-0.461-1.08-0.36C9.084,3.887,10.867,4.06,10.724,3.361z M5.684,9.481
				c0.548,0.891,3.086,1.096,3.6,0c-0.872-0.208-0.8-1.359-1.08-2.16c0.547-0.894,1.415-1.466,1.44-2.88
				c-0.567-0.032-0.282-0.918-1.08-0.72C7.514,5.551,5.755,6.672,5.684,9.481z M10.724,5.521c-0.443,0.756-0.996,1.404-1.44,2.16
				c1.875,3.405,5.785,4.775,7.2,8.64c4.176,2.064,4.831,7.649,9,9.72C20.208,19.557,17.665,10.34,10.724,5.521z M53.564,5.521
				c-6.276,4.764-10.896,11.183-17.641,15.48c-0.287,2.185-3.754,2.868-3.239,4.68c2.52-0.542,4.288-2.732,6.12-4.32
				c1.848-1.602,3.6-3.388,5.399-5.04c3.628-3.33,8.166-6.173,10.44-10.8C54.284,5.521,53.923,5.521,53.564,5.521z M26.204,26.401
				c2.082,0.282,3.078-0.522,5.04-0.36C30.474,24.033,26.876,25.155,26.204,26.401z"/>
			<path fill="#010101" d="M40.964,32.162c10.086-2.516,15.242,7.541,10.799,15.479c-6.286,3.989-15.389,4.558-17.639-3.601
				c0.15-4.408,1.176-7.941,3.239-10.439C38.863,33.419,39.464,32.341,40.964,32.162z M37.364,48.361
				c2.675,2.473,9.583,1.908,12.601-0.359c4.653-3.5,2.699-10.789-1.08-14.041c-5.258-2.593-10.387,0.377-12.961,3.601
				C35.47,42.147,34.841,46.029,37.364,48.361z"/>
			<path fill="#010101" d="M20.804,44.041c-0.059,0.418,0.08,0.642,0.36,0.721c0.247,1.566-0.647,1.992-1.44,2.52
				c-0.896,0.057-1.114-0.564-1.8-0.72C17.519,43.539,19.18,43.575,20.804,44.041z M19.724,46.561
				c0.188-0.533,0.533-0.907,0.72-1.44c-0.715-0.004-0.458-0.981-1.44-0.72C19.009,45.356,18.804,46.521,19.724,46.561z"/>
			<path fill="#010101" d="M13.244,46.921c-0.32,0.16-0.644,0.315-0.72,0.72c-1.906-0.015-3.136-0.704-3.24-2.521
				C11.269,44.103,13.586,43.427,13.244,46.921z M11.084,46.921c1.127,0.166,1.607-0.313,1.44-1.44
				C11.532,44.361,9.964,45.929,11.084,46.921z"/>
			<path fill="#010101" d="M38.083,36.841c2.762-1.776,6.893-2.867,10.44-1.08c0.81,1.229,1.687,2.394,2.521,3.6
				c2.424,9.923-13.145,10.835-14.4,3.96C36.304,41.46,37.722,39.191,38.083,36.841z M38.083,40.8
				c1.771-0.286,0.891-1.801,1.08-2.159c1.417-0.155,4.008-1.017,2.881-2.521C39.601,36.558,38.369,38.207,38.083,40.8z
				 M44.564,38.641c1.074-0.604,2.23-1.13,2.52-2.521C44.953,35.789,43.708,37.032,44.564,38.641z M47.804,45.481
				c-0.561-0.095-0.25-0.79,0-1.08c-1.348,0.451-2.696,0.903-2.881,2.521c4.905,0.125,7.342-7.709,2.881-9.721
				c-0.532,0.908-1.393,1.488-2.521,1.801c-0.269,1.107,0.988,0.691,0.72,1.799c1.726,0.166,1.287-1.834,2.881-1.799
				c0.528,2.328-2.541,1.746-1.44,3.6c1.056,0.414,1.337-1.727,1.8-0.721C48.852,43.169,48.167,44.164,47.804,45.481z
				 M41.684,38.641c0.161,0.92,0.505,1.655,1.079,2.159c0.679-0.834,1.49-1.532,0.721-2.879
				C42.589,37.866,42.37,38.487,41.684,38.641z M38.083,43.681c1.688-0.233,2.254-1.585,3.601-2.16c-0.12-0.84-0.369-1.551-1.08-1.8
				C39.841,41.119,38.169,41.607,38.083,43.681z M43.843,42.96C48.533,41.166,41.331,38.734,43.843,42.96L43.843,42.96z
				 M38.804,45.121c0.252,1.698,4.889,2.744,5.039-0.359c-1.514-0.074-1.512,1.367-2.879,1.439c-0.461-2.142,2.291-1.068,2.16-2.88
				C42.452,40.977,38.662,44.166,38.804,45.121z M44.923,45.121c0.638-0.803,2.015-0.865,2.16-2.16
				C46.49,41.134,43.634,43.99,44.923,45.121z"/>
		</g>
	</g>
</g>
</svg>
