<?xml version="1.0" encoding="iso-8859-1"?>
<!-- Generator: Adobe Illustrator 15.1.0, SVG Export Plug-In . SVG Version: 6.00 Build 0)  -->
<!DOCTYPE svg PUBLIC "-//W3C//DTD SVG 1.1//EN" "http://www.w3.org/Graphics/SVG/1.1/DTD/svg11.dtd">
<svg version="1.1" id="Layer_1" xmlns="http://www.w3.org/2000/svg" xmlns:xlink="http://www.w3.org/1999/xlink" x="0px" y="0px"
	 width="792px" height="612px" viewBox="0 0 792 612" style="enable-background:new 0 0 792 612;" xml:space="preserve">
<circle style="fill:#FFFFFF;stroke:#A9A8A8;stroke-miterlimit:10;" cx="401.389" cy="301.749" r="86.795"/>
<circle style="fill:#FFFFFF;stroke:#A9A8A8;stroke-width:5;stroke-miterlimit:10;" cx="401.39" cy="301.749" r="78.094"/>
<g>
	<path style="fill:#FFFFFF;stroke:#231F20;stroke-miterlimit:10;" d="M445.097,276.953c0,0,11.415,0.571,11.985,5.708
		c0.571,5.137,3.426,14.84-10.844,14.84"/>
	<path style="fill:#FFFFFF;stroke:#231F20;stroke-miterlimit:10;" d="M361.193,277.524c0,0-16.552-8.562-19.406,2.283
		s1.142,15.41,1.142,15.41s2.283,6.279,9.132,3.425c6.849-2.854,6.849-2.854,6.849-2.854"/>
	<path style="fill:#E2E2E1;stroke:#231F20;stroke-miterlimit:10;" d="M358.137,335.665c0,0-26.605-62.589,13.094-69.747
		c39.7-7.159,72.89-2.604,78.097,15.619s0.066,43.757-4.6,52.571s-23.029,13.62-36.729,13.62
		C394.302,347.729,369.025,352.775,358.137,335.665z"/>
	<path style="fill:#FFFFFF;stroke:#231F20;stroke-miterlimit:10;" d="M416.559,344.875c0,0-17.123,1.712-24.544-2.283
		c-7.42-3.995-11.986-3.995-15.411-9.703c-3.424-5.707-3.995-17.123-2.283-19.406c1.712-2.283,4.566-3.424,14.269-3.995
		c9.703-0.57,22.831-0.57,29.681-0.57c6.849,0,24.543-2.283,26.255,5.137C446.238,321.474,449.662,343.163,416.559,344.875z"/>
	<path style="fill:#FFFFFF;stroke:#231F20;stroke-miterlimit:10;" d="M394.298,317.479c0,0-5.708-7.42,1.142-9.703
		s9.133-9.703,17.693-7.991c8.563,1.713,10.846,5.137,10.846,5.137s7.42,0,7.99,5.138c0.57,5.137-2.283,6.849-2.283,6.849"/>
	<path style="fill:#FFFFFF;stroke:#231F20;stroke-miterlimit:10;" d="M400.576,315.195c0,0,11.416,9.703,24.543,0"/>
	<path style="fill:#FFFFFF;stroke:#231F20;stroke-miterlimit:10;" d="M403.663,287.938c0,0-5.845-3.748-13.415-6.371
		c-7.569-2.623-9.743-4.797-11.167-2.923c-1.423,1.874-4.122,3.822,0.375,6.37c4.497,2.548,7.871,3.373,10.494,4.497
		c2.623,1.125,12.365,5.921,13.489,3.297C404.563,290.186,403.663,287.938,403.663,287.938z"/>
	<path style="fill:#FFFFFF;stroke:#231F20;stroke-miterlimit:10;" d="M417.717,283.995c0,0,4.799-3.722,8.881-5.771
		c4.08-2.051,7.168-2.853,8.689-1.437s4.461,1.312,2.199,3.383c-2.264,2.072-3.258,3.319-7.762,5.646
		c-4.503,2.324-7.738,3.824-9.705,4.5c-1.967,0.678-2.961,1.924-4.334-0.189C414.312,288.012,416.152,286.215,417.717,283.995z"/>
	<ellipse style="fill:#231F20;" cx="396.581" cy="294.647" rx="2.283" ry="3.425"/>
	<ellipse style="fill:#231F20;" cx="423.407" cy="294.647" rx="2.283" ry="3.425"/>
	<path style="fill:#FFFFFF;stroke:#231F20;stroke-miterlimit:10;" d="M389.732,333.46c0,0,21.117-14.84,35.387-10.845
		s11.416,8.562,6.279,10.845s-15.982,3.425-15.982,3.425S389.732,339.738,389.732,333.46z"/>
	<polyline style="fill:#FFFFFF;stroke:#231F20;stroke-miterlimit:10;" points="394.298,331.177 402.289,332.889 406.284,328.894 
		409.139,331.177 414.846,327.752 419.412,330.035 422.266,326.61 425.69,329.464 429.115,324.898 	"/>
</g>
</svg>
