<?xml version="1.0" encoding="iso-8859-1"?>
<!-- Generator: Adobe Illustrator 15.1.0, SVG Export Plug-In . SVG Version: 6.00 Build 0)  -->
<!DOCTYPE svg PUBLIC "-//W3C//DTD SVG 1.1//EN" "http://www.w3.org/Graphics/SVG/1.1/DTD/svg11.dtd">
<svg version="1.1" id="Layer_1" xmlns="http://www.w3.org/2000/svg" xmlns:xlink="http://www.w3.org/1999/xlink" x="0px" y="0px"
	 width="182.934px" height="103.824px" viewBox="0 0 182.934 103.824" style="enable-background:new 0 0 182.934 103.824;"
	 xml:space="preserve">
<g>
	<path style="fill:#FFFFFF;" d="M73.617,100.796l-2.892,1.156l-0.289,0.082c-0.064,0.014-1.605,0.289-3.794,0.289
		c-2.714,0-6.642-0.434-9.936-2.49c-2.75-1.721-4.184-3.408-4.383-5.162c-0.097-0.85,0.125-1.498,0.361-1.928
		c0.152-2.268,1.241-6.133,1.373-6.596l1.03-1.031c0.21-0.059,5.178-1.469,8.555-1.469c1.905,0,3.14,0.463,3.772,1.412
		c0.571,0.857,3.527,2.016,6.071,2.623l1.018-0.254l-1.157-8.672l-0.013-0.203v-2.662c0-2.342,1.507-4.209,2.476-5.168l-1.56-5.719
		c-2.909-1.617-4.579-7.559-5.33-11.057c-4.058-0.719-6.554-3.315-6.913-7.254c-0.208-2.292,0.154-4.788,1.077-7.424l-0.042-0.053
		l0.131-0.561c-4.727,1.773-10.961,3.902-13.671,3.902c-2.895,0-3.657,1.176-3.688,1.227l-1.312,0.773H29.909l-5.65,3.295
		l-0.33,0.143l-13.453,3.986c-0.374,0.137-2.128,0.743-3.731,0.743c-1.735,0-2.583-0.727-2.989-1.334
		c-0.379-0.569-0.5-1.237-0.352-1.934c0.166-0.771,0.685-1.516,1.296-2.162c-1.174-0.459-2.256-1.17-2.619-2.264
		c-0.215-0.645-0.157-1.311,0.168-1.926c0.163-0.309,0.389-0.586,0.651-0.836c-0.818-0.715-1.396-1.76-1.396-3.213
		c0-3.244,4.957-3.66,9.275-3.66c0.184,0,0.363,0.002,0.54,0.004c-0.194-0.42-0.314-0.87-0.314-1.344
		c0-2.599,3.665-3.324,4.788-3.484l1.011,0.215l11.875,7.477l13.007-1.678l6.378-1.962l13.051-3.515l0.255-0.045l3.668-0.334
		l0.08-0.342l1.651-1.145l6.428,0.826l0.192,0.32h6.46l0.724-1.332l22.001,1l0.114,0.332h18.887l2.219-0.317
		c0.019-0.007,0.745-0.144,1.782-0.173l0.084-0.865l11.265-9.001l0.536-0.272l10.137-2.812l6.779-3.802l5.781-10.246l0.787-0.67
		c0.169-0.063,1.691-0.608,3.096-0.608c1.668,0,2.429,0.761,2.773,1.399c0.225,0.416,0.332,0.867,0.359,1.326
		c2.424-1.338,5.626-2.853,7.703-2.853c1.661,0,2.387,0.884,2.671,1.412c0.63,1.166,0.729,2.368,0.307,3.495
		c1.554,0.424,1.935,1.507,2.026,2.035c0.197,1.136-0.417,2.274-1.229,3.236c0.845,0.278,1.653,0.688,2.167,1.287
		c0.462,0.541,0.673,1.188,0.608,1.867c-0.253,2.727-4.305,3.527-5.634,3.717l-13.729,2.885l-0.357,0.03l-6.916-0.228
		c-4.751,2.929-8.292,4.57-10.536,4.883c-3.53,0.49-7.173,2.992-7.677,3.35l-3.479,3.166c1.865,3.98,1.186,12.661,0.713,16.844
		c0.859,0.348,1.933,0.979,2.772,2.113c1.241,1.674,1.598,3.893,1.057,6.594c-1.037,5.188-6.933,6.938-11.768,7.736l-0.868,6.076
		v8.492l0.637,7.014c1.055,2.344,3.104,7.318,2.724,9.764c0.059,0.637-0.119,1.25-0.519,1.762c-0.594,0.76-1.941,1.771-6.787,1.771
		c-0.807,0-1.495-0.029-1.911-0.053l-2.307,1.152l-0.671,0.158c-1.053,0-10.391-0.039-13.89-1.441
		c-0.661-0.264-2.676-1.068-2.858-2.844c-0.087-0.836,0.287-1.551,0.752-2.041c-0.402-1.264-0.324-2.699-0.158-4.025
		c0.415-3.328,2.557-5.016,6.362-5.016c1.016,0,2.066,0.109,2.994,0.207c0.789,0.082,1.535,0.16,2.132,0.16
		c2.126,0,4.566-0.287,5.958-0.479l0.493-4.938c-0.641-0.91-1.979-2.924-2.54-4.609c-0.657-1.971-0.294-3.865-0.095-4.625
		l-0.484-5.801c-1.657-0.254-2.962-0.576-3.029-0.592l-0.91-0.662l-2.892-4.629H87.299l-0.964,3.377v8.457
		c0,3.098-2.126,4.84-3.382,5.598l-0.614,11.043l0.637,7.004c0.657,1.895-0.707,4.6-1.163,5.418l-1.659,0.73L73.617,100.796z"/>
	<path d="M174.874,3c0.633,0,1.113,0.185,1.352,0.625c1.428,2.642-1.652,4.304-1.652,4.304s0.894-0.197,1.818-0.197
		c0.92,0,1.872,0.195,2.01,0.971c0.271,1.559-3.012,3.898-3.012,3.898s4.708,0.299,4.541,2.094s-4.398,2.377-4.398,2.377
		l-13.779,2.895l-6.941-0.229l-0.113-0.211c-3.027,1.9-7.895,4.725-10.652,5.107c-4.202,0.584-8.415,3.668-8.415,3.668l-4.479,4.075
		c2.973,2.925,1.019,18.183,1.019,18.183c0.005,0,5.332,0.67,3.999,7.334c-0.934,4.668-7.097,6.066-11.624,6.715l-1.044,7.285v8.666
		l0.666,7.334c0,0,3.334,7.332,2.668,9.332c0.444,1.779-3.262,2.074-5.78,2.074c-1.258,0-2.22-0.074-2.22-0.074l-2.668,1.334
		c0,0-10,0-13.332-1.334c-3.334-1.334-1.334-2.666-1.334-2.666s0.309-0.023,0.834-0.063c-0.909-0.887-1.12-2.313-0.834-4.604
		c0.381-3.049,2.502-3.701,4.874-3.701c1.778,0,3.697,0.367,5.126,0.367c3.334,0,7.334-0.666,7.334-0.666l0.666-6.668
		c0,0-2-2.666-2.666-4.666c-0.667-2,0-4,0-4l-0.607-7.279c-2.122-0.236-4.062-0.721-4.062-0.721l-3.332-5.334H86.167l-1.333,4.668
		c0,0,0,5.332,0,8.666s-3.333,4.666-3.333,4.666l-0.667,12l0.667,7.334c0.667,1.334-1,4.334-1,4.334l-7-1.668l-3.333,1.334
		c0,0-1.448,0.264-3.526,0.264c-2.597,0-6.178-0.412-9.141-2.264c-5.32-3.324-3.343-5.324-3.334-5.332v-0.002
		c0-2,1.333-6.666,1.333-6.666s4.937-1.41,8.143-1.41c1.202,0,2.161,0.199,2.524,0.744c1.334,2,7.334,3.332,7.334,3.332l2.667-0.666
		h-0.001l-1.333-10c0,0,0,0,0-2.666c0-2.668,2.667-4.668,2.667-4.668l-2-7.332c-3.214-0.645-5.188-10.582-5.324-11.291
		c-2.607-0.227-6.252-1.387-6.676-6.043c-0.222-2.426,0.294-4.845,1.074-7.004c-0.025,0-0.049,0.006-0.073,0.006l0.777-3.316
		c-3.768,1.475-12.659,4.816-15.777,4.816c-4,0-5,2-5,2h-15l-6,3.5l-13.5,4c0,0-1.778,0.666-3.259,0.666
		c-0.741,0-1.407-0.166-1.741-0.666c-1-1.5,3-4,3-4s-4-0.5-4.5-2s3-2.5,3-2.5s-3.5,0-3.5-3c0-1.801,4.32-2.16,7.775-2.16
		c2.305,0,4.225,0.16,4.225,0.16s-2.5-1.5-2.5-3s3.5-2,3.5-2l12.331,7.764l13.669-1.764l6.5-2l13-3.5l4.745-0.433l0.327-1.394
		l6.428,0.826c0,0-0.046,0.123-0.135,0.332h8.845c-0.8-0.756-1.21-1.332-1.21-1.332l22,1c0,0-0.146,0.127-0.413,0.332h19.589
		l2.324-0.332c0,0,0.828-0.164,1.952-0.164c0.541,0,1.15,0.037,1.77,0.149l-1.131-1.337l11.266-9.001l10.312-2.858l7.304-4.096
		l5.988-10.611c0,0,1.4-0.518,2.576-0.518c0.635,0,1.204,0.15,1.454,0.613c0.713,1.32-0.775,3.828-0.775,3.828
		S171.713,2.999,174.874,3 M174.873,0c-1.935,0-4.519,1.022-6.819,2.179c-0.486-0.824-1.618-2.053-4.017-2.053
		c-1.629,0-3.297,0.585-3.614,0.702l-1.574,1.34l-5.575,9.88l-6.256,3.508l-9.962,2.762l-1.07,0.547l-11.266,9.001l-0.057,0.587
		c-0.552,0.047-0.959,0.113-1.145,0.146l-2.055,0.293h-18.711l-0.116-0.33l-22-1l-0.724,1.33h-6.346l-0.186-0.309l-6.428-0.826
		l-2.146,1.488l-3.581,0.326l-0.508,0.091l-13,3.5l-0.104,0.03l-6.255,1.925L29.015,36.71l-11.418-7.189l-2.023-0.431
		c-3.732,0.533-5.989,2.332-6.072,4.826c-1.792,0.047-3.31,0.199-4.522,0.452c-4.333,0.902-4.979,3.326-4.979,4.691
		c0,1.303,0.356,2.399,0.953,3.285c-0.013,0.02-0.023,0.041-0.034,0.063c-0.514,0.972-0.607,2.073-0.266,3.101
		c0.326,0.977,0.984,1.723,1.798,2.295c-0.235,0.426-0.417,0.873-0.517,1.34c-0.234,1.084-0.032,2.18,0.569,3.08
		c0.499,0.749,1.712,2.004,4.236,2.004c1.786,0,3.637-0.613,4.203-0.818l13.409-3.973l0.66-0.285l5.299-3.09H44.5l2.683-1.658
		c-0.098,0.195-0.159,0.266-0.162,0.269c0.005-0.006,0.564-0.61,2.479-0.61c2.064,0,5.918-1.006,11.489-3
		c-0.483,2.014-0.645,3.947-0.479,5.771c0.39,4.277,3.009,7.293,7.146,8.375c0.994,4.295,2.634,8.811,5.292,10.744l1.188,4.355
		c-1.079,1.238-2.307,3.176-2.307,5.586v2.334v0.291l0.025,0.438l0.933,6.992c-1.895-0.543-3.688-1.291-4.165-1.771
		c-1.397-2.027-4.095-2.027-4.985-2.027c-3.524,0-8.42,1.369-8.967,1.525l-2.062,2.061c-0.213,0.748-1.177,4.213-1.4,6.602
		c-0.29,0.637-0.508,1.5-0.375,2.563c0.278,2.217,1.938,4.246,5.071,6.205c3.597,2.248,7.82,2.721,10.731,2.721
		c2.282,0,3.887-0.279,4.063-0.313l0.578-0.166l2.449-0.98l6.074,1.445l3.316-1.459c0.826-1.486,2.013-4.18,1.33-6.453l-0.61-6.725
		l0.564-10.17c1.692-1.232,3.428-3.363,3.428-6.443v-8.248l0.596-2.086h18.741l2.451,3.924l1.818,1.32
		c0.055,0.014,0.854,0.211,1.993,0.422l0.368,4.406c-0.236,1.043-0.521,3.09,0.188,5.211c0.539,1.621,1.67,3.436,2.414,4.533
		l-0.318,3.201c-1.332,0.156-3.051,0.314-4.584,0.314c-0.52,0-1.228-0.074-1.978-0.152c-0.963-0.1-2.056-0.215-3.148-0.215
		c-6.145,0-7.557,3.965-7.852,6.328c-0.149,1.199-0.236,2.563,0.021,3.879c-0.438,0.691-0.719,1.555-0.617,2.529
		c0.185,1.775,1.461,3.148,3.794,4.082c3.682,1.475,12.68,1.549,14.446,1.549l1.342-0.316l1.955-0.979
		c0.424,0.02,0.976,0.035,1.591,0.035c4.245,0,6.703-0.725,7.971-2.348c0.596-0.762,0.887-1.695,0.84-2.65
		c0.234-2.133-0.688-5.549-2.756-10.182l-0.604-6.695v-8.318l0.698-4.883c4.178-0.771,10.703-2.715,11.908-8.742
		c0.778-3.895-0.283-6.374-1.313-7.769c-0.718-0.973-1.57-1.647-2.381-2.114c0.513-4.938,0.797-11.449-0.562-15.539l2.663-2.422
		c1.123-0.789,4.235-2.658,6.938-3.033c2.384-0.33,5.989-1.963,10.729-4.854l6.469,0.213l0.716-0.063l13.682-2.875
		c2.038-0.295,6.523-1.365,6.867-5.057c0.101-1.078-0.242-2.137-0.964-2.979c-0.311-0.363-0.683-0.671-1.091-0.935
		c0.442-0.888,0.669-1.855,0.492-2.867c-0.093-0.526-0.448-1.811-1.772-2.657c0.106-1.108-0.13-2.245-0.718-3.333
		C178.111,0.802,176.656,0,174.873,0L174.873,0L174.873,0L174.873,0z"/>
</g>
<g>
	<path style="fill:#FFFFFF;stroke:#231F20;stroke-miterlimit:10;" d="M101.501,96.56c0,0-2,1.332,1.334,2.666
		c3.332,1.334,13.332,1.334,13.332,1.334l2.668-1.334c0,0,8.666,0.666,8-2C126.167,94.56,101.501,96.56,101.501,96.56z"/>
	<path style="fill:#939598;stroke:#231F20;stroke-miterlimit:10;" d="M118.835,87.894c0,0-4,0.666-7.334,0.666s-9.334-2-10,3.334
		c-0.666,5.332,1.333,6,8.666,6c7.334,0,12,0,12,0s4.001,1.332,4.668-0.668c0.666-2-2.668-9.332-2.668-9.332"/>
	<path style="fill:none;stroke:#231F20;stroke-linecap:round;stroke-linejoin:round;stroke-miterlimit:10;" d="M116.502,88.562
		c0,0,3,2,3,3.5"/>
	<path style="fill:#FFFFFF;stroke:#231F20;stroke-miterlimit:10;" d="M54.168,93.226c0,0-2,2.002,3.333,5.334
		c5.333,3.334,12.667,2,12.667,2l3.333-1.334l7,1.668c0,0,1.667-3,1-4.334S54.168,93.226,54.168,93.226z"/>
	<path style="fill:#D1D3D4;stroke:#231F20;stroke-miterlimit:10;" d="M70.168,52.56c0,0,2,10.666,5.333,11.334
		c3.333,0.666,9.333,0,9.333,0l1.333-4.668h22.667l3.332,5.334c0,0,5.334,1.332,8,0.666c2.668-0.666,14.667-0.666,16-7.332
		c1.334-6.668-4-7.334-4-7.334L70.168,52.56z"/>
	<path style="fill:#FFFFFF;stroke:#231F20;stroke-miterlimit:10;" d="M130.031,31.894H68.834c0,0-6,7.334-5.333,14.666
		c0.667,7.334,9.333,6,9.333,6s33.333,0.666,36.667,0.666s22.666-2.667,22.666-2.667S134.559,31.894,130.031,31.894z"/>
	<path style="fill:#231F20;" d="M75.501,63.894l2,7.332c0,0-2.667,2-2.667,4.668c0,2.666,0,2.666,0,2.666l1.333,10l4.667,0.666
		l0.667-12c0,0,3.333-1.332,3.333-4.666s0-8.666,0-8.666H75.501L75.501,63.894z"/>
	<path style="fill:#231F20;" d="M116.167,64.56l0.668,8c0,0-0.667,2,0,4c0.666,2,2.666,4.666,2.666,4.666l-0.666,6.668h5.332
		l-0.666-7.334v-8.666l1.334-9.334L116.167,64.56z"/>
	<path style="fill:#939598;stroke:#231F20;stroke-miterlimit:10;" d="M80.834,89.226l0.667,7.334l-4.667,0.666c0,0-8.667,0.666-12,0
		s-10.667-2-10.667-4S55.5,86.56,55.5,86.56s9.333-2.666,10.667-0.666s7.334,3.332,7.334,3.332l2.667-0.666L80.834,89.226z"/>
	<path style="fill:none;stroke:#231F20;stroke-linecap:round;stroke-linejoin:round;stroke-miterlimit:10;" d="M73.501,89.226
		c0,0,3.001,2.336,3.501,3.836"/>
	<path style="fill:#231F20;" d="M80.502,30.562c0,0,3.5,5,10.5,5s11.5-4,11.5-4"/>
	<path style="fill:#231F20;" d="M73.002,31.562c0,0-3,8-8.5,8l2.072-8.826L73.002,31.562z"/>
	<path style="fill:#231F20;" d="M130.031,31.894"/>
	<path style="fill:#231F20;" d="M132.502,39.562c0,0-6,0-8.5,0s-7-7-7-7l7-1c0,0,7.5-1.5,8,4.5"/>
	<path style="fill:#231F20;" d="M67.002,35.562c0,0-13.5,5.5-17.5,5.5s-5,2-5,2h-19l1-3l15.5-2l6.5-2l13-3.5l7.333-0.668
		L67.002,35.562z"/>
	<path style="fill:#231F20;" d="M126.593,30.21l11.266-9.001l10.312-2.858l7.616-4.271l2.598,0.71l-1.012,2.996
		c0,0-9.125,6.264-13.327,6.848s-8.415,3.668-8.415,3.668l-6.021,5.477L126.593,30.21z"/>
	<path style="fill:#231F20;" d="M29.502,40.562l-13.5-8.5c0,0-3.5,0.5-3.5,2s2.5,3,2.5,3s-12-1-12,2s3.5,3,3.5,3s-3.5,1-3,2.5
		s4.5,2,4.5,2s-4,2.5-3,4s5,0,5,0l13.5-4l6-3.5"/>
	<path style="fill:#231F20;" d="M153.621,17.537l7.84-13.894c0,0,3.317-1.225,4.03,0.096s-0.775,3.828-0.775,3.828
		s10.084-6.582,11.51-3.942c1.428,2.642-1.652,4.304-1.652,4.304s3.555-0.783,3.828,0.773c0.271,1.559-3.012,3.898-3.012,3.898
		s4.708,0.299,4.541,2.094s-4.398,2.377-4.398,2.377l-13.779,2.895l-6.941-0.229"/>
</g>
</svg>
