<?xml version="1.0" encoding="iso-8859-1"?>
<!-- Generator: Adobe Illustrator 15.1.0, SVG Export Plug-In . SVG Version: 6.00 Build 0)  -->
<!DOCTYPE svg PUBLIC "-//W3C//DTD SVG 1.1//EN" "http://www.w3.org/Graphics/SVG/1.1/DTD/svg11.dtd">
<svg version="1.1" id="Layer_1" xmlns="http://www.w3.org/2000/svg" xmlns:xlink="http://www.w3.org/1999/xlink" x="0px" y="0px"
	 width="792px" height="612px" viewBox="0 0 792 612" style="enable-background:new 0 0 792 612;" xml:space="preserve">
<g>
	<path style="fill:#FFFFFF;stroke:#231F20;stroke-miterlimit:10;" d="M406,351.334c0,0-2,1.332,1.334,2.666
		c3.332,1.334,13.332,1.334,13.332,1.334l2.668-1.334c0,0,8.666,0.666,8-2C430.666,349.334,406,351.334,406,351.334z"/>
	<path style="fill:#FFFFFF;stroke:#231F20;stroke-miterlimit:10;" d="M423.334,342.667c0,0-4,0.667-7.334,0.667s-9.334-2-10,3.333
		s1.333,6,8.666,6c7.334,0,12,0,12,0s4.001,1.333,4.668-0.667c0.666-2-2.668-9.333-2.668-9.333"/>
	<path style="fill:none;stroke:#231F20;stroke-linecap:round;stroke-linejoin:round;stroke-miterlimit:10;" d="M421.001,343.335
		c0,0,3,2,3,3.5"/>
	<path style="fill:#FFFFFF;stroke:#231F20;stroke-miterlimit:10;" d="M358.667,348c0,0-2,2.001,3.333,5.334s12.667,2,12.667,2
		L378,354l7,1.667c0,0,1.667-2.999,1-4.333S358.667,348,358.667,348z"/>
	<path style="fill:#FFFFFF;stroke:#231F20;stroke-miterlimit:10;" d="M374.667,307.334c0,0,2,10.666,5.333,11.333s9.333,0,9.333,0
		l1.333-4.667h22.667l3.332,5.334c0,0,5.334,1.332,8,0.666c2.668-0.666,14.667-0.666,16-7.333c1.334-6.667-4-7.333-4-7.333
		L374.667,307.334z"/>
	<path style="fill:#FFFFFF;stroke:#231F20;stroke-miterlimit:10;" d="M434.529,286.667h-61.196c0,0-6,7.334-5.333,14.667
		s9.333,6,9.333,6S410.666,308,414,308s22.666-2.666,22.666-2.666S439.058,286.667,434.529,286.667z"/>
	<path style="fill:#231F20;" d="M380,318.667l2,7.333c0,0-2.667,2-2.667,4.667s0,2.667,0,2.667l1.333,10l4.667,0.666L386,332
		c0,0,3.333-1.332,3.333-4.666s0-8.667,0-8.667H380z"/>
	<path style="fill:#231F20;" d="M420.666,319.334l0.668,8c0,0-0.667,2,0,4C422,333.334,424,336,424,336l-0.666,6.667h5.332
		L428,335.334v-8.667l1.334-9.333L420.666,319.334z"/>
	<path style="fill:#FFFFFF;stroke:#231F20;stroke-miterlimit:10;" d="M385.333,344l0.667,7.334L381.333,352c0,0-8.667,0.666-12,0
		s-10.667-2-10.667-4s1.333-6.666,1.333-6.666s9.333-2.667,10.667-0.667S378,344,378,344l2.667-0.666L385.333,344z"/>
	<path style="fill:none;stroke:#231F20;stroke-linecap:round;stroke-linejoin:round;stroke-miterlimit:10;" d="M378,344
		c0,0,3.001,2.335,3.501,3.835"/>
	<path style="fill:#231F20;" d="M385.001,285.335c0,0,3.5,5,10.5,5s11.5-4,11.5-4"/>
	<path style="fill:#231F20;" d="M377.501,286.335c0,0-3,8-8.5,8l2.072-8.826L377.501,286.335z"/>
	<path style="fill:#231F20;" d="M434.529,286.667"/>
	<path style="fill:#231F20;" d="M437.001,294.335c0,0-6,0-8.5,0s-7-7-7-7l7-1c0,0,7.5-1.5,8,4.5"/>
	<path style="fill:#231F20;" d="M371.501,290.335c0,0-13.5,5.5-17.5,5.5s-5,2-5,2h-19l1-3l15.5-2l6.5-2l13-3.5l7.333-0.668
		L371.501,290.335z"/>
	<path style="fill:#231F20;" d="M431.092,284.984l11.264-9.001l10.312-2.859l7.616-4.27l2.598,0.71l-1.012,2.996
		c0,0-9.125,6.264-13.327,6.848c-4.202,0.583-8.415,3.667-8.415,3.667l-6.021,5.477L431.092,284.984z"/>
	<path style="fill:#231F20;" d="M334.001,295.335l-13.5-8.5c0,0-3.5,0.5-3.5,2s2.5,3,2.5,3s-12-1-12,2s3.5,3,3.5,3s-3.5,1-3,2.5
		s4.5,2,4.5,2s-4,2.5-3,4s5,0,5,0l13.5-4l6-3.5"/>
	<path style="fill:#231F20;" d="M458.12,272.311l7.84-13.894c0,0,3.317-1.224,4.03,0.096c0.713,1.32-0.775,3.828-0.775,3.828
		s10.084-6.582,11.51-3.942c1.426,2.641-1.654,4.303-1.654,4.303s3.555-0.782,3.828,0.774c0.271,1.558-3.01,3.898-3.01,3.898
		s4.708,0.299,4.541,2.094s-4.4,2.377-4.4,2.377l-13.779,2.895l-6.941-0.229"/>
</g>
</svg>
