<?xml version="1.0" encoding="iso-8859-1"?>
<!-- Generator: Adobe Illustrator 15.1.0, SVG Export Plug-In . SVG Version: 6.00 Build 0)  -->
<!DOCTYPE svg PUBLIC "-//W3C//DTD SVG 1.1//EN" "http://www.w3.org/Graphics/SVG/1.1/DTD/svg11.dtd">
<svg version="1.1" id="Layer_1" xmlns="http://www.w3.org/2000/svg" xmlns:xlink="http://www.w3.org/1999/xlink" x="0px" y="0px"
	 width="792px" height="612px" viewBox="0 0 792 612" style="enable-background:new 0 0 792 612;" xml:space="preserve">
<g>
	<g>
		<path style="fill:#FFFFFF;stroke:#231F20;stroke-miterlimit:10;" d="M435.098,382.58c0,0-2.223-75.275-1.359-77.864
			s0-13.807,1.727-29.771c1.725-15.965-0.432-35.381-2.59-37.97c-1.078-1.295-5.069-5.825-8.953-6.58
			c-3.883-0.755-7.658-0.324-8.306-0.324c-1.294,0-9.062-1.294-9.062-1.294s-9.924,0-16.827,1.294
			c-6.903,1.295-31.497,8.63-31.497,8.63s-9.062,7.335-6.473,9.492s7.767,3.021,7.767,3.021l0,0c0,0,0.432,3.021,0.432,5.178
			s6.903,3.452,6.903,3.452s6.041,0,10.787,2.157s7.767,6.903,12.081,10.787c4.315,3.883,9.493,8.629,9.493,8.629
			s2.588,22.868,2.588,28.909s-1.294,27.614-1.294,27.614l-3.386,43.778"/>
		<path style="fill:#FFFFFF;stroke:#231F20;stroke-miterlimit:10;" d="M359.524,251.213c0,0,5.178,3.021,10.787,3.021
			c0,0,3.884,2.589,6.903,2.157c0,0,6.473,4.314,10.787,3.021c1.359-0.408,6.136-2.536,9.061-3.021
			c2.875-0.476,3.885,0.691,6.516,0.321c3.193-0.448,5.566-0.753,5.566-0.753s3.451,0.432,5.609,0"/>
		<path style="fill:#FFFFFF;stroke:#231F20;stroke-miterlimit:10;" d="M406.124,256.391c0,0,8.198,6.473,12.513,6.041"/>
		<path style="fill:#FFFFFF;stroke:#231F20;stroke-miterlimit:10;" d="M395.769,256.822c0,0,7.767,1.726,8.198,4.746"/>
		<path style="fill:#FFFFFF;stroke:#231F20;stroke-miterlimit:10;" d="M377.215,256.391c0,0,5.178-7.335,10.355-8.63
			c5.178-1.294,17.69-4.314,17.69-4.314l6.041-2.589"/>
		<line style="fill:#FFFFFF;stroke:#231F20;stroke-miterlimit:10;" x1="405.261" y1="243.446" x2="407.418" y2="239.132"/>
		<path style="fill:#FFFFFF;stroke:#231F20;stroke-miterlimit:10;" d="M370.312,254.233c0,0-0.863-4.314,3.452-6.473
			c4.314-2.157,8.197-3.451,10.786-4.746c2.589-1.294,7.335-2.589,7.335-2.589l6.473-3.02"/>
		<line style="fill:#FFFFFF;stroke:#231F20;stroke-miterlimit:10;" x1="391.885" y1="240.426" x2="394.043" y2="236.111"/>
		<path style="fill:#FFFFFF;stroke:#231F20;stroke-miterlimit:10;" d="M359.524,251.213c0.862-2.157,3.021-6.903,6.903-7.767
			c3.884-0.862,9.924-3.451,9.924-3.451l7.336-2.589l3.02-1.727"/>
		<line style="fill:#FFFFFF;stroke:#231F20;stroke-miterlimit:10;" x1="383.688" y1="237.406" x2="383.256" y2="234.817"/>
	</g>
	<line style="fill:#FFFFFF;stroke:#231F20;stroke-miterlimit:10;" x1="434.598" y1="377.58" x2="440.098" y2="376.08"/>
	<line style="fill:#FFFFFF;stroke:#231F20;stroke-miterlimit:10;" x1="435.098" y1="372.08" x2="437.598" y2="370.08"/>
	<line style="fill:#FFFFFF;stroke:#231F20;stroke-miterlimit:10;" x1="434.598" y1="357.58" x2="440.598" y2="358.08"/>
	<line style="fill:#FFFFFF;stroke:#231F20;stroke-miterlimit:10;" x1="434.598" y1="352.08" x2="437.598" y2="349.58"/>
	<line style="fill:#FFFFFF;stroke:#231F20;stroke-miterlimit:10;" x1="433.098" y1="332.08" x2="437.098" y2="332.08"/>
	<line style="fill:#FFFFFF;stroke:#231F20;stroke-miterlimit:10;" x1="434.098" y1="325.08" x2="440.098" y2="322.08"/>
	<line style="fill:#FFFFFF;stroke:#231F20;stroke-miterlimit:10;" x1="433.098" y1="310.08" x2="438.598" y2="310.58"/>
	<line style="fill:#FFFFFF;stroke:#231F20;stroke-miterlimit:10;" x1="433.738" y1="304.716" x2="436.598" y2="305.08"/>
	<line style="fill:#FFFFFF;stroke:#231F20;stroke-miterlimit:10;" x1="434.598" y1="296.58" x2="442.598" y2="294.58"/>
</g>
</svg>
