<?xml version="1.0" encoding="iso-8859-1"?>
<!-- Generator: Adobe Illustrator 15.1.0, SVG Export Plug-In . SVG Version: 6.00 Build 0)  -->
<!DOCTYPE svg PUBLIC "-//W3C//DTD SVG 1.1//EN" "http://www.w3.org/Graphics/SVG/1.1/DTD/svg11.dtd">
<svg version="1.1" id="Layer_1" xmlns="http://www.w3.org/2000/svg" xmlns:xlink="http://www.w3.org/1999/xlink" x="0px" y="0px"
	 width="792px" height="612px" viewBox="0 0 792 612" style="enable-background:new 0 0 792 612;" xml:space="preserve">
<g>
	<g>
		<path style="fill:#FFFFFF;stroke:#231F20;stroke-miterlimit:10;" d="M348.576,377.084c0,0,1-50.5,0-53.5s0-16-2-34.5s0.5-41,3-44
			c1.25-1.5,5.875-6.75,10.375-7.625s8.875-0.375,9.625-0.375c1.5,0,10.5-1.5,10.5-1.5s11.5,0,19.5,1.5s36.5,10,36.5,10
			s10.5,8.5,7.5,11s-9,3.5-9,3.5l0,0c0,0-0.5,3.5-0.5,6s-8,4-8,4s-7,0-12.5,2.5s-9,8-14,12.5s-11,10-11,10s-3,26.5-3,33.5
			s1.5,32,1.5,32l5.5,14"/>
		<path style="fill:#FFFFFF;stroke:#231F20;stroke-miterlimit:10;" d="M434.576,261.584c0,0-6,3.5-12.5,3.5c0,0-4.5,3-8,2.5
			c0,0-7.5,5-12.5,3.5c-1.574-0.473-7.11-2.938-10.5-3.5c-3.33-0.552-4.502,0.801-7.551,0.372c-3.699-0.52-6.449-0.872-6.449-0.872
			s-4,0.5-6.5,0"/>
		<path style="fill:#FFFFFF;stroke:#231F20;stroke-miterlimit:10;" d="M380.576,267.584c0,0-9.5,7.5-14.5,7"/>
		<path style="fill:#FFFFFF;stroke:#231F20;stroke-miterlimit:10;" d="M392.576,268.084c0,0-9,2-9.5,5.5"/>
		<path style="fill:#FFFFFF;stroke:#231F20;stroke-miterlimit:10;" d="M414.076,267.584c0,0-6-8.5-12-10s-20.5-5-20.5-5l-7-3"/>
		<line style="fill:#FFFFFF;stroke:#231F20;stroke-miterlimit:10;" x1="381.576" y1="252.584" x2="379.076" y2="247.584"/>
		<path style="fill:#FFFFFF;stroke:#231F20;stroke-miterlimit:10;" d="M422.076,265.084c0,0,1-5-4-7.5s-9.5-4-12.5-5.5s-8.5-3-8.5-3
			l-7.5-3.5"/>
		<line style="fill:#FFFFFF;stroke:#231F20;stroke-miterlimit:10;" x1="397.076" y1="249.084" x2="394.576" y2="244.084"/>
		<path style="fill:#FFFFFF;stroke:#231F20;stroke-miterlimit:10;" d="M434.576,261.584c-1-2.5-3.5-8-8-9s-11.5-4-11.5-4l-8.5-3
			l-3.5-2"/>
		<line style="fill:#FFFFFF;stroke:#231F20;stroke-miterlimit:10;" x1="406.576" y1="245.584" x2="407.076" y2="242.584"/>
	</g>
	<path style="fill:none;stroke:#231F20;stroke-miterlimit:10;" d="M348.611,335.083c0,0,10.417,8.334,12.5,8.334
		s3.472,3.473,2.777,6.25s-9.027,8.334-14.583-0.694"/>
	<line style="fill:none;stroke:#231F20;stroke-miterlimit:10;" x1="354.167" y1="341.333" x2="352.778" y2="350.361"/>
</g>
</svg>
