<?xml version="1.0" encoding="iso-8859-1"?>
<!-- Generator: Adobe Illustrator 15.1.0, SVG Export Plug-In . SVG Version: 6.00 Build 0)  -->
<!DOCTYPE svg PUBLIC "-//W3C//DTD SVG 1.1//EN" "http://www.w3.org/Graphics/SVG/1.1/DTD/svg11.dtd">
<svg version="1.1" id="Layer_1" xmlns="http://www.w3.org/2000/svg" xmlns:xlink="http://www.w3.org/1999/xlink" x="0px" y="0px"
	 width="122.915px" height="91.73px" viewBox="0 0 122.915 91.73" style="enable-background:new 0 0 122.915 91.73;"
	 xml:space="preserve">
<g>
	<path style="fill:#FFFFFF;" d="M51.306,90.231c-10.146,0-24.519-1.395-32.19-13.452l-0.066-0.104L19,76.561
		c-0.313-0.74-7.518-17.864-8.684-35.404c-4.193-0.336-6.023-3.891-6.453-4.871c-0.824-1.119-3.988-6.271-1.283-16.552
		c1.139-4.323,4.313-6.609,9.184-6.609c1.527,0,3.225,0.228,5.057,0.679c3.858-4.742,9.367-7.786,16.391-9.052
		c11.958-2.156,23.213-3.25,33.451-3.25c22.027,0,37.555,5.183,43.865,14.613c4.59,0.727,9.824,2.479,10.293,6.689
		c0.051,0.468,0.123,0.977,0.197,1.511c0.607,4.31,1.604,11.387-5.771,14.006c0.182,14.506-3.332,29.975-6.947,36.798
		c-5.264,9.944-25.617,14.417-38.391,14.417c-2.307,0-4.988,0.148-7.826,0.307C58.788,90.024,55.053,90.231,51.306,90.231
		L51.306,90.231z"/>
	<path style="fill:#231F20;" d="M66.663,3.001c20.916,0,36.918,4.681,42.973,14.497c3.363,0.467,9.285,1.808,9.693,5.472
		c0.486,4.38,2.625,12.078-5.604,14.25c0.393,15.064-3.307,30.688-6.752,37.197c-4.666,8.813-23.367,13.618-37.066,13.618
		c-5.084,0-11.713,0.695-18.601,0.695c-11.672,0-24.078-1.997-30.926-12.758c0,0-7.804-18.364-8.647-36.336
		c-0.268,0.03-0.522,0.043-0.771,0.043c-4.266,0-5.788-4.156-5.788-4.156S1.177,30.959,4.03,20.114
		c1.106-4.205,4.271-5.492,7.732-5.492c1.885,0,3.855,0.382,5.631,0.881c3.395-4.553,8.538-7.918,16.082-9.278
		C45.307,4.093,56.557,3.001,66.663,3.001 M66.663,0.001c-10.33,0-21.674,1.101-33.719,3.272
		c-7.029,1.269-12.631,4.246-16.681,8.862c-1.604-0.34-3.112-0.512-4.5-0.513c-5.546,0-9.321,2.745-10.634,7.729
		c-2.76,10.485,0.252,16.026,1.416,17.671c0.855,1.938,2.919,4.635,6.363,5.43c1.42,17.366,8.398,33.962,8.711,34.693l0.097,0.229
		l0.133,0.209c8.07,12.681,22.959,14.146,33.457,14.146c3.788,0,7.544-0.208,10.858-0.392c2.816-0.156,5.477-0.305,7.742-0.305
		c12.24,0,33.85-4.131,39.717-15.216c3.572-6.744,7.156-21.564,7.129-36.486c7.428-3.313,6.313-11.242,5.75-15.228
		c-0.072-0.52-0.143-1.012-0.193-1.467c-0.313-2.824-2.494-6.414-10.906-7.898C104.538,5.09,89.12,0.001,66.663,0.001L66.663,0.001z
		"/>
</g>
<g>
	<path style="fill:#FFFFFF;stroke:#231F20;stroke-miterlimit:10;" d="M107.342,17.261c0,0,11.414,0.571,11.986,5.708
		c0.57,5.137,3.424,14.84-10.846,14.84"/>
	<path style="fill:#FFFFFF;stroke:#231F20;stroke-miterlimit:10;" d="M23.438,17.833c0,0-16.553-8.563-19.406,2.283
		C1.177,30.961,5.174,35.525,5.174,35.525s2.283,6.279,9.132,3.426c6.851-2.854,6.851-2.854,6.851-2.854"/>
	<path style="fill:#E2E2E1;stroke:#231F20;stroke-miterlimit:10;" d="M20.381,75.973c0,0-26.605-62.589,13.095-69.747
		c39.7-7.159,72.892-2.604,78.097,15.619c5.207,18.223,0.068,43.757-4.6,52.571c-4.666,8.813-23.367,13.618-37.066,13.618
		C56.208,88.037,31.269,93.084,20.381,75.973z"/>
	<path style="fill:#FFFFFF;stroke:#231F20;stroke-miterlimit:10;" d="M78.803,85.183c0,0-17.123,1.712-24.544-2.283
		c-7.42-3.995-11.985-3.995-15.41-9.703c-3.426-5.707-3.996-17.123-2.282-19.404c1.711-2.283,4.564-3.426,14.269-3.995
		c9.702-0.57,22.831-0.57,29.681-0.57s24.543-2.283,26.256,5.137C108.483,61.784,111.907,83.471,78.803,85.183z"/>
	<path style="fill:#FFFFFF;stroke:#231F20;stroke-miterlimit:10;" d="M56.543,54.362c0,0-5.708-7.42,1.141-9.702
		c6.85-2.283,9.133-9.703,17.693-7.991c8.564,1.713,10.848,5.138,10.848,5.138s7.42,0,7.988,5.137
		c0.57,5.137-2.281,6.851-2.281,6.851"/>
	<path style="fill:#FFFFFF;stroke:#231F20;stroke-miterlimit:10;" d="M62.821,52.08c0,0,11.416,9.701,24.543,0"/>
	<path style="fill:#FFFFFF;stroke:#231F20;stroke-miterlimit:10;" d="M60.538,8.741c0,0-6.848-1.142-14.84-0.57
		c-7.99,0.571-10.845-0.57-11.414,1.712c-0.571,2.283-2.283,5.138,2.854,5.708c5.137,0.571,8.563,0,11.415,0
		c2.854,0,13.698,0.571,13.698-2.283C62.25,10.454,60.538,8.741,60.538,8.741z"/>
	<path style="fill:#FFFFFF;stroke:#231F20;stroke-miterlimit:10;" d="M80.938,8.701c0,0,6.053-0.505,10.592,0
		c4.537,0.504,7.564,1.513,8.068,3.53s3.023,3.529,0,4.034c-3.025,0.504-4.539,1.009-9.582,0.504
		c-5.043-0.504-8.574-1.009-10.594-1.513c-2.018-0.504-3.527,0-3.527-2.521C75.895,10.213,78.417,9.709,80.938,8.701z"/>
	<ellipse style="fill:#231F20;" cx="51.976" cy="33.815" rx="2.283" ry="3.425"/>
	<ellipse style="fill:#231F20;" cx="89.647" cy="33.815" rx="2.283" ry="3.425"/>
	<ellipse style="fill:#FFFFFF;stroke:#231F20;stroke-miterlimit:10;" cx="73.952" cy="71.771" rx="8.846" ry="6.563"/>
</g>
</svg>
