<?xml version="1.0" encoding="iso-8859-1"?>
<!-- Generator: Adobe Illustrator 15.1.0, SVG Export Plug-In . SVG Version: 6.00 Build 0)  -->
<!DOCTYPE svg PUBLIC "-//W3C//DTD SVG 1.1//EN" "http://www.w3.org/Graphics/SVG/1.1/DTD/svg11.dtd">
<svg version="1.1" id="Layer_1" xmlns="http://www.w3.org/2000/svg" xmlns:xlink="http://www.w3.org/1999/xlink" x="0px" y="0px"
	 width="792px" height="612px" viewBox="0 0 792 612" style="enable-background:new 0 0 792 612;" xml:space="preserve">
<g>
	<path style="fill:#FFFFFF;stroke:#231F20;stroke-miterlimit:10;" d="M444.778,276.953c0,0,11.415,0.571,11.985,5.708
		c0.571,5.137,3.426,14.84-10.844,14.84"/>
	<path style="fill:#FFFFFF;stroke:#231F20;stroke-miterlimit:10;" d="M360.875,277.524c0,0-16.553-8.562-19.406,2.283
		s1.142,15.41,1.142,15.41s2.283,6.279,9.132,3.425c6.85-2.854,6.85-2.854,6.85-2.854"/>
	<path style="fill:#E2E2E1;stroke:#231F20;stroke-miterlimit:10;" d="M357.818,335.665c0,0-26.605-62.589,13.094-69.747
		c39.7-7.159,72.891-2.604,78.098,15.619s0.066,43.757-4.6,52.571s-23.211,13.62-36.91,13.62
		C393.802,347.729,368.707,352.775,357.818,335.665z"/>
	<path style="fill:#FFFFFF;stroke:#231F20;stroke-miterlimit:10;" d="M416.24,344.875c0,0-17.123,1.712-24.543-2.283
		c-7.421-3.995-11.986-3.995-15.412-9.703c-3.424-5.707-3.994-17.123-2.282-19.406s4.565-3.424,14.269-3.995
		c9.703-0.57,22.831-0.57,29.681-0.57c6.849,0,24.543-2.283,26.255,5.137C445.92,321.474,449.344,343.163,416.24,344.875z"/>
	<path style="fill:#FFFFFF;stroke:#231F20;stroke-miterlimit:10;" d="M393.979,314.054c0,0-5.708-7.42,1.142-9.703
		s9.133-9.703,17.693-7.991c8.563,1.713,10.846,5.138,10.846,5.138s7.42,0,7.99,5.137s-2.283,6.849-2.283,6.849"/>
	<path style="fill:#FFFFFF;stroke:#231F20;stroke-miterlimit:10;" d="M400.258,311.771c0,0,11.416,9.703,24.543,0"/>
	<path style="fill:#FFFFFF;stroke:#231F20;stroke-miterlimit:10;" d="M389.414,330.605c0,0,27.396-4.565,39.383,0"/>
	<path style="fill:#FFFFFF;stroke:#231F20;stroke-miterlimit:10;" d="M397.975,278.095c0,0-6.849-1.142-14.84-0.57
		c-7.99,0.57-10.844-0.571-11.415,1.712s-2.283,5.137,2.854,5.708c5.137,0.57,8.561,0,11.414,0c2.854,0,13.699,0.57,13.699-2.283
		S397.975,278.095,397.975,278.095z"/>
	<path style="fill:#FFFFFF;stroke:#231F20;stroke-miterlimit:10;" d="M418.375,278.055c0,0,6.052-0.505,10.59,0
		c4.539,0.504,7.565,1.513,8.07,3.53c0.504,2.018,3.025,3.53,0,4.035c-3.026,0.504-4.539,1.009-9.582,0.504
		c-5.045-0.504-8.574-1.009-10.592-1.513s-3.53,0-3.53-2.522C413.331,279.567,415.854,279.063,418.375,278.055z"/>
	<ellipse style="fill:#231F20;" cx="389.414" cy="293.506" rx="2.283" ry="3.425"/>
	<ellipse style="fill:#231F20;" cx="427.084" cy="293.506" rx="2.283" ry="3.425"/>
</g>
</svg>
