<?xml version="1.0" encoding="iso-8859-1"?>
<!-- Generator: Adobe Illustrator 15.1.0, SVG Export Plug-In . SVG Version: 6.00 Build 0)  -->
<!DOCTYPE svg PUBLIC "-//W3C//DTD SVG 1.1//EN" "http://www.w3.org/Graphics/SVG/1.1/DTD/svg11.dtd">
<svg version="1.1" id="Layer_1" xmlns="http://www.w3.org/2000/svg" xmlns:xlink="http://www.w3.org/1999/xlink" x="0px" y="0px"
	 width="122.914px" height="91.73px" viewBox="0 0 122.914 91.73" style="enable-background:new 0 0 122.914 91.73;"
	 xml:space="preserve">
<g>
	<path style="fill:#FFFFFF;" d="M51.415,90.232c-10.188,0-24.625-1.396-32.299-13.453l-0.065-0.104l-0.049-0.114
		c-0.313-0.74-7.517-17.865-8.685-35.404c-4.193-0.335-6.023-3.891-6.451-4.871c-0.826-1.119-3.987-6.272-1.283-16.552
		c1.138-4.323,4.313-6.609,9.184-6.609c1.527,0,3.225,0.228,5.055,0.678c3.857-4.741,9.366-7.785,16.391-9.051
		C45.17,2.594,56.425,1.5,66.664,1.5c22.025,0,37.555,5.183,43.865,14.613c4.59,0.727,9.823,2.481,10.289,6.69
		c0.053,0.466,0.123,0.974,0.199,1.507c0.607,4.311,1.606,11.389-5.771,14.009c0.182,14.504-3.332,29.973-6.945,36.799
		c-5.266,9.945-25.529,14.418-38.236,14.418c-2.305,0-4.986,0.148-7.828,0.305C58.93,90.025,55.182,90.232,51.415,90.232
		L51.415,90.232z"/>
	<path d="M66.663,3c20.916,0,36.919,4.681,42.973,14.497c3.364,0.468,9.286,1.808,9.691,5.472c0.487,4.38,2.628,12.077-5.603,14.25
		c0.396,15.065-3.305,30.688-6.75,37.198c-4.666,8.813-23.211,13.619-36.91,13.619c-5.084,0-11.734,0.695-18.648,0.695
		c-11.718,0-24.185-1.998-31.033-12.759c0,0-7.804-18.364-8.647-36.336c-0.268,0.03-0.523,0.043-0.771,0.043
		c-4.266,0-5.788-4.156-5.788-4.156s-3.995-4.564-1.142-15.409c1.105-4.205,4.271-5.492,7.731-5.492c1.884,0,3.854,0.381,5.63,0.881
		c3.393-4.553,8.538-7.917,16.081-9.278C45.309,4.092,56.559,3,66.663,3 M66.663,0C56.334,0,44.989,1.101,32.944,3.273
		c-7.031,1.269-12.631,4.246-16.68,8.861c-1.605-0.34-3.111-0.512-4.499-0.512c-5.546,0-9.321,2.745-10.634,7.729
		c-2.76,10.484,0.251,16.025,1.415,17.67c0.854,1.938,2.919,4.636,6.362,5.431c1.422,17.367,8.399,33.961,8.711,34.693l0.098,0.229
		l0.133,0.209c8.071,12.682,23.021,14.148,33.564,14.148c3.806,0,7.577-0.209,10.902-0.394c2.819-0.156,5.483-0.303,7.746-0.303
		c12.183,0,33.693-4.131,39.563-15.217c3.57-6.746,7.156-21.568,7.128-36.487c7.43-3.313,6.311-11.245,5.748-15.23
		c-0.073-0.519-0.145-1.01-0.194-1.465c-0.312-2.821-2.491-6.412-10.904-7.897C104.539,5.089,89.121,0,66.663,0L66.663,0z"/>
</g>
<g>
	<path style="fill:#FFFFFF;stroke:#231F20;stroke-miterlimit:10;" d="M106.914,17.45c0,0,11.415,0.57,11.983,5.708
		c0.571,5.137,3.428,14.84-10.844,14.84"/>
	<path style="fill:#FFFFFF;stroke:#231F20;stroke-miterlimit:10;" d="M23.011,18.021c0,0-16.553-8.562-19.406,2.283
		c-2.853,10.845,1.143,15.41,1.143,15.41s2.283,6.279,9.132,3.425c6.85-2.854,6.85-2.854,6.85-2.854"/>
	<path style="fill:#E2E2E1;stroke:#231F20;stroke-miterlimit:10;" d="M19.954,76.162c0,0-26.605-62.589,13.094-69.747
		c39.7-7.159,72.891-2.604,78.098,15.619c5.207,18.223,0.066,43.757-4.6,52.571c-4.666,8.813-23.211,13.618-36.91,13.618
		C55.938,88.226,30.843,93.273,19.954,76.162z"/>
	<path style="fill:#FFFFFF;stroke:#231F20;stroke-miterlimit:10;" d="M78.376,85.372c0,0-17.123,1.712-24.543-2.283
		c-7.422-3.995-11.986-3.995-15.412-9.703c-3.424-5.707-3.994-17.123-2.282-19.404c1.712-2.283,4.565-3.426,14.269-3.995
		c9.703-0.57,22.831-0.57,29.682-0.57c6.849,0,24.543-2.283,26.255,5.137C108.056,61.971,111.479,83.66,78.376,85.372z"/>
	<path style="fill:#FFFFFF;stroke:#231F20;stroke-miterlimit:10;" d="M56.114,54.551c0,0-5.707-7.42,1.143-9.703
		s9.133-9.703,17.693-7.991c8.563,1.714,10.846,5.139,10.846,5.139s7.42,0,7.99,5.137c0.568,5.137-2.283,6.851-2.283,6.851"/>
	<path style="fill:#FFFFFF;stroke:#231F20;stroke-miterlimit:10;" d="M62.394,52.269c0,0,11.416,9.701,24.543,0"/>
	<path style="fill:#FFFFFF;stroke:#231F20;stroke-miterlimit:10;" d="M51.55,71.103c0,0,27.396-4.565,39.383,0"/>
	<path style="fill:#FFFFFF;stroke:#231F20;stroke-miterlimit:10;" d="M60.11,18.592c0,0-6.849-1.142-14.84-0.57
		c-7.99,0.57-10.844-0.57-11.414,1.712c-0.572,2.283-2.283,5.138,2.854,5.708s8.561,0,11.414,0s13.7,0.57,13.7-2.282
		C61.824,20.306,60.11,18.592,60.11,18.592z"/>
	<path style="fill:#FFFFFF;stroke:#231F20;stroke-miterlimit:10;" d="M80.511,18.552c0,0,6.052-0.505,10.59,0
		c4.539,0.504,7.565,1.513,8.07,3.53c0.504,2.018,3.023,3.53,0,4.035c-3.026,0.504-4.539,1.009-9.582,0.504
		c-5.045-0.504-8.574-1.009-10.592-1.514c-2.02-0.504-3.53,0-3.53-2.521C75.467,20.064,77.989,19.56,80.511,18.552z"/>
	<ellipse style="fill:#231F20;" cx="51.55" cy="34.003" rx="2.283" ry="3.425"/>
	<ellipse style="fill:#231F20;" cx="89.22" cy="34.003" rx="2.283" ry="3.425"/>
</g>
</svg>
