<?xml version="1.0" encoding="iso-8859-1"?>
<!-- Generator: Adobe Illustrator 15.1.0, SVG Export Plug-In . SVG Version: 6.00 Build 0)  -->
<!DOCTYPE svg PUBLIC "-//W3C//DTD SVG 1.1//EN" "http://www.w3.org/Graphics/SVG/1.1/DTD/svg11.dtd">
<svg version="1.1" id="Layer_1" xmlns="http://www.w3.org/2000/svg" xmlns:xlink="http://www.w3.org/1999/xlink" x="0px" y="0px"
	 width="46.894px" height="81.615px" viewBox="0 0 46.894 81.615" style="enable-background:new 0 0 46.894 81.615;"
	 xml:space="preserve">
<g>
	<path style="fill:#FFFFFF;" d="M12.575,80.615c-0.688,0-1.378-0.085-2.052-0.254c-4.777-1.192-5.424-5.354-5.449-5.53l-0.029-0.199
		l0.051-0.194c6.078-23.298,10.359-44.25,10.931-53.478c-0.177-0.835-1.039-5.121-1.039-9.48c0-2.545-5.535-3.46-8.842-4.007
		C4.435,7.189,3.198,6.985,2.481,6.626C1.438,6.105,1.116,5.359,1.029,4.825C0.793,3.369,2.075,2.038,2.222,1.891l0.204-0.204
		l0.281-0.064C4.526,1.209,6.835,1,9.57,1c13.034,0,32.58,4.758,32.776,4.806l0.13,0.032l0.117,0.065
		c0.171,0.095,4.181,2.432,3.12,11.438c-1.126,9.579-7.426,10.259-7.693,10.284l-0.239,0.021l-0.223-0.089
		c-0.679-0.271-2.684-0.974-3.809-0.974c-0.444,0-0.865-0.19-1.184-0.537c-1.002-1.089-1.019-4.073-0.918-5.941l-3.142-0.698
		l-1.625,2.843c-0.374,2.978-4.788,38.237-5.717,49.389C20.648,77.839,16.479,80.615,12.575,80.615z"/>
	<path d="M9.57,2c13.063,0,32.538,4.777,32.538,4.777s3.606,2.003,2.612,10.447c-1.044,8.883-6.791,9.404-6.791,9.404
		s-2.611-1.046-4.18-1.046c-1.567,0-1.045-6.268-1.045-6.268l-4.7-1.045l-2.091,3.656c0,0-4.768,37.885-5.746,49.629
		c-0.447,5.373-3.966,8.06-7.593,8.06c-0.604,0-1.212-0.074-1.809-0.224c-4.18-1.044-4.702-4.702-4.702-4.702
		c6.269-24.029,10.448-44.927,10.97-53.807c0,0-1.045-4.702-1.045-9.403c0-4.702-10.971-4.702-13.06-5.747
		c-2.09-1.044,0-3.134,0-3.134C4.783,2.177,7.058,2,9.57,2 M9.57,0c-2.81,0-5.193,0.218-7.085,0.648L1.923,0.776L1.515,1.184
		c-0.3,0.3-1.782,1.894-1.472,3.801c0.102,0.626,0.496,1.789,1.993,2.536c0.811,0.406,1.97,0.611,3.948,0.938
		c2.395,0.396,8.005,1.323,8.005,3.02c0,4.251,0.8,8.431,1.032,9.552c-0.595,9.11-4.952,30.383-10.892,53.153l-0.102,0.39
		l0.057,0.398c0.029,0.203,0.775,5.005,6.197,6.359c0.752,0.188,1.524,0.283,2.294,0.283c4.221,0,9.021-3.096,9.586-9.894
		c0.91-10.926,5.177-45.075,5.688-49.149l1.161-2.03l1.604,0.357c-0.06,2.274,0.169,4.684,1.218,5.824
		c0.51,0.554,1.191,0.859,1.919,0.859c0.815,0,2.5,0.528,3.437,0.902l0.445,0.179l0.479-0.043c0.301-0.027,7.377-0.787,8.597-11.163
		C47.825,7.957,43.568,5.3,43.079,5.028l-0.234-0.13l-0.26-0.064C41.78,4.637,22.724,0,9.57,0L9.57,0z"/>
</g>
<path style="fill:#8B8B8B;stroke:#000000;stroke-miterlimit:10;" d="M20.168,71.555c0.979-11.744,5.746-49.629,5.746-49.629
	l-8.881-1.044c-0.521,8.88-4.701,29.777-10.97,53.807c0,0,0.522,3.658,4.702,4.702C14.943,80.436,19.646,77.824,20.168,71.555z"/>
<path style="fill:#FFFFFF;stroke:#000000;stroke-miterlimit:10;" d="M17.033,20.882c0,0,5.224,3.133,8.881,1.044l2.091-3.656
	l4.7,1.045c0,0-0.522,6.268,1.045,6.268c1.568,0,4.18,1.046,4.18,1.046s5.747-0.521,6.791-9.404
	c0.994-8.444-2.612-10.447-2.612-10.447S14.422-0.014,2.929,2.598c0,0-2.09,2.09,0,3.134c2.089,1.045,13.06,1.045,13.06,5.747
	C15.988,16.18,17.033,20.882,17.033,20.882z"/>
<path style="fill:#FFFFFF;stroke:#000000;stroke-miterlimit:10;" d="M42.108,6.777c-3.134,0-4.701,7.313-5.224,10.97
	c-0.522,3.658-1.046,7.836,1.045,8.882"/>
</svg>
