<?xml version="1.0" encoding="utf-8"?>
<!-- Generator: Adobe Illustrator 15.1.0, SVG Export Plug-In . SVG Version: 6.00 Build 0)  -->
<!DOCTYPE svg PUBLIC "-//W3C//DTD SVG 1.1//EN" "http://www.w3.org/Graphics/SVG/1.1/DTD/svg11.dtd">
<svg version="1.1" id="Layer_1" xmlns="http://www.w3.org/2000/svg" xmlns:xlink="http://www.w3.org/1999/xlink" x="0px" y="0px"
	 width="600px" height="600px" viewBox="0 0 600 600" enable-background="new 0 0 600 600" xml:space="preserve">
<g id="Layer_1_1_">
	<rect fill="#FFFFFF" width="600" height="600"/>
	<g>
		<g>
			<path fill="#010101" d="M18.714,0c0.996,0,1.991,0,2.987,0c-1.278,19.727,0.693,36.364-3.982,50.763
				C18.564,31.384,17.024,15.673,18.714,0z"/>
			<path fill="#010101" d="M108.296,0c0.996,0,1.991,0,2.987,0c-1.741,46.544,8.244,110.09-5.973,154.28
				C110.827,106.421,110.302,50.508,108.296,0z"/>
			<path fill="#010101" d="M312.343,0c0.996,0,1.991,0,2.986,0c0.498,72.85-0.009,139.311-3.981,200.065
				c-2.006-32.232-1.123-75.016,0.995-106.501C314.626,59.641,310.872,27.386,312.343,0z"/>
			<path fill="#010101" d="M322.297,0c1.659,0,3.318,0,4.979,0c-4.027,20.393,1.865,37.788,0.994,59.721
				c30.953,4.163,79.799-1.151,116.455-0.995c2.779-2.862-0.722-12.004,1.991-14.93c3.731,2.861,0.457,7.429,0.995,13.935
				c48.525,2.844,90.729-4.018,137.359,1.99C588.911,39.679,583.72,21.39,586.064,0c1.327,0,2.654,0,3.98,0
				c-1.319,62.996-1.704,117.627-5.972,184.14c-8.884,5.918-18.464,2.949-27.869,2.986c-52.005,0.208-103.031,1.618-155.274-0.996
				c-13.217-0.661-26.378-1.019-39.814-0.995c-5.614,0.01-17.182,4.316-20.901-1.991c77.022-3.214,160.065,5.55,241.87,0
				c1.961-42.836,2.171-67.563,2.986-110.483c-86.884-1.704-168.337-0.146-256.801,0.995c3.031,38.519-1.9,75.826-0.996,111.479
				c-8.916-12.094-2.451-27.187-1.99-40.81C326.837,98.338,326.402,48.405,322.297,0z M568.149,60.716
				c-37.535-1.828-74.181-0.426-108.494,0.996c-15.521,0.643-32.02,0.758-46.782,0.996c-22.087,0.356-43.21,2.889-65.691,1.991
				c-5.42-0.217-15.476-4.953-18.912,2.986c35.625,4.266,78.521,0.996,121.434,0.996c39.449,0,82.896,0.615,121.433,0
				c3.691-0.059,13.333,3.138,13.937-3.981C582.753,59.722,572.563,60.932,568.149,60.716z"/>
			<path fill="#010101" d="M404.911,0c2.654,0,5.309,0,7.962,0c-15.754,10.144-26.736,30.305-40.809,38.819
				C381.922,24.787,394.414,13.392,404.911,0z"/>
			<path fill="#010101" d="M442.735,0c1.326,0,2.652,0,3.979,0c2.06,9.428,1.688,21.307,0,31.852
				C444.204,22.419,447.456,7.223,442.735,0z"/>
			<path fill="#010101" d="M454.679,0c0.663,0,1.327,0,1.99,0c-2.081,13.045,4.284,28.934-1.99,36.828
				C454.679,24.552,454.679,12.276,454.679,0z"/>
			<path fill="#010101" d="M389.98,3.981c-2.312,6.77-10.166,12.893-14.931,13.936C377.762,11.548,383.596,3.401,389.98,3.981z"/>
			<path fill="#010101" d="M556.205,8.958c1.434,0.558,2.428,1.553,2.985,2.987c-8.245,7.725-15.667,21.432-26.874,22.893
				C539.894,25.826,549.694,19.038,556.205,8.958z"/>
			<path fill="#010101" d="M534.308,16.921c-1.403,4.237-3.155,8.125-7.963,8.958C526.35,20.606,529.274,13.963,534.308,16.921z"/>
			<path fill="#010101" d="M17.719,72.661c1.83,4.144,2.96,10.685,2.986,14.93C14.698,88.014,16.42,76.329,17.719,72.661z"/>
			<path fill="#010101" d="M455.674,75.646c0.898,13.283,3.549,41.233-0.995,51.759C455.321,110.462,453.381,90.938,455.674,75.646z
				"/>
			<path fill="#010101" d="M447.711,81.619c4.656,12.682,1.354,28.411,1.991,43.795C445.1,114.756,449.008,95.585,447.711,81.619z"
				/>
			<path fill="#010101" d="M418.847,99.536c0.887,0.44,1.779,0.874,1.99,1.99c-16.415,19.098-35.67,40.628-54.744,53.749
				C383.882,136.899,401.265,118.117,418.847,99.536z"/>
			<path fill="#010101" d="M405.906,107.498c-7.235,5.77-13.754,17.346-21.897,18.912
				C389.895,119.66,396.028,103.753,405.906,107.498z"/>
			<path fill="#010101" d="M541.274,105.508c1.606-0.281,1.714,0.94,2.985,0.995c-6.327,13.287-21.266,23.949-31.852,34.837
				c-9.584,9.856-16.783,20.291-26.875,28.866c-1.064-7.378,6.672-12.262,10.949-16.922
				C510.453,138.065,527.76,121.555,541.274,105.508z"/>
			<path fill="#010101" d="M524.354,107.498c0.027,6.778-8.078,11.065-12.938,15.926c-5.108,5.108-9.094,12.617-15.927,14.93
				C504.219,127.178,512.883,115.935,524.354,107.498z"/>
			<path fill="#010101" d="M454.679,130.392c3.06-1.524,3.06,6.499,0,4.976C454.679,133.709,454.679,132.051,454.679,130.392z"/>
			<path fill="#010101" d="M415.86,132.382c-2.122,6.172-7.07,9.521-11.945,12.94C404.223,137.84,410.555,131.605,415.86,132.382z"
				/>
			<path fill="#010101" d="M448.707,136.364c3.059-1.523,3.059,6.499,0,4.976C448.707,139.681,448.707,138.021,448.707,136.364z"/>
			<path fill="#010101" d="M539.283,143.331c-0.198,4.195-4.354,8.348-6.967,6.968C532.516,146.104,536.669,141.95,539.283,143.331z
				"/>
			<path fill="#010101" d="M449.702,144.326c0,2.655,0,5.309,0,7.964c-0.664,0-1.327,0-1.991,0
				C448.531,149.791,445.776,143.718,449.702,144.326z"/>
			<path fill="#010101" d="M457.665,145.322c0.483,6.123-1.771,9.51-0.996,15.925C453.517,160.042,452.869,145.112,457.665,145.322z
				"/>
			<path fill="#010101" d="M447.711,154.28c2.082,4.377,2.04,18.874,0,23.889C443.426,173.336,447.387,160.987,447.711,154.28z"/>
			<path fill="#010101" d="M2.789,172.197c0-0.664,0-1.327,0-1.991c15.658-4.276,36.167-4.397,54.744-5.973
				c9.891-0.838,20.8-5.812,27.871,0C56.656,165.68,29.611,168.827,2.789,172.197z"/>
			<path fill="#010101" d="M454.679,163.238c1.608-0.28,1.713,0.941,2.986,0.995c-2.173,4.436,1.761,9.501-0.996,13.936
				C452.688,176.508,455.54,168.018,454.679,163.238z"/>
			<path fill="#010101" d="M2.789,181.154c0-0.996,0-1.991,0-2.985c20.988-3.897,45.115-9.96,67.683-8.958
				C47.542,172.822,24.599,176.422,2.789,181.154z"/>
			<path fill="#010101" d="M286.465,246.847c-58,4.259-120.944,4.272-178.168,7.964c6.615-7.177,16.486-3.614,24.883-3.982
				C180.802,248.734,234.187,245.297,286.465,246.847z"/>
			<path fill="#010101" d="M415.86,249.833c-2.393,5.439-12.983,2.987-19.907,2.987c-26.984,0-53.479-2.053-77.637-1.991
				c-7.181,0.018-16.254,4.055-20.903-2.986C338.705,247.389,380.49,249.142,415.86,249.833z"/>
			<path fill="#010101" d="M600,249.833c0,0.664,0,1.328,0,1.991c-11.729-1.566-21.155,2.234-25.879-0.996
				C580.074,246.806,592.202,249.544,600,249.833z"/>
			<path fill="#010101" d="M2.789,276.709c0-0.996,0-1.991,0-2.986c22.437-4.77,43.83-10.585,68.679-12.94
				c4.35-1.479,13.807-6.703,17.917-1.991C61.345,265.589,29.882,268.964,2.789,276.709z"/>
			<path fill="#010101" d="M600,303.583c0,1.326,0,2.654,0,3.98c-125.898-4.013-260.67,0-391.173,0
				c-17.9,0-36.422-2.669-53.749-1.99c-12.214,0.479-25.915,5.774-38.818,8.959c-38.098,9.397-78.732,18.955-113.47,29.86
				c0-0.995,0-1.991,0-2.985c37.965-9.074,79.554-24.357,122.428-33.844c10.253-2.269,22.964-4.626,33.842-4.976
				c51.957-1.678,109.104,3.549,167.219,0.994C416.321,299.623,512.92,302.188,600,303.583z"/>
			<path fill="#010101" d="M2.789,529.528c0-0.996,0-1.992,0-2.986c19.445-8.092,39.363-15.713,57.73-24.883
				c0.834-25.104-1.589-57.646,0.995-72.662c-6.132-14.586-2.302-43.945-5.971-57.73c-17.007,2.269-34.416,12.675-52.754,16.923
				c0-0.664,0-1.328,0-1.99c37.903-14.496,78.258-28.51,112.475-43.797c0.146,2.176,2.508,2.139,4.978,1.991
				c2.121,22.189-1.601,38.4-2.987,60.716c-1.017,16.371,0.702,35.311,0,50.764c-0.418,9.211,1.185,25.373-9.953,25.879
				c8.946-9.828,6.634-24.568,6.967-40.809c-16.424,7.795-31.498,16.942-50.763,21.896c0.334,11.941-0.863,25.416,0.996,35.834
				c13.458-1.268,24.078-15.563,35.833-11.944C68.562,501.737,37.121,517.079,2.789,529.528z M59.523,368.28
				c4.321,13.264,0.899,34.271,1.991,50.764c0.374,2.281,3.982,1.328,4.978,2.986c-6.266,8.764-3.007,24.92-2.986,37.823
				c19.744-4.811,32.047-17.059,50.763-22.895c-0.648-26.998,5.554-60.205,2.986-89.582
				C96.893,353.229,78.033,360.579,59.523,368.28z"/>
			<path fill="#010101" d="M322.297,347.377c2.84,12.469,4.012,43.209-0.996,59.723c-1.876-16.026,2.663-37.805,0-54.746
				c-46.165-2.465-97.743-3.942-138.353-3.979c-1.225-0.437-2.044-1.273-1.991-2.986C228.016,344.963,272.96,350.52,322.297,347.377
				z"/>
			<path fill="#010101" d="M170.008,347.377c1.607-0.279,1.713,0.941,2.986,0.996c-1.791,15.877,0.331,28.338,1.99,41.805
				c-2.403,6.771,1.26,13.845-4.976,15.926C174.44,387.073,166.838,367.28,170.008,347.377z"/>
			<path fill="#010101" d="M455.674,359.323c-24.976,0.594-52.43-2.467-78.633-1.99c0-0.996,0-1.992,0-2.986
				C400.788,355.723,434.609,354.274,455.674,359.323z"/>
			<path fill="#010101" d="M573.126,364.299c-3.738,41.517-14.489,83.924-13.936,123.424c-9.067-23.246,6.027-66.295,7.964-96.551
				c-2.705-7.791,1.158-14.647,0.995-22.893c-21.521-9.871-61.391,0.076-88.588-5.972c-5.181,37.48-9.29,75.556-9.952,113.47
				c8.354,5.78,21.34,2.188,31.852,2.985c17.127,1.3,34.175,4.431,46.78,6.968c-0.623,6.139-8.54,1.153-11.943,0.995
				c-15.354,0.093-29.6-0.926-40.811-4.977c-5.091,2.59-11.071-1.832-15.926,0.994c-30.102-9.334-62.054-2.305-98.538-4.976
				c-4.451-0.325-13.268,0.621-13.937-5.973c26.229,5.961,67.347-0.422,97.545,4.978c-3.578-26.587,8.2-78.539,3.98-115.462
				c-2.389-2.588-10.46,0.507-10.948-3.979C496.376,360.168,529.396,358.586,573.126,364.299z"/>
			<path fill="#010101" d="M374.055,357.333c0.887,0.439,1.781,0.873,1.991,1.99c-2.896,30.998-3.755,71.17-5.972,110.483
				C365.057,435.329,372.139,393.965,374.055,357.333z"/>
			<path fill="#010101" d="M252.623,373.256c1.86,9.055-10.648,11.326-15.926,6.969
				C237.185,370.209,246.801,364.811,252.623,373.256z M240.678,378.235c2.783,2.282,7.918,0.547,6.967-3.982
				C244.084,372.356,241.322,374.532,240.678,378.235z"/>
			<path fill="#010101" d="M99.338,379.231c0.795,1.856,1.663,3.645,1.99,5.971c-2.727,2.813-6.341,3.5-9.953,0.996
				C91.083,380.926,94.605,379.473,99.338,379.231z"/>
			<path fill="#010101" d="M113.272,397.147c-2.501,8.112-11.675,9.557-19.907,11.942c-8.192,2.842-15.703,11.385-23.888,10.949
				c9.784-11.783,29.917-13.217,40.81-23.889C111.895,395.87,112.001,397.092,113.272,397.147z"/>
			<path fill="#010101" d="M281.487,412.075c-39.007-0.867-82.115,2.787-113.47-0.994c0-0.996,0-1.99,0-2.986
				c0.886-0.612,1.781-1.2,1.991,0c29.894,4.238,60.594,0.996,93.563,0.996C269.19,409.09,278.15,406.672,281.487,412.075z"/>
			<path fill="#010101" d="M319.313,410.084c-7.008,5.465-21.333,1.424-30.857,1.99
				C297.384,408.348,310.811,409.532,319.313,410.084z"/>
			<path fill="#010101" d="M462.642,411.081c2.046,1.604,2.31,4.99,1.991,8.959c-4.409,3.545-16.288,3.195-13.936-5.973
				C455.079,413.471,457.34,410.756,462.642,411.081z"/>
			<path fill="#010101" d="M498.474,416.057c0.102,3.086-1.217,4.757-1.989,6.968c-3.113-0.203-7.308,0.672-8.958-0.994
				C485.294,412.803,493.716,413.262,498.474,416.057z"/>
			<path fill="#010101" d="M94.361,431.983c-1.358-1.959-0.95-5.687-1.991-7.964C99.375,412.557,106.953,432.438,94.361,431.983z"/>
			<path fill="#010101" d="M313.339,427.006c-2.586,6.646-9.706,1.293-14.93,0.996c-13.216-0.754-30.403,4.664-40.811-0.996
				C273.249,428.579,299.072,423.327,313.339,427.006z"/>
			<path fill="#010101" d="M254.613,429.993c-30.266,0.024-48.846,0.203-77.638,0.994c0.019,14.563-6.021,28.604-0.996,39.813
				c31.633,1.597,60.74-1.313,92.567-2.985c8.825-0.464,21.071-4.759,25.88,2.985c-34.485-4.146-78.817,7.025-118.447,3.982
				c-4.087-0.314-8.226-1.687-11.944-3.982c0.114-5.094,3.295-1.354,6.968-1.99c-2.615-12.684,8.614-31.602-2.986-39.813
				c16.725-0.783,36.74-1.898,54.745-1.99C234.192,426.948,246.848,426.879,254.613,429.993z"/>
			<path fill="#010101" d="M314.334,429.993c0.995,0,1.991,0,2.986,0c1.279,10.682-2.793,27.358-0.996,38.817
				c-4.408,1.482-14.776,1.468-17.916,0.996c-1.12-8.801,6.947-2.293,12.938-3.981C315.859,457.708,314.355,441.217,314.334,429.993
				z"/>
			<path fill="#010101" d="M246.649,435.965c0.775,2.211,2.092,3.881,1.991,6.967c-2.381,1.601-4.687,3.275-8.958,2.986
				C236.869,441.028,239.788,434.381,246.649,435.965z M240.678,440.942c0.995,0,1.991,0,2.986,0c0-0.664,0-1.328,0-1.99
				c-0.996,0-1.991,0-2.986,0C240.678,439.614,240.678,440.278,240.678,440.942z"/>
			<path fill="#010101" d="M51.562,440.942c4.007,6.463-1.833,15.618-8.959,10.946c0.162-1.155-0.22-1.77-0.996-1.989
				C41.799,443.788,46.041,441.725,51.562,440.942z M46.585,448.905c0.995,0,1.991,0,2.986,0c0-0.664,0-1.328,0-1.992
				c-0.996,0-1.991,0-2.986,0C46.585,447.577,46.585,448.241,46.585,448.905z"/>
			<path fill="#010101" d="M100.334,468.811c0.258,6.076-11.237,5.168-8.959-1.989C93.833,464.862,100.07,465.495,100.334,468.811z"
				/>
			<path fill="#010101" d="M2.789,579.295c37.88-14.873,70.54-34.969,107.499-50.764c4.871,0.334-1.513,1.02-0.996,2.985
				c8.687-7.237,21.246-10.604,25.878-21.897c-4.024-3.164-2.45-5.873-4.976-9.953c-45.923,14.463-86.122,34.648-127.405,53.75
				c0-1.66,0-3.318,0-4.977c0.332,0,0.664,0,0.996,0c29.92-14.539,61.94-26.98,92.567-40.812c6.302-2.084,13.997-3.74,20.902-5.971
				c6.218-2.013,12.264-7.728,16.921-4.979c1.366-54.932,1.794-115.348,0-170.205c-44.55,12.185-86.996,26.478-131.386,38.82
				c0-0.996,0-1.992,0-2.986c46.606-11.823,90.286-28.047,138.354-40.811c23.249,1.217,48.369,4.543,73.656,3.979
				c111.403-2.473,248.729-4.526,385.2-3.979c0,0.996,0,1.992,0,2.986c-154.385,1.123-320.812,1.03-454.876,1.989
				c2.895,51.322-0.55,110.826,0.996,161.248c0.169,5.535-2.54,14.261,3.982,15.925c-1.275-44.175,1.68-103.521,0.995-154.279
				c-0.072-5.34-2.919-13.726,2.985-16.92c2.073,10.268-0.231,21.146,0,32.848c0.827,41.777,1.412,88.027,0,126.41
				c10.227,0.063,22.895-2.459,28.866,3.979c0.212-3.036,4.805-6.803,3.98,0c4.074,1.087-0.133-6.106,4.978-3.979
				c32.337-1.277,71.462,2.031,100.53-0.996c26.063,6.5,56.896,3.627,85.601,2.984c72.472-1.623,149.307,0.715,221.963,1.991
				c0,1.326,0,2.654,0,3.98c-41.558-0.646-84.272-1.201-124.419-1.99c-35.42-0.696-78.332-5.399-118.446-0.996
				c-4.229,0.465-7.503,2.636-12.94,2.986c-29.864,1.932-62.344-4.064-95.553-3.98c-27.312,0.068-46.246-0.34-76.641,2.986
				c-7.593,0.83-17.583,2.869-17.917,8.957c-0.792,14.459,34.096,10.307,49.769,9.953c133.889-3.006,271.533,1.506,396.149,12.94
				c0,1.326,0,2.654,0,3.98c-163.996-11.668-286.385-12.574-452.885-13.936c-49.92,21.082-99.848,42.155-144.326,68.68
				C2.789,585.932,2.789,582.614,2.789,579.295z M136.166,326.475c4.546,57.375,0.517,130.972,1.991,185.138
				c5.376-2.234,4.692-9.445,4.976-13.937c1.502-23.68,0-55.117,0-85.602c0-23.281,0.946-46.172,0-67.683
				c-0.24-5.459,1.1-17.713-4.976-17.918C137.493,326.475,136.83,326.475,136.166,326.475z M153.088,421.034
				c-0.324-2.396,0.849-11.377-0.996-8.959C152.415,414.473,151.243,423.452,153.088,421.034z M159.06,495.686
				C167.8,498.618,164.702,489.524,159.06,495.686L159.06,495.686z M169.013,496.68c2.904,1.465,2.904-4.448,0-2.985
				C169.013,494.69,169.013,495.686,169.013,496.68z M174.984,496.68c2.903,1.465,2.903-4.448,0-2.985
				C174.984,494.69,174.984,495.686,174.984,496.68z M154.082,497.676c0.664,0,1.327,0,1.991,0c0.055-1.272,1.277-1.379,0.996-2.985
				c-0.996,0-1.991,0-2.986,0C154.082,495.686,154.082,496.68,154.082,497.676z M151.097,516.588c0-3.318,0-6.637,0-9.955
				c-0.995,0-1.991,0-2.986,0C147.251,509.409,144.961,517.979,151.097,516.588z M441.739,521.565c-1.84,0.161-8.154-2.353-5.974,0
				C438.316,520.485,440.512,524.588,441.739,521.565z M474.585,522.561c-6.646,0.652-15.91-1.313-20.9,0.994
				C460.33,522.901,469.595,524.87,474.585,522.561z M484.54,523.555c-1.75,0.572-5.849-1.203-5.973,0.994
				C480.317,523.979,484.416,525.754,484.54,523.555z"/>
			<path fill="#010101" d="M9.757,0c0.994,0,1.99,0,2.985,0c-0.465,14.739,2.604,38.681,1.991,59.721
				c3.98,0.332,4.693,3.933,3.98,8.958c-9.141,2.223-3.024,16.308-6.967,21.898c-4.95-7.035-0.338-16.536,0-25.879
				C12.402,46.619,8.665,22.293,9.757,0z"/>
			<path fill="#010101" d="M2.789,215.991c0-2.985,0-5.971,0-8.958c30.673-6.154,61.941-11.715,93.563-16.92
				c1.553-9.728,1.471-21.092,2.986-30.857c-11.799-20.052-29.407-34.296-45.787-49.767c-3.262,0.056-3.804,2.832-7.962,1.99
				c-4.651-0.326-2.233-7.72-6.968-7.963c-11.886,1.229-23.137,1.906-35.832,2.986c0-0.995,0-1.99,0-2.986
				c13.776-1.155,29.852-0.009,40.81-3.981c-10.93-2.975-28.303-3.799-40.81-1.991c0-0.995,0-1.99,0-2.986
				c16.451-2.464,37.053-0.597,51.758,1.991c9.943,8.474,20.447,19.885,30.856,34.838c6.976,10.02,20.206,20.223,22.893,29.859
				c3.092,11.09-4.057,23.438-2.986,37.824c-3.207-0.443-5.392-1.907-8.958-1.991C65.965,204.186,35.202,210.914,2.789,215.991z
				 M44.594,104.512c-0.075,1.734,0.223,3.095,0.996,3.981c3.246,0.259,4.791-1.182,4.978-3.981
				C49.294,103.151,45.867,103.151,44.594,104.512z M101.328,189.117c1.382-6.729,5.307-15.728,2.986-22.893
				c-0.219-0.775-0.833-1.158-1.991-0.996C102.179,172.2,96.437,183.69,101.328,189.117z"/>
			<path fill="#010101" d="M600,195.089c0,1.659,0,3.318,0,4.976c-37.196,2.502-76.744-0.226-110.484,3.982
				c4.819,6.657,11.521,11.865,12.94,21.898c0.881,6.231-2.042,13.736,0,19.907c8.945,1.151,18.897-2.351,21.896,2.987
				c-5.81-0.978-14.497,0.596-22.893,0c-0.414,8.819-2.77,14.17-0.996,22.893c11.915-0.612,21.996,1.237,29.86,1.991
				c0.115-6.853-0.534-14.47,0.996-19.907c2.436-8.408,33.481-22.382,40.809-7.964c-5.681,5.268-14.898,6.999-23.889,8.959
				c-1.244,5.937-3.007,9.05-2.985,17.916c18.842,2.269,36.121,2.17,54.744,2.986c0,0.664,0,1.328,0,1.99c-4.313,0-8.627,0-12.938,0
				c1.218,3.816,3.964,10.796,0,13.936c-70.297-4.747-135.201,5.708-203.053-3.982c-6.55-4.94,6.551-6.211,2.986-10.948
				c-44.518,3.868-87.396,2.707-137.359,4.976c-22.84,1.037-45.611,2.009-68.679,0.996c-56.397-2.48-107.57,0.354-152.289,12.94
				c6.951,2.668,16.705,2.538,25.878,2.985c-1.029,8.329,10.445,4.155,8.958,12.94c-19.47,7.404-41.408,12.34-60.716,19.906
				c0-2.986,0-5.974,0-8.957c16.2-6.693,37.937-7.851,50.763-17.918c-5.42-3.203-15.973-1.277-21.898-3.979
				c-1.448,2.202-0.67,6.627-2.985,7.961c-7.057,2.234-16.38,2.201-25.88,1.99c0-2.322,0-4.645,0-6.967
				c5.669-1.297,12.21-1.725,14.93-5.971c-4.734-3.369-8.804,2.446-14.93,0.994c0-1.326,0-2.653,0-3.98
				c33.272-5.185,72.024-14.494,102.521-15.926c2.909-7.437-2.605-14.49-4.976-19.907c-0.319-16.175-3.712-39.773,1.99-52.753
				c3.418,13.034-0.384,35.208,0.996,52.753c2.77,5.858,7.5,9.754,6.968,18.912c111.77-0.778,221.231-2.005,330.457-6.967
				c3.597-5.156,1.599-14.269-0.995-18.912c-5.061-4.562-16.928-2.318-17.916-10.949c9.257-4.421,27.806-6.087,32.846,2.985
				c2.208,8.1,0.429,18.358,0,26.875c7.24,2.159,16.813,2.486,23.89,0c1.857-9.937,7.514-30.261,0.995-38.819
				c-2.872,3.764,0.037,13.31-3.981,15.925c-4.042,2.255-10.704-0.242-12.938-2.986c-2.518-8.001,0.426-18.688,0.995-26.874
				c2.721-8.229,13.771-8.126,18.911-13.936c-49.482-0.595-105.199,1.614-155.273-0.996c-2.547-0.132-8.957,1.37-9.954-2.986
				c80.557,1.907,164.916-1.931,241.87-1.99C573.078,198.064,586.291,197.859,600,195.089z M497.479,219.973
				c-4.14-10.24-14.225-12.784-24.883-6.967c-4.131,5.921-16.646,31.383,0.995,31.85c2.205-6.421-0.044-17.296,6.967-18.912
				c10.296,10.06,2.98,31.884,1.991,44.792c3.182,1.674,12.051,1.803,13.936-0.996C494.903,254.518,497.573,236.828,497.479,219.973
				z M448.707,241.87c-4.843-0.436-12.492-2.354-16.921,0c1.718,5.25,9.825,4.109,11.944,8.959
				c2.253,7.738,0.663,14.979,0.993,20.902C456.576,271.676,453.827,247.15,448.707,241.87z M534.308,254.811
				c-1.577,7.417-2.391,13.31,0.995,18.912c9.495-1.455,6.988-14.912,9.953-22.894c5.956-3.334,17.126-1.454,20.902-6.968
				C552.873,240.867,543.238,250.133,534.308,254.811z M501.461,274.718c-4.177,3.453-9.761,5.501-17.916,4.976
				c-3.74-0.242-4.812-3.151-7.964-3.98c-25.161,2.126-56.001-8.014-71.666,7.961c45.15-2.287,106.885,1.169,149.304,2.986
				c9.116,0.392,26.871,4.738,27.869-7.962C557.024,274.892,529.749,276.95,501.461,274.718z M387.99,285.666
				c1.176,1.146,3.518,1.128,5.972,0.996c-3.801-7.012,7.441-5.196,8.958-9.952C396.988,274.778,390.702,281.064,387.99,285.666z
				 M15.729,307.563c3.527-0.784,7.188-1.438,8.958-3.979C22.141,305.163,15.349,301.17,15.729,307.563z M53.552,310.549
				c0.996,0,1.991,0,2.986,0c0-0.662,0-1.326,0-1.99c-0.995,0-1.991,0-2.986,0C53.552,309.223,53.552,309.887,53.552,310.549z"/>
		</g>
	</g>
</g>
</svg>
