<?xml version="1.0" encoding="utf-8"?>
<!-- Generator: Adobe Illustrator 15.1.0, SVG Export Plug-In . SVG Version: 6.00 Build 0)  -->
<!DOCTYPE svg PUBLIC "-//W3C//DTD SVG 1.1//EN" "http://www.w3.org/Graphics/SVG/1.1/DTD/svg11.dtd">
<svg version="1.1" id="Layer_1" xmlns="http://www.w3.org/2000/svg" xmlns:xlink="http://www.w3.org/1999/xlink" x="0px" y="0px"
	 width="600px" height="600px" viewBox="0 0 600 600" enable-background="new 0 0 600 600" xml:space="preserve">
<rect fill="#FFFFFF" width="600" height="600"/>
<g>
	<g>
		<path d="M177.059,0.684c1.331,0,2.662,0,3.993,0c-8.798,60.276-5.444,126.844-8.981,191.6c6.134,2.846,11.742,6.219,20.957,5.987
			c-6.792,3.112-14.96-0.99-19.958-2.993c-5.758,22.547-0.87,50.229,0,74.843c0.582,3.909-4.105,2.547-4.99,4.99
			c0.297,25.577,0.007,50.569-2.995,72.847c-5.159-21.771,0.457-48.311,0-71.849c-5.176-8.795-25.837-2.104-34.926-6.986
			c-3.043,53.938-7.12,111.832-3.992,168.648c3.225,3.096,9.471,3.169,13.971,4.99c1.141,1.883-1.197,8.728,0.998,11.974
			c13.711,4.883,33.201-2.391,48.898,0.998c-9.848,4.124-26.9,1.042-39.917,1.995c-3.905,3.746-3.247,12.055-4.989,17.962
			c-24.782-9.798-61.511,6.04-79.833-3.99c2.471-4,6.875,3.637,8.981,0c3.398-6.729-5.443-13.071-11.976-9.979
			c0.343-5.397,3.012-11.229,0.998-15.967c-2.352-4.3-9.468-3.838-13.969-5.987c-3.239,5.327-2.6,18.479,0,23.949
			c3.457,3.527,12.353,1.617,13.969,6.986c-5.107-1.037-18.056-2.454-20.957-8.981c-14.744-0.771-26.466,1.477-40.914,0.997
			c0-0.664,0-1.329,0-1.996c14.783,0.146,29.373,0.104,41.912-1.995c0.494-8.258,1.96-17.071,0-24.947
			c3.018-1.151,5.76,5.658,5.989,0.998c2.144-55.733,2.402-113.354,7.982-165.654c-8.653-3.892-21.802,1.377-30.935-2.994
			c7.176-19.101,3.807-48.749,8.981-69.854c38.223,2.027,76.002,4.498,110.768,9.979c7.833,9.134,13.116,20.814,19.958,30.936
			C174.089,160.952,168.308,76.256,177.059,0.684z M142.132,209.248c-32.069-3.756-64.827-11.358-100.79-7.983
			c2.294,9.682,8.255,15.695,13.972,21.955c3.744,5.904,14.782,14.031,10.977,20.957c-7.75-15.868-21.505-25.729-29.938-40.915
			c-1.606,15.691-0.03,34.563-2.993,48.898c9.377,2.265,23.377-0.094,31.933,2.993c-1.614,1.729-2.746,6.94-5.988,3.991
			c0.111-1.885,3.3-0.691,2.994-2.993c-8.979-1.496-21.312-3.278-30.936-0.998c-0.041,3.285-1.685,4.968-0.998,8.98
			c3.134-0.473,4.078,1.245,4.99,2.994c2.481-5.17,28.089,3.53,34.926-4.989c28.704,5.891,65.907,3.282,94.802,8.981
			c2.601-3.055,6.273-5.037,5.988-10.978c-36.727-1.768-60.979-4.16-97.796-7.982c25.775-0.397,49.099,1.522,70.853,3.991
			c8.678,0.985,20.974,6.06,23.95-3.991C162.147,235.137,153.023,221.309,142.132,209.248z M63.296,269.123
			c-9.555,49.322-8.701,109.051-8.981,167.65c22.429,0.189,43.621,1.618,66.86,0.997c5.135-48.594,0.022-103.646,0.998-154.677
			c-13.203-4.971-34.848-12.174-50.894-4.989c-6.468,7.167-6.232,21.042-5.987,34.926c14.862,6.095,41.116,0.795,55.883,6.984
			c-14.487-1.852-41.212-0.003-56.881-3.99c-3.089-13.303-3.662-34.52,4.989-41.914c21.702-4.489,42.781,3.42,55.884,4.989
			c0-3.326,0-6.653,0-9.979C104.909,272.865,83.432,265.402,63.296,269.123z M68.287,443.758c0.695,5.021-1.693,6.955-0.998,11.976
			c17.693,7.893,43.542-3.279,61.871,2.993c-16.451,1.181-32.637,2.624-50.894,1.995c-0.279,4.271,3.047,4.937,1.995,9.98
			c21.678,1.231,42.752-2.945,62.869,0c0-3.328,0-6.653,0-9.98c-1.735-1.924-6.93-0.388-6.985-3.99
			c0.759-5.417-1.581-7.732-0.998-12.974c-19.938-4.679-51.905-2.646-72.849-2.993C63.579,442.479,68.266,440.784,68.287,443.758z"
			/>
		<path d="M559.26,0.684c0.998,0,1.996,0,2.994,0c4.492,51.18,5.307,110.453,1.996,163.658c-10.261-1.881-24.781-5.621-33.929,0
			c-2.813,14.485-0.925,33.668-3.992,47.899c-17.68,3.942-30.42,12.823-47.9,16.965c-3.452,15.988,3.059,36.143-1.997,50.894
			c-10.69,4.609-28.785,1.815-41.91,3.992c-0.107,8.539,0.737,18.034-1.994,23.949c-15.726-1.262-29.898-0.66-43.909,1.996
			c4.739-8.391-0.324-19.811-0.998-28.939c-2.989-4.329-13.537-1.1-13.972-7.983c6.182,2.134,13.656,2.976,17.961,6.985
			c-0.459,9.774,4.024,14.605,2.996,24.947c10.579-2.956,24.134,2.4,34.928-0.997c2.593-6.056-0.438-17.733,1.995-23.95
			c10.806-0.571,26.947,1.642,38.919-1.995c11.957-10.612-2.151-36.118,4.987-50.895c17.77-3.189,27.927-13.989,46.902-15.966
			c5.739-13.641-1.641-35.353,4.989-48.898c8.758-4.055,23.551-5.417,32.932-0.998C567.241,110.571,559.032,54.105,559.26,0.684z"/>
		<path d="M1.426,9.665c7.6,4.042,20.621,2.665,25.946,8.981c-4.996,30.931,0.348,72.199-9.98,97.795
			c-3.249,0.875-11.932-0.431-15.966-1.996c0-0.665,0-1.331,0-1.996c4.399,0.258,7.719,1.595,12.973,0.998
			c4.504-11.129,4.397-26.872,5.988-40.914c-5.495,0.794-13.729,2.012-18.96,0c0-1.664,0-3.326,0-4.99
			c3.974,2.78,12.691,2.352,17.962,0.999c1.835-15.705,6.147-34.72,0.999-48.898c-5.698-1.954-12.17-3.131-18.96-3.992
			C1.426,13.658,1.426,11.661,1.426,9.665z"/>
		<path d="M77.268,29.623c24.101,0.527,51.181-2.16,60.872,9.979c-7.472-0.511-12.62-3.347-18.96-4.99
			c-7.554,26.375-5.604,62.255-11.975,89.813c5.381,3.601,14.905,3.056,21.954,4.99c6.109-7.528,2.589-24.687,4.989-35.925
			c-4.213-4.77-17.561-0.401-18.96-7.983c5.337,1.315,10.691,2.613,16.964,2.994c8.707-10.254,3.961-33.961,9.979-46.902
			c2.56,31.168-6.178,59.684-6.985,90.811c-22.807-2.142-42.332-7.565-65.863-8.982C70.999,91.213,76.311,62.597,77.268,29.623z
			 M73.275,120.434c9.211,2.432,20.782,2.504,30.936,3.992c0.756-11.225,3.558-25.705,0.998-36.923
			c-4.888,7.753,1.47,26.75-5.986,31.933c2.929-10.501-1.201-22.919,0.996-32.931c-5.597-3.383-18.067,0.105-20.955-5.987
			c8.05,0.264,15.174,1.457,21.953,2.993c1.274-17.354,6.299-30.957,5.989-49.895c-10.39,0.411-19.34-0.619-27.941-1.997
			C77.18,61.136,76.857,92.416,73.275,120.434z M105.209,83.511c4.985-12.349,8.967-36.222,5.987-49.895
			C110.152,50.537,103.282,66.943,105.209,83.511z"/>
		<path d="M427.536,151.369c13.086,6.956,1.62,25.594-10.979,24.948c-7.445-0.471-6.987-25.188,1.995-16.964
			c-1.396,1.929-4.739,1.913-4.989,4.989c-0.289,4.282,1.391,6.594,2.994,8.981c16.009,2.577,17.626-19.599,7.982-20.957
			C425.346,151.839,426.162,151.326,427.536,151.369z"/>
		<path d="M389.615,177.314c-0.227,1.438-2.979,0.349-2.994,1.997c-12.621,0.737-16.7-0.968-5.986-1.997
			C383.168,177.072,385.984,177.492,389.615,177.314z"/>
		<path d="M415.56,184.301c8.388-3.047,14.934,4.351,13.974,13.97c-3.432,5.872-12.833,10.011-21.955,6.986
			c-4.424-6.602-2.148-19.714,7.981-17.962c-4.214,3.104-8.316,6.317-6.983,14.968C426.169,209.524,432.647,185.729,415.56,184.301z
			"/>
		<path d="M199.013,221.224c-2.674-5.975,0.447-17.745-4.99-20.957C202.496,193.842,202.274,215.499,199.013,221.224z"/>
		<path d="M415.56,215.236c7.614-0.627,11.059,2.915,13.974,6.985c2.289,14.834-23.314,22.601-26.945,7.983
			c2.712,1.281,2.874,5.111,5.988,5.987c10.86,0.293,19.552-6.043,15.966-16.964C422.464,216.981,415.24,219.88,415.56,215.236z"/>
		<path d="M127.163,231.203c-1.709,3.28-8.402,1.577-12.973,1.996C113.905,231.869,123.118,231.516,127.163,231.203z"/>
		<path d="M114.19,237.19c-5.755,2.63-17.009,2.576-23.951,0.997C97.552,235.973,105.56,236.961,114.19,237.19z"/>
		<path d="M118.183,237.19c4.656,0,9.313,0,13.97,0C130.651,240.814,119.384,241.903,118.183,237.19z"/>
		<path d="M420.552,240.184c2.908-1.468,2.908,4.46,0,2.994C420.552,242.18,420.552,241.182,420.552,240.184z"/>
		<path d="M197.017,264.133c1.084,0.247,0.677,1.985,1.996,1.996c-0.255,5.734,0.747,12.723-0.998,16.965c0,2.327,0,4.656,0,6.985
			c0.408,3.6-1.822,1.367-0.998-0.999c0.115-6.869-0.535-14.505,0.998-19.958C198.423,266.719,196.193,266.954,197.017,264.133z"/>
		<path d="M371.652,274.113c-9.286,3.184-20.559-1.791-29.938,0.998c2.853,27.087,1.832,58.045,1.997,87.814
			c-9.238,3.054-15.999-2.678-23.949-3.989c-4.123,4.562-8.656,13.469-7.982,21.955c0.384,4.854,4.191,7.083,2.992,10.976
			c-1.723,8.446-19.383,4.504-26.944,3.992c-4.642,17.645-4.14,40.433-8.98,57.879c-7.901-16.396,7.369-38.447,1.995-58.876
			c8.32-6.284,22.98,4.65,29.938-2.995c-0.113-7.598-5.42-11.313-4.988-16.963c0.501-6.585,9.126-9.335,7.984-17.964
			c10.215-1.234,15.219,2.746,23.949,2.995c4.912-26.014,0.313-58.515,0.998-86.82C351.105,273.276,361.145,271.116,371.652,274.113
			z"/>
		<path d="M116.186,349.954c13.133,9.788-7.738,31.677-11.975,11.977c4.276,0.38,3.854,5.457,6.985,6.983
			c6.996-0.874,6.907-11.653,3.992-16.964c-3.854,0.139-4.087,3.896-3.992,7.984c-4.624,0.632-2.526-5.458-2.993-8.982
			C111.964,351.718,112.973,349.736,116.186,349.954z"/>
		<path d="M162.091,358.936c1.159-0.162,1.775,0.221,1.995,0.999c-0.346,32.251,1.749,66.945-4.989,92.806
			c-3.624-0.035-7.878,0.559-8.982-1.996c-0.151-4.44,4.046-0.596,4.989,0C163.874,426.58,157.42,387.197,162.091,358.936z"/>
		<path d="M257.89,366.918c1.544-2.535,1.544,8.212,0,8.981C255.285,374.184,259.297,370.733,257.89,366.918z"/>
		<path d="M256.892,384.88C259.478,382.459,256.443,393.991,256.892,384.88L256.892,384.88z"/>
		<path d="M454.479,420.808c7.976,6.101-1.187,16.031,0,26.942C448.477,439.909,457.661,429.534,454.479,420.808z"/>
		<path d="M571.235,423.8c2.712,2.135-1.298,5.952-3.991,5.988c-0.457,3.117,2.132,3.188,4.988,2.992
			c-1.01,3.921-7.263,1.367-8.981,0C562.837,426.71,568.027,426.247,571.235,423.8z"/>
		<path d="M124.169,446.752c-16.505,3.918-35.26,0.402-52.89,1.996C82.459,441.923,107.735,446.658,124.169,446.752z"/>
		<path d="M365.664,446.752c19.438,3.181,42.503,2.736,64.866,2.993c-18.464,5.348-41.813-0.424-61.871,0
			C366.482,449.927,365.484,448.929,365.664,446.752z"/>
		<path d="M298.804,454.735c-2.473,5.226-8.465,0.797-14.968,1.996C285.5,452.74,294.013,455.599,298.804,454.735z"/>
		<path d="M306.788,456.731c2.61-0.282,4.293,0.364,3.991,2.993C308.871,459.305,306.484,459.364,306.788,456.731z"/>
		<path d="M447.494,458.727c-4.061,3.592-9.063,6.239-15.967,6.985C435.17,462.189,442.008,457.149,447.494,458.727z"/>
		<path d="M431.527,470.703c2.396-3.289-0.551,7.123,1.995,6.982c-3.879,7.106-21.074,6.408-23.95-0.997
			c4.598-2.389,9.438-4.531,16.966-3.99c-2.754,2.567-8.588,2.056-11.977,3.99C418.568,485.295,431.349,479.847,431.527,470.703z"/>
		<path d="M356.686,480.682c3.957-2.589,11.362-0.086,14.967,0.998C367.67,484.895,360.648,482.894,356.686,480.682z"/>
		<path d="M351.693,480.682c2.55,0.11,1.979,3.342,1.996,5.986c8.504-0.555,19.76,4.421,21.955-3.991
			c1.58,13.167-22.693,8.407-25.947,2.994C348.956,482.599,352.438,483.754,351.693,480.682z"/>
		<path d="M237.931,498.643c-17.986,5.964-43.964,3.937-62.869,8.981C190.66,499.875,219.766,500.521,237.931,498.643z"/>
		<path d="M171.072,505.629c-2.632,1.691-5.695,2.954-9.979,2.993C162.169,505.576,167.878,503.412,171.072,505.629z"/>
		<path d="M114.19,513.613c3.737-7.246,26.265-4.333,39.916-4.99C143.911,513.394,122.817,507.269,114.19,513.613z"/>
		<path d="M109.202,509.621c0.808,0.188,0.994,1,1.995,0.998c3.411,4.139-7.792,0.334-8.981,2.994
			c-32.665,1.987-68.279,4.385-97.795,3.989C35.481,511.237,77.806,518.679,109.202,509.621z"/>
		<path d="M230.947,510.619c-38.91,13.313-93.394,11.055-140.707,15.966c3.383-6.345,10.576-2.161,15.968-1.995
			c5.617,0.172,12.27-3.492,17.962-3.992c19.455-1.705,38.942-1.755,58.878-2.994C200.237,516.537,213.763,511.561,230.947,510.619z
			"/>
		<path d="M1.426,523.591c19.318,2.636,44.623-0.716,63.866,1.996c-18.575,3.688-43.629,1.692-63.866,0.997
			C1.426,525.587,1.426,524.589,1.426,523.591z"/>
		<path d="M444.5,165.34c17.135-0.623,37.874-8.146,51.891,0c-5.663,15.958-29.804,13.439-50.892,13.971
			c13.42-5.208,36.64-0.616,44.906-10.977c-11.179-9.657-29.196-1.065-43.909,0c-6.907,12.718-4.65,34.601-8.981,49.895
			c1.552,3.548-3.39,0.602-2.992,2.994c0.882,10.195-1.382,17.247-4.989,22.952c-0.82-21.627,16.631-57.316,10.977-83.826
			c-1.249-5.853-5.061-9.55-10.977-11.974c-4.745-0.756-16.342,1.168-14.971,0c4.99-3.591,15.957-3.94,21.955-0.998
			C439.038,153.505,443.516,157.676,444.5,165.34z"/>
		<path d="M419.553,244.176c-5.381,12.256-19.553-3.647-29.938,0.998c-2.909-24.343,0.035-49.869,2.992-75.841
			c-35.015,1.242-64.295,8.218-100.79,7.982c-7.322-0.489,5.08-1.756,6.985-1.996c29.188-3.657,63.894-5.554,92.806-8.981
			c-0.133-9.448,0.182-18.448,10.978-16.965c-1.889,30.377-2.925,61.605-7.981,88.814
			C399.871,242.636,411.692,248.67,419.553,244.176z M393.605,224.217c1.566-20.119,8.166-44.509,2.994-64.864
			C397.778,182.329,387.52,202.783,393.605,224.217z"/>
		<path d="M360.675,180.309c-21.565,5.728-56.946,8.228-75.841,9.979C306.904,183.752,335.415,183.655,360.675,180.309z"/>
		<path d="M131.156,220.226c0.426,2.755-3.72,0.936-3.993,2.994C124.77,222.333,129.333,220.182,131.156,220.226z"/>
		<path d="M124.169,222.221c-1.229,1.431-3.431,1.891-5.987,1.996C115.995,223.232,122.325,222.466,124.169,222.221z"/>
		<path d="M198.015,223.219c4.247,4.978-1.673,20.217,1.996,27.941c-1.361,5.177-1.223,10.769-1.996,7.983
			C196.267,252.842,196.886,230.873,198.015,223.219z"/>
		<path d="M319.761,457.729c10.862-5.103,22.03-9.902,34.927-12.973c7.455-18.494,9.143-42.749,32.933-44.906
			c13.035-6.93,27.364-6.771,43.908-11.975c6.755-2.126,12.767-5.912,18.96-5.986c10.521-0.131,21.287,5.821,33.931,2.991
			c21.687,6.922,47.635,9.579,57.878,27.941c13.997,1.732,43.291-5.188,37.921,14.97c-4.224-0.766-2.508-7.471-5.987-8.979
			c-7.832-4.343-23.896-0.445-31.934-1.998c-6.021-5.62-12.84-10.445-17.963-16.965c-4.604,5.04-15.999,3.293-21.954,6.984
			c1.25,5.073,3.414,9.227,4.989,13.974c3.18-4.223-1.493-9.117-1.994-12.975c7.014,1.634,6.106,11.188,5.986,19.958
			c5.349,0.673,14.519-3.429,17.962-7.982c-0.103-6.885-5.722-8.247-7.982-12.975c9.655-0.341,10.777,7.852,10.978,16.966
			c-23.901,8.364-44.511,20.021-69.854,26.943c12.795-9.492,31.867-12.706,45.904-20.955c-4.274-6.039-6.592-14.032-8.981-21.955
			c-13.663,2.97-22.461,10.802-37.921,11.976c12.256-10.113,39.945-11.409,55.883-20.955c-1.445-6.538-13.733-2.234-15.966-7.985
			c-18.797,2.711-34.299-6.195-55.883-3.991c-24.506,6.43-47.57,14.301-71.852,20.957c-1.936,1.393-1.487,5.166-2.994,6.984
			c1.701,2.592,2.33-4.243,4.99-3.991c28.647,2.152,57.896-1.926,77.838,7.985c-5.946,10.948-5.568,22.287-8.981,33.928
			c-6.039-9.699,5.994-23.718,0-33.928c-18.68-6.101-44.063-1.994-64.862-4.992c-9.898,4.073-8.092,19.853-12.975,28.941
			c-13.079,8.206-33.717,8.86-42.911,20.954c3.435,2.89,9.904,2.737,9.979,8.981c0.277,4.682-7.879,4.855-10.978,2.992
			c0.14-2.854,4.163-1.823,6.985-1.994c0.578-4.238-2.688-4.629-4.99-5.988c-7.494,3.525-0.203,16.222-3.99,23.951
			c44.92,2.561,93.667,15.879,128.73-0.997c2.36-4.292,3.187-10.12,5.985-13.974c12.533-7.143,25.805,0.924,25.947,14.971
			c20.722-8.219,42.003-21.196,62.868-25.946c1.532,4.86-3.658,2.996-4.99,4.99c0.775,0.887,1.073,2.253,0.998,3.99
			c3.209,2.819,9.055-0.218,12.975,0c-3.563-14.787,1.053-36.213,16.964-37.92c1.786,2.872,1.909,7.402,2.994,10.978
			c5.835-2.532,12.807-7.951,9.978-15.966c8.776,4.253,0.526,19.407-9.978,16.964c8.735,22.369-11.833,30.936-31.934,30.936
			c-3.802-0.857-5.752-3.563-5.987-7.983c-17.914,8.366-37.715,14.843-53.888,24.948c-0.644,8.672-2.354,16.272-9.979,17.963
			c10.124-10.811,10.975-37.762-8.981-38.921c-8.777,3.531-7.49,17.127-10.978,25.946c-3.56-8.939-13.465,2.31-19.958-0.998
			c-1.293,15.265,7.688,20.255,21.954,19.958c2.888-1.67-6.625-4.566-2.994-6.983c4.437-0.111,3.239,5.409,6.984,5.986
			c5.509,0.185,9.089-1.556,11.977-3.991c-8.908,14.235-45.941,10.558-44.907-12.974c-14.668,0.562-27.694-0.734-37.92-1.996
			c-6.946,4.363-11.837,10.785-23.95,9.979c0.021-2.974,4.709-1.28,5.988-2.994c-1.671-1.656-0.794-5.859-0.998-8.98
			c-8.449,0.466-14.192-1.774-22.953-0.998c0.039,5.948,4.541,7.437,8.981,8.98c-6.869,3.19-13.012-2.938-11.977-10.978
			C313.697,501.917,312.254,476.001,319.761,457.729z M369.658,417.813c-2.266,6.396-7.895,14.712-5.99,21.954
			C366.457,434.447,370.152,419.809,369.658,417.813z M372.65,501.637c1.424,0.239,1.683,1.644,2.994,1.997
			c0.273-2.055,3.717-0.94,3.991-2.995C375.837,501.732,373.406,498,372.65,501.637z M557.266,472.698
			c18.225,3.793,15.876-23.373,9.979-31.934C558.077,445.455,552.354,460.053,557.266,472.698z"/>
		<path d="M271.861,492.658c-7.063,2.677-24.188,5.619-27.94,4.986C252.075,494.825,261.753,493.526,271.861,492.658z"/>
		<path d="M282.838,503.634c-3.326,0-6.652,0-9.979,0c-8.114,3.193-17.667,4.951-26.944,6.984c-6.276,0.651-20.83-0.882-6.986-0.998
			c16.832-3.016,40.733-9.47,58.878-12.973c1.242-0.24,9.964-2.921,5.987,0C299.433,499.848,293.022,499.173,282.838,503.634z"/>
		<path d="M264.876,148.376c0.21,10.434,1.611,19.676,0.998,30.935c7.354,0.036,12.604-2.032,19.958-1.997
			c-7.937,7.364-29.003,1.599-31.933,13.972c3.675,2.699,7.724-1.127,12.973,0c-3.678,3.86-13.924,5.683-17.963,0.998
			c-0.778-9.095,7.005-9.626,13.972-10.978c-3.219-6.567,5.302-33.803-8.981-32.931c-11.874,0.725-10.431,34.276-11.975,46.902
			c-2.254,18.432,0.904,38.948,0,58.876c-3.142,69.154-14.984,132.326-13.972,203.576c3.729,7.758,12.665,1.074,19.958,0.997
			c6.603-28.323-1.05-70.904,5.988-98.792c-4.696-5.528,2.228-20.296-2.994-26.944c6.716-41.531,3.808-88.561,7.983-134.719
			c2.824-1.5,4.614-4.036,8.982-3.991c-8.848,11.77-8.141,32.61-6.986,51.892c0.879,4.647-3.288-0.673-2.993,1.995
			c0.498,28.106-0.471,54.747-1.995,80.831c-0.088,3.415,6.074,0.578,5.986,3.992c0.478,10.456-2.934,17.022-1.996,27.942
			c-3.117,0.456-3.19-2.135-2.994-4.99c-2.208,12.428-2.06,27.211-1.995,41.911c3.172-0.485-1.679-8.994,2.993-7.981
			c-2.182,11.032,3.877,35.581-4.989,44.905c4.316-1.072,4.849,11.202,2.994,15.967c5.04,2.944,12.863,3.103,18.96,4.989
			c-14.357,2.927-28.797,0.933-36.924,10.978c-1.567-1.401-3.179-2.684-8.98-1.997c1.74,6.745,14.83,3.436,20.956,2.994
			c3.453-0.207-0.091-7.408,3.992-6.985c5.304,14.551-16.596,9.825-26.945,11.977c-3.343-3.837-7.033-9.127-2.992-14.969
			c-8.515-3.174-16.908-0.347-27.943-0.998c6.112-4.081,18.479-3.042,26.945-1.996c2.958-42.945,3.473-88.333,9.979-127.733
			c-1.892-3.762-5.583-5.727-11.975-4.989c-1.998-4.655-4.992-8.313-3.992-15.968c-5.314-4.995-20.947,0.325-20.957-9.978
			c4.804,6.173,17.018,4.938,25.947,6.986c-0.325,3.666,0.851,8.834-0.998,10.978c3.307,3.012,6.892,5.746,11.975,6.983
			c3.554-20.573,0.69-41.409,6.985-58.875c-3.737-21.531,2.282-59.01,0.999-85.821C240.112,159.326,242.428,138.792,264.876,148.376
			z M256.892,341.97c1.107-1.889,1.273-4.713,1.996-6.983c-1.319-0.013-0.912-1.749-1.996-1.996
			C254.53,334.469,256.454,352.357,256.892,341.97z M255.895,426.794c-0.559-5.781,1.184-19.123-0.998-19.96
			C255.848,414.629,251.882,421.626,255.895,426.794z"/>
	</g>
</g>
</svg>
