<?xml version="1.0" encoding="utf-8"?>
<!-- Generator: Adobe Illustrator 16.0.0, SVG Export Plug-In . SVG Version: 6.00 Build 0)  -->
<!DOCTYPE svg PUBLIC "-//W3C//DTD SVG 1.1//EN" "http://www.w3.org/Graphics/SVG/1.1/DTD/svg11.dtd">
<svg version="1.1" id="Layer_1" xmlns="http://www.w3.org/2000/svg" xmlns:xlink="http://www.w3.org/1999/xlink" x="0px" y="0px"
	 width="70px" height="53px" viewBox="0 0 70 53" enable-background="new 0 0 70 53" xml:space="preserve">
<g>
	<rect y="50" fill="#D88F50" width="70" height="3"/>
</g>
<g>
	<rect fill="#EDE9E6" width="70" height="50"/>
</g>
<g>
	<path fill="#5C4B47" d="M38.445,33.654c0,1.713,0.244,2.773,0.729,3.185c0.486,0.411,1.619,0.644,3.408,0.7
		c0.109,0.111,0.164,0.354,0.164,0.729S42.691,38.889,42.58,39c-2.85-0.056-5.256-0.084-7.213-0.084
		c-1.906,0-4.256,0.028-7.049,0.084c-0.113-0.111-0.168-0.352-0.168-0.72c0-0.369,0.055-0.616,0.168-0.741
		c1.787-0.057,2.922-0.289,3.408-0.7c0.484-0.411,0.725-1.472,0.725-3.185v-16.37c0-1.392-0.146-2.446-0.445-3.163
		c-0.301-0.718-0.826-1.076-1.578-1.076H28.34c-1.447,0-2.605,0.341-3.477,1.023c-0.869,0.682-1.521,1.852-1.953,3.508
		c-0.736,0-1.295-0.07-1.67-0.209c0.57-2.45,0.926-4.53,1.064-6.243c0-0.083,0.063-0.125,0.188-0.125
		c2.883,0.223,6.203,0.334,9.959,0.334h6.035c3.787,0,6.982-0.111,9.584-0.334c0.084,0,0.125,0.042,0.125,0.125
		c0.027,1.907,0.217,3.946,0.564,6.117c-0.32,0.14-0.877,0.209-1.67,0.209c-0.348-1.601-0.977-2.735-1.889-3.403
		c-0.912-0.668-2.189-1.002-3.832-1.002h-0.941c-0.738,0-1.252,0.362-1.543,1.086c-0.293,0.724-0.439,1.816-0.439,3.277V33.654z"/>
</g>
</svg>
