<?xml version="1.0" encoding="utf-8"?>
<!-- Generator: Adobe Illustrator 16.0.0, SVG Export Plug-In . SVG Version: 6.00 Build 0)  -->
<!DOCTYPE svg PUBLIC "-//W3C//DTD SVG 1.1//EN" "http://www.w3.org/Graphics/SVG/1.1/DTD/svg11.dtd">
<svg version="1.1" id="Layer_1" xmlns="http://www.w3.org/2000/svg" xmlns:xlink="http://www.w3.org/1999/xlink" x="0px" y="0px"
	 width="70px" height="53px" viewBox="0 0 70 53" enable-background="new 0 0 70 53" xml:space="preserve">
<g>
	<g>
		<rect y="50" fill="#D88F50" width="70" height="3"/>
	</g>
	<g>
		<rect fill="#EDE9E6" width="70" height="50"/>
	</g>
	<path fill="#5C4B47" d="M22.032,39.001C21.894,39.548,22.222,40,22.727,40h24.545c0.506,0,0.834-0.452,0.696-0.999
		c-1.257-4.961-4.708-8.884-9.101-10.36c-1.042-0.415-1.174-2.036-0.191-2.648c2.335-1.456,3.918-4.252,3.918-7.463
		c0-4.71-3.4-8.53-7.593-8.53s-7.593,3.819-7.593,8.53c0,3.213,1.581,6.008,3.917,7.463c0.984,0.612,0.851,2.233-0.19,2.647
		C26.74,30.117,23.288,34.041,22.032,39.001z"/>
</g>
</svg>
