<?xml version="1.0" encoding="utf-8"?>
<!-- Generator: Adobe Illustrator 16.0.0, SVG Export Plug-In . SVG Version: 6.00 Build 0)  -->
<!DOCTYPE svg PUBLIC "-//W3C//DTD SVG 1.1//EN" "http://www.w3.org/Graphics/SVG/1.1/DTD/svg11.dtd">
<svg version="1.1" id="Layer_1" xmlns="http://www.w3.org/2000/svg" xmlns:xlink="http://www.w3.org/1999/xlink" x="0px" y="0px"
	 width="100px" height="73px" viewBox="0 0 100 73" enable-background="new 0 0 100 73" xml:space="preserve">
<g>
	<rect y="70" fill="#D88F50" width="100" height="3"/>
</g>
<g>
	<rect fill="#5C4B47" width="100" height="70"/>
</g>
<path fill="#FEFFE8" d="M91.03,21.238l-14.211-8.096c-0.541-0.309-0.729-0.12-0.418,0.419l2.079,3.623
	c0.311,0.539,0.06,0.936-0.562,0.895c-11.051-0.71-23.372,1.455-28.297,11.473l-23.923,1.058L14.459,50.463l54.025-1.208
	l-2.446-20.429l-6.904,0.305c-1.218,0.621-2.362,1.349-3.421,2.185l5.32-0.224l0.465,14.868L22.29,46.983l7.113-14.563l19.357-0.813
	c-0.331,0.931-0.612,1.912-0.824,2.962c-0.183,0.903-0.093,1.861-0.002,2.816c0.148,1.556,0.713-2.649,5.147-7.016
	c5.988-5.893,15.775-7.223,24.743-6.658c0.622,0.038,0.823,0.485,0.451,0.983l-2.867,3.847c-0.372,0.498-0.213,0.698,0.356,0.446
	l15.214-6.736C91.549,22.001,91.571,21.547,91.03,21.238z"/>
</svg>
