<?xml version="1.0" encoding="utf-8"?>
<!-- Generator: Adobe Illustrator 16.0.0, SVG Export Plug-In . SVG Version: 6.00 Build 0)  -->
<!DOCTYPE svg PUBLIC "-//W3C//DTD SVG 1.1//EN" "http://www.w3.org/Graphics/SVG/1.1/DTD/svg11.dtd">
<svg version="1.1" id="Layer_1" xmlns="http://www.w3.org/2000/svg" xmlns:xlink="http://www.w3.org/1999/xlink" x="0px" y="0px"
	 width="75px" height="15px" viewBox="0 0 75 15" enable-background="new 0 0 75 15" xml:space="preserve">
<g>
	<g>
		<g>
			<path fill="#CCC7C2" d="M4.776,13.273c-1.299,0.045-2.199-0.293-2.7-1.014c-0.273-0.383-0.479-1.037-0.615-1.969
				C1.329,9.439,1.263,8.516,1.263,7.518c0.009-1.025,0.08-1.943,0.212-2.755c0.16-0.925,0.378-1.574,0.656-1.948
				c0.41-0.533,1.119-0.836,2.126-0.909C4.708,1.879,5.181,1.9,5.675,1.971c0.495,0.07,0.899,0.213,1.213,0.427
				c0.419,0.296,0.734,0.921,0.943,1.873c0.164,0.793,0.246,1.741,0.246,2.844c0,1.025-0.068,2.001-0.205,2.926
				c-0.15,0.952-0.342,1.634-0.574,2.044c-0.246,0.419-0.572,0.735-0.978,0.95c-0.406,0.214-0.85,0.32-1.333,0.32
				C4.902,13.355,4.831,13.328,4.776,13.273z M5.214,12.727c0.697-0.055,1.214-0.371,1.552-0.949c0.196-0.338,0.36-0.949,0.492-1.84
				c0.137-0.883,0.205-1.823,0.205-2.821c0-1.066-0.08-1.974-0.239-2.721C7.06,3.601,6.827,3.102,6.526,2.896
				C6.303,2.741,5.982,2.635,5.563,2.575C5.134,2.512,4.717,2.493,4.312,2.521c-0.83,0.055-1.388,0.273-1.675,0.656
				C2.404,3.469,2.222,4.029,2.09,4.858C1.958,5.66,1.887,6.547,1.878,7.518c0,0.989,0.062,1.88,0.185,2.673
				c0.127,0.834,0.301,1.401,0.52,1.709c0.392,0.567,1.194,0.816,2.406,0.744C5.07,12.636,5.146,12.663,5.214,12.727z M5.672,5.111
				c0-0.019-0.002-0.056-0.007-0.113c-0.004-0.057-0.011-0.117-0.02-0.181L5.617,4.646C5.59,4.501,5.558,4.412,5.521,4.38
				c-0.05-0.036-0.16-0.055-0.328-0.055C4.998,4.316,4.786,4.338,4.558,4.391C4.33,4.442,4.131,4.515,3.963,4.605
				c-0.15,0.077-0.239,0.144-0.267,0.198C3.473,5.277,3.389,6.137,3.443,7.381c0.05,1.186,0.187,2.063,0.41,2.633
				c0.045,0.127,0.129,0.27,0.25,0.424s0.252,0.277,0.393,0.369c0.132,0.086,0.249,0.12,0.349,0.104
				c0.105-0.01,0.203-0.08,0.294-0.212c0.05-0.063,0.084-0.173,0.103-0.321c0-0.025,0.002-0.053,0.007-0.075
				c0.005-0.021,0.009-0.052,0.014-0.085c0.004-0.033,0.007-0.061,0.007-0.078c0.018-0.102,0.037-0.188,0.055-0.268
				c0.018-0.082,0.063-0.146,0.133-0.195c0.071-0.048,0.148-0.06,0.232-0.033c0.084,0.023,0.149,0.07,0.195,0.141
				c0.046,0.068,0.055,0.146,0.027,0.23c-0.009,0.047-0.018,0.114-0.027,0.205c-0.018,0.159-0.032,0.244-0.041,0.254
				c-0.027,0.236-0.093,0.424-0.198,0.562c-0.196,0.301-0.438,0.465-0.725,0.491c-0.246,0.026-0.499-0.039-0.759-0.197
				c-0.196-0.128-0.376-0.295-0.54-0.503c-0.164-0.207-0.283-0.401-0.355-0.584C3.025,9.602,2.88,8.659,2.829,7.41
				C2.773,6.073,2.876,5.12,3.136,4.551C3.222,4.364,3.4,4.2,3.669,4.059c0.214-0.11,0.467-0.199,0.759-0.267
				c0.278-0.063,0.54-0.091,0.786-0.082c0.305,0,0.538,0.066,0.697,0.198c0.15,0.109,0.253,0.319,0.308,0.629
				c0.009,0.046,0.018,0.102,0.027,0.168C6.255,4.77,6.262,4.837,6.267,4.902C6.271,4.968,6.278,5.01,6.288,5.029
				c0.009,0.082-0.011,0.158-0.062,0.229c-0.05,0.071-0.117,0.111-0.202,0.12C5.939,5.387,5.862,5.365,5.792,5.313
				C5.721,5.261,5.681,5.193,5.672,5.111z"/>
			<path fill="#CCC7C2" d="M12.364,12.516c0.073-0.502,0.109-1.103,0.109-1.803c0-0.699-0.009-1.32-0.027-1.861
				c0-0.104,0.004-0.471,0.014-1.095c-0.018-0.438-0.018-0.812,0-1.121c0.018-0.328,0.048-0.688,0.089-1.08
				c0.009-0.296,0.027-0.636,0.055-1.019c0.009-0.114,0.014-0.207,0.014-0.28c0.009-0.046,0.014-0.082,0.014-0.109
				c0.018-0.077,0.045-0.139,0.082-0.185c0.086-0.123,0.273-0.217,0.561-0.28c0.666-0.159,1.212,0.032,1.641,0.574
				c0.324,0.419,0.515,0.95,0.574,1.593c0.027,0.405-0.039,0.799-0.198,1.18c-0.16,0.38-0.396,0.688-0.711,0.926
				c0.365,0.073,0.625,0.229,0.779,0.472c0.196,0.293,0.303,0.75,0.321,1.374c0.041,1.044-0.16,1.806-0.602,2.283
				c-0.447,0.492-1.196,0.738-2.249,0.738c-0.059,0.041-0.125,0.057-0.198,0.048c-0.082-0.014-0.149-0.055-0.202-0.123
				C12.377,12.68,12.355,12.602,12.364,12.516z M13.232,4.325c-0.009,0.06-0.027,0.139-0.055,0.239
				c-0.037,0.419-0.071,0.854-0.103,1.306c-0.009,0.351-0.018,0.62-0.027,0.807c0,0.282-0.014,0.638-0.041,1.066v0.15h0.212
				c0.187,0,0.481-0.121,0.882-0.362c0.26-0.159,0.46-0.389,0.602-0.688c0.141-0.298,0.198-0.609,0.171-0.933
				c-0.041-0.524-0.187-0.95-0.438-1.278C14.167,4.3,13.827,4.18,13.417,4.271C13.331,4.298,13.269,4.316,13.232,4.325z
				 M13.048,8.557c0.009,0.103,0.014,0.198,0.014,0.295c0,0.056,0.006,0.313,0.017,0.77c0.011,0.459,0.017,0.771,0.017,0.938
				s-0.006,0.418-0.017,0.754c-0.011,0.338-0.031,0.638-0.058,0.896c0.766-0.027,1.303-0.21,1.613-0.547
				c0.314-0.342,0.458-0.952,0.431-1.832c-0.018-0.516-0.086-0.87-0.205-1.066c-0.123-0.164-0.428-0.24-0.916-0.23
				c-0.055,0-0.25,0.014-0.588,0.041h-0.219C13.109,8.57,13.08,8.564,13.048,8.557z M13.711,4.284l0.014-0.027
				C13.715,4.266,13.711,4.275,13.711,4.284z"/>
			<path fill="#CCC7C2" d="M16.91,12.527c0-0.178-0.014-0.493-0.041-0.949l-0.082-1.764c-0.041-0.635-0.071-1.244-0.089-1.833
				C16.653,6.788,16.63,5.897,16.63,5.31c0-0.401,0.014-0.729,0.041-0.984c0.018-0.306,0.066-0.515,0.144-0.629
				c0.146-0.26,0.431-0.403,0.854-0.431c0.26-0.009,0.52,0.019,0.779,0.082c0.383,0.109,0.686,0.385,0.909,0.827
				c0.178,0.364,0.285,0.802,0.321,1.313c0.041,0.479,0.009,0.941-0.096,1.388c-0.1,0.446-0.264,0.786-0.492,1.019
				c-0.173,0.196-0.396,0.351-0.67,0.464c0.141,0.43,0.376,1.067,0.704,1.922c0.351,0.91,0.597,1.593,0.738,2.044
				c0.027,0.082,0.023,0.161-0.014,0.235c-0.037,0.074-0.097,0.127-0.181,0.152c-0.084,0.027-0.164,0.021-0.239-0.014
				c-0.075-0.036-0.126-0.1-0.154-0.186c-0.082-0.27-0.328-0.94-0.738-2.018c-0.328-0.855-0.567-1.514-0.718-1.969
				c-0.132,0.027-0.292,0.05-0.479,0.068c0.123,2.609,0.185,3.922,0.185,3.93c0,0.088-0.031,0.16-0.092,0.22
				s-0.133,0.089-0.215,0.089s-0.154-0.029-0.215-0.089S16.91,12.615,16.91,12.527z M17.327,7.969
				c0.629-0.077,1.069-0.241,1.319-0.492c0.141-0.159,0.253-0.422,0.335-0.786c0.082-0.364,0.105-0.752,0.068-1.162
				c-0.027-0.429-0.112-0.786-0.253-1.073c-0.137-0.273-0.308-0.438-0.513-0.492c-0.196-0.055-0.39-0.077-0.581-0.068
				c-0.191,0.009-0.312,0.046-0.362,0.109c-0.018,0.036-0.037,0.162-0.055,0.376c-0.018,0.237-0.027,0.547-0.027,0.93
				c-0.009,0.643,0.009,1.524,0.055,2.646L17.327,7.969z"/>
			<path fill="#CCC7C2" d="M22.557,12.727c-0.292,0.063-0.451,0.098-0.479,0.098c-0.178,0-0.369-0.082-0.574-0.246
				c-0.16-0.133-0.294-0.357-0.403-0.678c-0.096-0.26-0.175-0.59-0.239-0.99c-0.141-0.768-0.221-1.646-0.239-2.646
				c-0.018-1,0.025-1.875,0.13-2.633c0.045-0.401,0.114-0.738,0.205-1.012c0.105-0.314,0.237-0.538,0.396-0.67
				c0.547-0.438,1.069-0.494,1.565-0.171c0.41,0.273,0.659,0.713,0.745,1.319c0.214,1.586,0.317,2.855,0.308,3.807
				c-0.023,1.783-0.369,2.973-1.039,3.568c-0.045,0.047-0.103,0.072-0.171,0.082C22.725,12.65,22.657,12.708,22.557,12.727z
				 M22.44,12.125c0.018-0.036,0.043-0.068,0.075-0.096c0.547-0.487,0.825-1.533,0.834-3.139c0.014-0.89-0.089-2.125-0.308-3.711
				c-0.055-0.429-0.208-0.727-0.458-0.896c-0.242-0.159-0.522-0.111-0.841,0.144c-0.064,0.055-0.134,0.185-0.212,0.39
				c-0.073,0.232-0.132,0.531-0.178,0.896c-0.096,0.72-0.134,1.565-0.116,2.536c0.018,0.972,0.093,1.817,0.226,2.543
				c0.064,0.364,0.139,0.663,0.226,0.896c0.073,0.221,0.141,0.355,0.205,0.41c0.096,0.073,0.157,0.109,0.185,0.109
				c0.018,0,0.037-0.002,0.055-0.007c0.018-0.005,0.054-0.015,0.106-0.027c0.052-0.013,0.11-0.024,0.174-0.034
				C22.422,12.13,22.431,12.125,22.44,12.125z"/>
			<path fill="#CCC7C2" d="M25.141,3.778c0,0.169,0.009,0.335,0.027,0.499s0.044,0.369,0.079,0.615s0.061,0.422,0.079,0.526
				c0.045,0.419,0.121,1.153,0.226,2.201c0.1,0.988,0.198,1.805,0.294,2.447c0.027,0.224,0.096,0.608,0.205,1.162l0.027,0.148
				c0.059-0.188,0.116-0.4,0.171-0.645c0.15-0.688,0.257-1.293,0.321-1.816V8.878l-0.014-0.055c0-0.041,0-0.07,0-0.089
				c-0.009-0.092-0.004-0.164,0.014-0.219c0.027-0.089,0.073-0.152,0.137-0.199c0.078-0.045,0.157-0.063,0.239-0.056
				c0.105,0.011,0.194,0.062,0.267,0.15c0.027,0.05,0.057,0.104,0.089,0.155c0.045,0.093,0.096,0.223,0.15,0.392
				c0.073,0.231,0.171,0.599,0.294,1.094c0.114,0.446,0.221,0.909,0.321,1.39l0.027-0.075l0.171-0.712
				c0.064-0.277,0.1-0.438,0.109-0.479c0.625-2.36,0.975-4.534,1.053-6.521c0-0.082,0.032-0.151,0.096-0.208
				c0.064-0.058,0.138-0.086,0.222-0.086s0.155,0.033,0.212,0.1c0.057,0.065,0.085,0.14,0.085,0.222
				c-0.073,2.023-0.433,4.245-1.08,6.665c-0.009,0.027-0.043,0.184-0.103,0.461c-0.059,0.281-0.119,0.521-0.178,0.715
				c-0.073,0.287-0.137,0.521-0.191,0.697l-0.116,0.269c-0.073,0.132-0.162,0.217-0.267,0.253c-0.082,0.025-0.167,0.025-0.253,0
				c-0.073-0.036-0.132-0.088-0.178-0.15c-0.027-0.066-0.045-0.146-0.055-0.238c-0.009-0.02-0.014-0.065-0.014-0.145v-0.066
				c-0.009-0.037-0.04-0.174-0.092-0.406c-0.052-0.235-0.11-0.487-0.174-0.756l-0.185-0.772l-0.096-0.39l-0.212,1.053
				c-0.105,0.445-0.203,0.795-0.294,1.046c-0.055,0.169-0.112,0.301-0.171,0.396c-0.119,0.18-0.262,0.261-0.431,0.246
				c-0.064-0.009-0.125-0.035-0.185-0.082c-0.018-0.019-0.037-0.041-0.055-0.066c-0.009-0.02-0.018-0.039-0.027-0.063
				c-0.009-0.022-0.018-0.056-0.027-0.097c-0.018-0.046-0.041-0.118-0.068-0.219c-0.041-0.169-0.089-0.396-0.144-0.677
				c-0.109-0.588-0.185-0.989-0.226-1.203c-0.082-0.569-0.174-1.385-0.277-2.444c-0.103-1.059-0.181-1.794-0.236-2.204
				c-0.009-0.082-0.033-0.252-0.072-0.509c-0.039-0.258-0.067-0.48-0.085-0.667c-0.018-0.187-0.027-0.369-0.027-0.547
				c0-0.082,0.031-0.153,0.092-0.216c0.062-0.061,0.133-0.092,0.215-0.092s0.154,0.031,0.215,0.092
				C25.11,3.625,25.141,3.696,25.141,3.778z"/>
			<path fill="#CCC7C2" d="M31.129,12.46c0.027-0.569,0.002-1.497-0.075-2.782c-0.073-1.253-0.082-2.206-0.027-2.857
				c0.009-0.142,0.028-0.365,0.058-0.674c0.03-0.307,0.054-0.577,0.072-0.81c0.018-0.233,0.027-0.458,0.027-0.677
				c0-0.009-0.034-0.18-0.103-0.513c-0.018-0.15-0.023-0.258-0.014-0.321c0.032-0.169,0.121-0.273,0.267-0.314
				c0.114-0.027,0.226,0.007,0.335,0.103c0.068,0.055,0.121,0.139,0.157,0.253c0.027,0.073,0.055,0.162,0.082,0.267
				c0.027,0.146,0.057,0.351,0.089,0.615c0.009,0.109,0.027,0.319,0.055,0.629c0.018,0.205,0.032,0.335,0.041,0.39
				c0.1,0.588,0.346,1.326,0.738,2.215c0.551,1.293,0.866,2.045,0.943,2.256l0.308,0.848v-0.309v-0.231v-0.171
				c0-0.27-0.007-1.013-0.021-2.232c-0.014-1.219-0.011-1.961,0.007-2.229c0-0.265,0.023-0.62,0.068-1.066
				c0.055-0.465,0.086-0.805,0.096-1.019c0-0.087,0.033-0.16,0.099-0.223c0.066-0.061,0.141-0.088,0.226-0.082
				c0.084,0.008,0.156,0.043,0.215,0.106s0.084,0.139,0.075,0.226c-0.009,0.224-0.037,0.572-0.082,1.046
				c-0.045,0.506-0.073,0.843-0.082,1.012c-0.009,0.278-0.009,1.024,0,2.237c0.009,1.216,0.014,1.957,0.014,2.227v1.096
				c-0.018,0.26-0.041,0.473-0.068,0.643c-0.018,0.101-0.043,0.189-0.075,0.267c-0.037,0.118-0.096,0.207-0.178,0.267
				c-0.086,0.063-0.179,0.089-0.277,0.068c-0.098-0.019-0.174-0.07-0.229-0.156c-0.045-0.056-0.078-0.133-0.096-0.231
				c0-0.021-0.004-0.075-0.014-0.171c-0.009-0.046-0.014-0.073-0.014-0.082c-0.105-0.319-0.292-0.866-0.561-1.643L32.92,9.76
				c-0.096-0.232-0.218-0.515-0.366-0.848s-0.245-0.559-0.291-0.678c-0.273-0.619-0.472-1.145-0.595-1.571
				c-0.009,0.077-0.018,0.148-0.027,0.212c-0.045,0.643-0.037,1.564,0.027,2.77c0.078,1.346,0.103,2.291,0.075,2.845
				c0,0.087-0.033,0.157-0.099,0.219s-0.141,0.087-0.226,0.082s-0.156-0.039-0.215-0.104C31.144,12.622,31.12,12.547,31.129,12.46z"
				/>
			<path fill="#CCC7C2" d="M39.366,3.895c0.879-0.077,2.167-0.116,3.862-0.116c0.086,0,0.162,0.033,0.226,0.099
				S43.55,4.02,43.55,4.105c0,0.084-0.032,0.159-0.096,0.225s-0.14,0.1-0.226,0.1h-1.695c0.023,0.036,0.033,0.077,0.033,0.123
				c-0.015,0.241-0.031,0.592-0.056,1.049c-0.022,0.459-0.038,0.763-0.048,0.913c-0.025,0.757-0.025,1.399,0,1.928
				c0.01,0.205,0.032,0.527,0.068,0.971c0.031,0.445,0.052,0.796,0.062,1.05c0.011,0.252,0.005,0.572-0.017,0.96
				c-0.021,0.389-0.063,0.743-0.126,1.066c-0.011,0.096-0.052,0.166-0.126,0.212c-0.075,0.046-0.157,0.062-0.246,0.048
				s-0.156-0.059-0.202-0.134c-0.045-0.074-0.06-0.153-0.041-0.235c0.056-0.311,0.092-0.642,0.113-0.995
				c0.021-0.353,0.022-0.651,0.007-0.895c-0.018-0.244-0.038-0.585-0.064-1.022c-0.037-0.41-0.06-0.742-0.067-0.998
				c-0.027-0.563-0.023-1.226,0.014-1.98c0.009-0.15,0.022-0.452,0.041-0.905c0.019-0.454,0.032-0.806,0.041-1.057
				c0-0.027,0.004-0.05,0.015-0.068c-0.539,0.009-1.043,0.036-1.512,0.082c-0.082,0-0.158-0.028-0.229-0.086
				c-0.071-0.057-0.108-0.126-0.113-0.208s0.021-0.158,0.079-0.229C39.215,3.943,39.284,3.903,39.366,3.895z"/>
			<path fill="#CCC7C2" d="M47.132,12.516c-0.036,0-0.12,0.006-0.253,0.021c-0.132,0.014-0.279,0.025-0.441,0.037
				s-0.313,0.021-0.455,0.029c-0.291,0.011-0.522,0.006-0.695-0.014c-0.114-0.009-0.214-0.029-0.303-0.063
				c-0.127-0.045-0.226-0.108-0.293-0.19c-0.072-0.104-0.133-0.265-0.178-0.479c-0.037-0.178-0.076-0.396-0.117-0.654
				c-0.045-0.446-0.078-1.018-0.096-1.709c-0.027-1.148-0.023-2.128,0.014-2.939c0.011-0.205,0.043-0.504,0.104-0.896
				c0.056-0.401,0.086-0.677,0.097-0.827V4.776L44.486,4.66c-0.02-0.155,0.004-0.285,0.068-0.39c0.09-0.159,0.271-0.271,0.547-0.335
				c0.168-0.046,0.387-0.073,0.654-0.082c0.15-0.009,0.365-0.014,0.645-0.014h0.465c0.082,0,0.156,0.027,0.222,0.082
				c0.065,0.055,0.099,0.124,0.099,0.209c0,0.084-0.026,0.159-0.084,0.225s-0.127,0.1-0.209,0.1h-0.479
				c-0.27,0-0.479,0.005-0.629,0.014c-0.223,0.009-0.406,0.032-0.547,0.068c-0.055,0.009-0.1,0.022-0.137,0.041v0.014
				c0.018,0.142,0.025,0.23,0.025,0.267c-0.009,0.205-0.041,0.504-0.096,0.896c-0.061,0.364-0.094,0.641-0.104,0.827
				c-0.01,0.142-0.015,0.333-0.015,0.574c0.625,0,1.194-0.057,1.709-0.171c0.073-0.009,0.147,0.01,0.222,0.059
				c0.075,0.047,0.12,0.111,0.133,0.191c0.016,0.079-0.002,0.155-0.047,0.229C46.883,7.538,46.82,7.581,46.732,7.6
				c-0.537,0.114-1.146,0.171-1.832,0.171C44.895,8.332,44.898,8.9,44.917,9.48c0.019,0.701,0.052,1.252,0.103,1.652
				c0.027,0.241,0.061,0.438,0.098,0.59c0.018,0.09,0.041,0.162,0.066,0.219c0.037,0.009,0.094,0.019,0.172,0.025
				c0.149,0.022,0.352,0.029,0.603,0.021c0.142-0.016,0.291-0.025,0.446-0.034c0.158-0.011,0.306-0.021,0.441-0.034
				c0.137-0.013,0.223-0.021,0.26-0.021c0.082,0,0.154,0.027,0.215,0.084c0.063,0.06,0.097,0.129,0.101,0.215
				c0.004,0.084-0.021,0.154-0.079,0.215C47.284,12.473,47.214,12.506,47.132,12.516z"/>
			<path fill="#CCC7C2" d="M48.629,12.557c-0.027-0.4-0.037-0.899-0.027-1.498c0-0.107,0.002-0.262,0.008-0.457
				c0.005-0.195,0.01-0.377,0.015-0.541s0.007-0.314,0.007-0.457c0-0.231-0.021-0.631-0.058-1.195
				c-0.038-0.565-0.063-0.955-0.072-1.169c-0.045-1.107,0.017-1.905,0.187-2.393c0.119-0.31,0.313-0.563,0.59-0.759
				c0.277-0.196,0.588-0.326,0.934-0.39c0.311-0.063,0.637-0.068,0.98-0.014c0.345,0.054,0.645,0.171,0.898,0.349
				c0.155,0.114,0.28,0.323,0.376,0.629c0.073,0.228,0.127,0.526,0.164,0.896c0.068,0.62,0.099,1.424,0.089,2.413
				c-0.009,0.643-0.037,1.458-0.085,2.447c-0.047,0.989-0.071,1.565-0.071,1.735c0,0.088-0.029,0.158-0.088,0.22
				c-0.061,0.062-0.133,0.089-0.217,0.089s-0.156-0.027-0.219-0.089s-0.094-0.132-0.094-0.22c0-0.188,0.021-0.689,0.063-1.512
				c0.041-0.82,0.068-1.488,0.082-2.002c-0.515,0-1.477-0.037-2.885-0.109c0.026,0.482,0.041,0.842,0.041,1.072l-0.026,1.472
				c-0.01,0.577,0,1.055,0.026,1.429c0.009,0.098-0.017,0.173-0.072,0.23c-0.057,0.061-0.13,0.096-0.219,0.104
				s-0.163-0.014-0.224-0.067C48.674,12.714,48.639,12.643,48.629,12.557z M49.154,7.914c1.478,0.073,2.459,0.109,2.947,0.109V7.955
				c0.018-0.971-0.009-1.745-0.076-2.324c-0.037-0.328-0.086-0.59-0.149-0.786c-0.045-0.169-0.099-0.271-0.157-0.308
				c-0.373-0.269-0.84-0.35-1.398-0.242c-0.557,0.106-0.908,0.363-1.055,0.769C49.12,5.47,49.068,6.185,49.116,7.21
				C49.124,7.406,49.137,7.641,49.154,7.914z"/>
			<path fill="#CCC7C2" d="M54.043,12.501c-0.15-1.782-0.18-4.008-0.089-6.679l0.062-1.271c0.01-0.232,0.014-0.415,0.014-0.547
				c0.011-0.073,0.016-0.128,0.016-0.164V3.778V3.751c0.01-0.009,0.016-0.019,0.016-0.027c0-0.019,0.004-0.036,0.014-0.055
				c0.009-0.027,0.023-0.05,0.041-0.068c0.045-0.068,0.111-0.107,0.197-0.116c0.195-0.036,0.379,0.048,0.547,0.253
				c0.092,0.114,0.188,0.282,0.295,0.506c0.146,0.319,0.308,0.791,0.484,1.415l0.409,1.374l0.246-0.561
				c0.114-0.228,0.319-0.615,0.622-1.162c0.27-0.506,0.46-0.889,0.573-1.148c0.01-0.019,0.019-0.066,0.026-0.144
				c0-0.019,0.004-0.061,0.014-0.127c0.011-0.065,0.016-0.112,0.016-0.14c0.025-0.137,0.063-0.244,0.107-0.321
				c0.115-0.187,0.279-0.251,0.492-0.191c0.143,0.036,0.239,0.139,0.295,0.308c0.026,0.073,0.045,0.171,0.056,0.294
				c0.026,0.187,0.041,0.433,0.041,0.738c0,0.046-0.015,0.442-0.041,1.189c-0.011,0.265-0.032,0.704-0.068,1.319
				C58.4,7.702,58.382,8.189,58.372,8.55c-0.011,0.36-0.013,0.796-0.008,1.31s0.032,0.988,0.081,1.427
				c0.052,0.438,0.129,0.848,0.232,1.229c0.018,0.086,0.006,0.17-0.037,0.248c-0.043,0.08-0.106,0.129-0.19,0.147
				s-0.165,0.006-0.243-0.038c-0.078-0.043-0.125-0.105-0.145-0.188c-0.104-0.41-0.187-0.849-0.244-1.311
				c-0.057-0.463-0.088-0.962-0.092-1.498c-0.004-0.535-0.002-0.986,0.008-1.355s0.027-0.863,0.059-1.486
				c0.03-0.621,0.049-1.054,0.059-1.295c0-0.009,0.002-0.067,0.008-0.174c0.004-0.107,0.011-0.229,0.021-0.363
				c0.009-0.134,0.015-0.268,0.015-0.399c-0.104,0.214-0.244,0.48-0.418,0.8c-0.301,0.547-0.496,0.93-0.588,1.148l-0.313,0.629
				l-0.191,0.39c-0.035,0.055-0.064,0.103-0.089,0.144c-0.019,0.027-0.03,0.05-0.041,0.068c-0.019,0.019-0.037,0.033-0.055,0.041
				c-0.064,0.057-0.14,0.082-0.228,0.082c-0.091-0.008-0.168-0.049-0.231-0.123c-0.031-0.027-0.058-0.062-0.074-0.103
				c-0.026-0.036-0.051-0.091-0.067-0.164c-0.045-0.104-0.097-0.269-0.15-0.492L55.04,5.836c-0.149-0.492-0.28-0.88-0.39-1.162
				c-0.02,0.405-0.033,0.798-0.041,1.176c-0.098,2.644-0.068,4.841,0.082,6.597c0,0.087-0.028,0.164-0.086,0.232
				c-0.058,0.066-0.125,0.104-0.207,0.107s-0.158-0.021-0.229-0.075C54.094,12.659,54.052,12.588,54.043,12.501z"/>
			<path fill="#CCC7C2" d="M64.413,1.96c0,1.157-0.004,1.871-0.015,2.14c0,0.087-0.032,0.157-0.1,0.212
				c-0.064,0.055-0.14,0.082-0.222,0.082s-0.151-0.032-0.208-0.096c-0.059-0.064-0.085-0.139-0.085-0.226
				c0.009-0.251,0.014-0.955,0.014-2.112c0-0.082,0.031-0.153,0.093-0.216c0.063-0.061,0.135-0.092,0.219-0.092
				c0.086,0,0.156,0.031,0.216,0.092C64.383,1.807,64.413,1.878,64.413,1.96z"/>
			<path fill="#CCC7C2" d="M68.527,2.213c-0.036,0.205-0.06,0.438-0.067,0.701c-0.009,0.262-0.011,0.504-0.007,0.728
				s0.002,0.48-0.008,0.772c-0.019,1.176-0.026,2.08-0.026,2.714c0,0.634,0.007,1.538,0.021,2.714
				c0.016,1.176,0.021,2.08,0.021,2.715c0,0.086-0.031,0.16-0.092,0.221c-0.063,0.063-0.135,0.095-0.219,0.095
				c-0.086,0-0.156-0.03-0.215-0.095c-0.061-0.061-0.09-0.135-0.09-0.221c0-0.635-0.009-1.541-0.023-2.722
				c-0.016-1.181-0.026-2.087-0.031-2.721C67.786,6.48,67.8,5.569,67.832,4.38V3.614c0-0.374,0.004-0.641,0.014-0.8
				c-0.479,0.487-0.816,0.911-1.012,1.271c-0.045,0.077-0.109,0.128-0.195,0.15c-0.084,0.022-0.164,0.014-0.238-0.027
				s-0.125-0.104-0.146-0.188c-0.021-0.085-0.018-0.166,0.021-0.243c0.115-0.187,0.25-0.385,0.408-0.595
				c0.155-0.21,0.287-0.369,0.393-0.479l0.506-0.52c0.232-0.241,0.376-0.388,0.432-0.438c0.055-0.063,0.125-0.098,0.215-0.103
				c0.088-0.005,0.162,0.025,0.222,0.089c0.101,0.096,0.128,0.214,0.082,0.355C68.538,2.126,68.538,2.167,68.527,2.213z"/>
			<path fill="#CCC7C2" d="M69.943,4.312c0-0.036-0.014-0.157-0.041-0.362c-0.027-0.205-0.045-0.369-0.055-0.492
				c-0.027-0.465,0.021-0.8,0.144-1.005c0.091-0.159,0.282-0.306,0.573-0.438c0.224-0.101,0.487-0.185,0.793-0.253
				c0.302-0.063,0.572-0.096,0.813-0.096c0.319,0,0.555,0.053,0.704,0.157c0.26,0.187,0.442,0.521,0.556,1.005
				c0.096,0.401,0.133,0.854,0.114,1.36c-0.026,0.483-0.099,0.93-0.212,1.34C73.2,5.998,73.036,6.335,72.84,6.54l-0.23,0.198h0.041
				c0.082,0.009,0.141,0.022,0.178,0.041c0.236,0.101,0.423,0.274,0.557,0.523c0.135,0.248,0.225,0.497,0.27,0.748
				c0.088,0.487,0.105,1.107,0.057,1.859c-0.057,0.853-0.186,1.47-0.391,1.853c-0.113,0.196-0.282,0.377-0.506,0.545
				c-0.224,0.166-0.461,0.291-0.711,0.379c-0.666,0.213-1.188,0.115-1.571-0.295c-0.216-0.224-0.337-0.556-0.362-0.998v-0.483
				c0.01-0.241,0.016-0.378,0.016-0.41c0-0.082,0.029-0.153,0.092-0.215c0.062-0.063,0.134-0.095,0.219-0.095
				s0.156,0.031,0.215,0.095c0.059,0.062,0.089,0.133,0.089,0.215c0,0.032-0.004,0.178-0.014,0.438v0.418
				c0.019,0.291,0.084,0.496,0.198,0.613c0.205,0.221,0.513,0.264,0.922,0.131c0.197-0.063,0.375-0.154,0.533-0.272
				c0.16-0.118,0.275-0.241,0.35-0.369c0.16-0.292,0.262-0.819,0.309-1.586c0.049-0.706,0.031-1.276-0.056-1.709
				c-0.073-0.419-0.222-0.688-0.444-0.807h-0.014c-0.032-0.009-0.08-0.014-0.145-0.014c-0.045-0.009-0.114-0.018-0.207-0.023
				c-0.094-0.008-0.164-0.011-0.209-0.011c-0.195-0.009-0.342-0.022-0.438-0.041c-0.071-0.009-0.134-0.022-0.187-0.041
				c-0.045-0.009-0.086-0.027-0.123-0.055c-0.1-0.082-0.141-0.189-0.123-0.321c0.037-0.214,0.189-0.335,0.459-0.362h0.172h0.025
				c0.242-0.104,0.438-0.237,0.588-0.396c0.133-0.118,0.25-0.36,0.354-0.725C72.852,5,72.912,4.599,72.93,4.162
				c0.019-0.46-0.011-0.856-0.089-1.189c-0.082-0.328-0.194-0.545-0.335-0.649c-0.037-0.027-0.145-0.041-0.32-0.041
				c-0.205,0-0.438,0.028-0.701,0.086c-0.262,0.057-0.485,0.126-0.674,0.208c-0.164,0.077-0.262,0.139-0.293,0.185
				c-0.056,0.091-0.074,0.31-0.056,0.656c0.009,0.123,0.028,0.285,0.058,0.485c0.03,0.2,0.045,0.319,0.045,0.355
				c0.01,0.082-0.016,0.156-0.071,0.222s-0.127,0.104-0.214,0.113c-0.084,0.009-0.156-0.014-0.221-0.068
				C69.994,4.471,69.957,4.398,69.943,4.312z"/>
		</g>
	</g>
</g>
</svg>
