<?xml version="1.0" encoding="utf-8"?>
<!-- Generator: Adobe Illustrator 15.1.0, SVG Export Plug-In . SVG Version: 6.00 Build 0)  -->
<!DOCTYPE svg PUBLIC "-//W3C//DTD SVG 1.1//EN" "http://www.w3.org/Graphics/SVG/1.1/DTD/svg11.dtd">
<svg version="1.1" id="Layer_1" xmlns="http://www.w3.org/2000/svg" xmlns:xlink="http://www.w3.org/1999/xlink" x="0px" y="0px"
	 width="100.931px" height="273.852px" viewBox="0 0 100.931 273.852" enable-background="new 0 0 100.931 273.852"
	 xml:space="preserve">
<g>
	<path fill="#F6F6F6" stroke="#231F20" stroke-width="2" stroke-miterlimit="10" d="M32.204,15.464c0,0-2.667,5-1.667,8.667
		c-0.667,1.333-1.667,5-1.667,5s2.667,2.667,2.667,3.667c-1,6-0.667,11-0.667,14c0,5.333-3,12.334-3,15.667
		c-0.667,16.667,2.333,20,9,25.667c-0.667,2-2.333,5-2.333,5l-2,0.667c0,0-7.667,6-9,11.667s-4,13.667-4,13.667
		c2-0.333,2.667,1,2.667,1s-3,16.667-6.333,23.667S5.538,171.134,5.538,172.467c1,3.667,3.667,7,5.667,7.667s7-1.333,7-4.667
		c1-0.667,3-2.667,3.333-4s3,2,3,2s-2.667,31.333-2.667,36.333c0.667,9-3.667,19.001-4,21.666c-0.333,2.666-2.667,8-2.667,8
		l1.333,0.666l-0.667,2c0,0-6.333,0.002-9.333,3.334c-3,3.334-4,13.666-4,13.666s-2,5.334-1,6c1,0.668,16.667,11,28.667,5.668
		c3.333,2.332,11,3.998,11-2.668c0.333-1.665,0.333-3.332,0.333-3.332s1.333-2.334,1.333-3.334c2.333-17-0.667-19-0.667-19
		s4-10.001,6.333-18.334c2.333-8.332,4-16.666,4-16.666s2.667,12.334,3.333,16s3,16.666,1.667,20.334
		c-1,2.666,2.667,1.332,2.667,1.332s-2,3.335-2.667,6.335c-1,12.333,0,14,0,14l2.667,2.333c0,0,0,3.666,7.333,4.333
		s18.667,0.334,19.333-5.666c4-7.667,2.667-15,2.667-15l-4.667-4.334l0.333-1.333c0,0-1.334-7-1.667-11s-0.667-29.667-1-36.667
		s0.667-13.333,0.667-13.333s6.333,3,9.333,1s7.333-9,7.333-9s-1.667-7.667-3-10.333s-1.667-6.333-1.667-6.333
		c0.667-21-6.667-38.667-6.667-38.667l2-2.333l-2.333-6c-2-14-6-17.333-6-17.333s-2.333-3.667-10-3.333c-1.333,0-3-5-3-5
		s5.667-6,7.667-11.667s1.667-17.667,1.667-17.667s3-1,4-6.333s-4-6-4-6l4.333-3.333c0,0-1.333-5-1-6s1-4,1-4s1-4.666,1-6.333
		s-1.667-2.667-1.667-2.667s-2.667-7.333-5-9s-6-3.333-6-3.333s-3.667-8.333-6.667-8.667s-6.333-2.667-9.333-0.667
		c0,0-10.667,0.333-14.667,4s-2,3.667-2,3.667S32.871,10.798,32.204,15.464z"/>
	<path fill="#7B7C7C" d="M28.271,28.697c0,0,2.133,3.3,2.7,3.7c0.567,0.4,0.9-1,1-1.7s0.58-5.58,1.94-6.29s5.46-2.71,5.96-2.91
		c0.7,1.1,1,2.4,4.8,2.6c2.3,1.2,3.601,1.5,5.4,0.9c1.799-0.6,6.1-2.6,6.9-3.6s4.5-1.3,5.3-0.8c0.8,0.5,1.3,1.6,2.1,1.7
		c0.8,0.1,1.101,0.6,1.7,1s0.8-0.2,1.4,1.6c0.6,1.8,3.4,4.6,4,4.9c0.6,0.3,0.9,1.5,0.9,2.4s0,2.3,0.3,3.4
		c0.3,1.1,0.563,1.933,0.682,2.617c0.119,0.684-0.281,1.583-0.281,2.583s0.1,4.1,0.1,4.1l3.9,0.1c0,0,0.433,0.951,1.417,0.476
		s4.683-2.775,4.283-4.875c-0.4-2.1-0.799-3.9-0.7-5.4s2-6.7,2-8s0.4-1.7-0.5-2.5s-2.7-5.3-3.8-6.9c-1.1-1.6-1.299-3.2-3.2-4
		c-1.901-0.8-5.033-2.133-5.367-2.667c-0.334-0.534-4.367-8.389-6.55-8.811s-5.583-1.123-6.583-1.123s-1.133,0.6-2.867,0.6
		s-11.034,1.6-12.934,2.6c-1.9,1-3.2,2.299-3.5,3.1c-0.3,0.801-0.3,2.201-1,2.4c-0.7,0.199-5.6,4-5.9,5.5c-0.3,1.5-1.8,5.1-1.6,6.4
		c0.2,1.3-0.399,5.1-1.2,6C28.27,28.697,28.271,28.697,28.271,28.697z"/>
	<path fill="#7B7C7C" d="M24.347,173.956c14.523,2.091,41.958,6.636,55.491-0.886c0.533,4.978,0.788,5.308,1.16,7.143
		c0.372,1.835,2.206,4.585,2.206,4.585s0.167,40.999,0.167,46.999s1.5,9.25,1.5,9.25s-7.25,3.5-14.75,4s-12.5-0.25-12.5-0.25
		s0.427-0.858,0.25-2.25c-0.177-1.391-3-24.25-3-27.25s-2-6.25-3.5-0.75s-7.101,22.981-8.25,26c-1.149,3.02-4,4.5-5.75,4.5
		s-18.203-2.561-21.602-5.279c1.553-4.063,5.352-23.721,5.352-27.221s2-26.499,2.5-30.749
		C24.121,177.548,24.347,173.956,24.347,173.956z"/>
	<g>
		<g>
			<path fill="#010101" d="M56.98,18.301c1.112-0.233,1.195,0.697,1.188,1.73c1.98-0.74,3.049-0.508,4.29-0.624
				c1.027,0.248,0.879,1.824,1.592,2.427c1.689,0.037,1.208,0.145,2.896,0.183c-1.403,2.029-4.553,0.259-5.119-1.128
				c-5.761-0.03-7.494,4.122-13.411,4.792C51.219,23.174,57.315,23.58,56.98,18.301z"/>
			<path fill="#010101" d="M81.093,23.312c1.415,0.45,2.533,1.234,3.389,2.316c-1.13,2.527,0.328,5.258-2.118,6.622
				c-0.195-2.042,0.845-3.682,1.04-6.556C82.693,24.91,80.279,24.607,81.093,23.312z"/>
			<path fill="#010101" d="M63.862,30.502c-4.642-1.076-9.445,3.54-12.466,2.569C52.82,30.325,62.214,24.155,63.862,30.502z
				 M59.146,30.07c0.838-0.051,1.677-0.103,2.515-0.154C61.634,28.451,59.138,28.817,59.146,30.07z M54.541,31.436
				c0.878-0.469,2.455-0.322,2.427-1.592C56.121,30.34,54.655,30.289,54.541,31.436z"/>
			<path fill="#010101" d="M77.245,31.121c0.759,0.155,0.796,0.514,0.425,1.056c1.113-0.01,1.979-0.974,2.875-0.177
				c-1.645,1.168-2.229,1.183-4.964,1.387c-0.029-0.479-0.059-0.958-0.088-1.438C76.388,31.95,76.972,31.674,77.245,31.121z"/>
			<path fill="#010101" d="M30.958,35.048C31.135,33.757,30.587,37.76,30.958,35.048L30.958,35.048z"/>
			<path fill="#010101" d="M31.047,36.486c0.35-0.012,0.306,0.422,0.404,0.696C31.396,41.083,30.288,39.293,31.047,36.486z"/>
			<path fill="#010101" d="M82.071,33.35c0.239-0.015,0.479-0.029,0.718-0.044c-0.033,0.421,0.119,0.634,0.403,0.697
				c-0.081,0.494-0.881,0.353-1.415,0.447C81.95,34.149,82.117,33.843,82.071,33.35z"/>
			<path fill="#010101" d="M74.614,35.251c0.043-0.142,0.721-0.682,1.056-0.426C76.417,35.399,74.189,36.636,74.614,35.251z"/>
			<path fill="#010101" d="M30.659,41.92c0.342-1.188,0.466,0.939,0.448,1.415C30.765,44.523,30.641,42.396,30.659,41.92z"/>
			<path fill="#010101" d="M39.438,43.905c0.71,0.478,1.642,0.705,1.57,2.068c-0.584,0.99-2.577,1.141-2.896-0.183
				C37.884,44.57,39.121,44.645,39.438,43.905z"/>
			<path fill="#010101" d="M53.81,43.021c0.636,1.215-0.032,2.769-2.001,2.648C50.321,44.665,51.39,42.539,53.81,43.021z"/>
			<path fill="#010101" d="M46.911,48.134c-10.286-4.551-12.524,13.374-3.517,13.201c0.423,4.513-2.56,8.792-5.042,11.852
				c2.343,1.705,5.156,2.879,8.844,3.063c-4.099,1.43-7.634-1.098-10.597-2.234c1.898-3.418,4.884-5.875,5.49-10.437
				c-1.553-2.452-5.38-3.924-5.876-7.574c-0.452-3.322,1.334-5.942,3.085-8.485C41.463,46.934,46.13,45.27,46.911,48.134z"/>
			<path fill="#010101" d="M78.46,50.884c-0.821,0.496-1.753,2.018-2.809,1.254C76.111,51.323,77.514,50.218,78.46,50.884z"/>
			<path fill="#010101" d="M77.177,53.488c1.372-0.069,1.985,2.086,1.614,2.787C77.821,55.833,77.659,54.48,77.177,53.488z"/>
			<path fill="#010101" d="M44.184,80.042c0.884,0.665,2.412,0.603,3.659,0.857C47.169,82.195,44.107,81.873,44.184,80.042z"/>
			<path fill="#010101" d="M69.595,88.579c1.414-1.197,1.736,2.122,2.018,3.482c3.501-0.769,7.518,0.892,10.237,2.256
				c6.677,4.819,4.594,17.19,8.307,23.655c-4.76-2.724-2.284-19.766-9.722-23.208c-2.869-1.303-4.591-1.527-8.397-1.647
				c-1.049,0.205-0.598,1.736-1.305,2.244c-5.3-0.501-8.654,0.977-13.229,1.895c2.649-2.301,7.472-2.681,12.443-2.929
				C71.166,93.3,70.46,89.605,69.595,88.579z"/>
			<path fill="#010101" d="M43.791,91.247c2.787,0.819,3.475,4.012,5.068,6.181C46.509,96.115,45.658,93.106,43.791,91.247z"/>
			<path fill="#010101" d="M70.727,101.134c2.342,6.131,1.444,14.198,2.315,20.056c-2.17-0.823-1.141-4.525-1.183-7.502
				C71.799,109.326,70.545,104.706,70.727,101.134z"/>
			<path fill="#010101" d="M28.309,121.053c-1.658,1.095-3.904-0.443-5.456-0.747c-3.207,19.705-11.643,34.785-16.964,52.62
				c0.765,2.215,2.767,5.062,3.272,6.291c-2.337-0.944-3.081-3.689-4.329-5.865c4.455-17.368,14.186-32.979,16.942-52.979
				c-0.209-1.3-3.037,0.36-2.625-1.642C22.002,118.246,24.809,121.004,28.309,121.053z"/>
			<path fill="#010101" d="M87.863,121.721c0.359-0.022,0.719-0.044,1.078-0.066c4.07,13.511,7.479,29.49,6.984,43.213
				c1.531,1.747,2.392,5.604,2.576,6.695c-1.149,0.01-1.248-4.474-2.847-5.235C94.169,150.135,92.503,134.877,87.863,121.721z"/>
			<path fill="#010101" d="M53.671,134.643c-1.178,1.139-6.581,0.189-8.939,1.271C46.111,133.853,52.02,134.546,53.671,134.643z"/>
			<path fill="#010101" d="M61.974,140.625c-6.778-1.785-17.413-1.78-24.859,0.446c4.493-3.151,11.618-2.293,17.563-1.801
				C57.187,139.479,60.631,138.273,61.974,140.625z"/>
			<path fill="#010101" d="M15.188,171.633c1.869,0.192,1.882,2.483,4.107,2.273C18.582,175.381,14.459,173.02,15.188,171.633z"/>
			<path fill="#010101" d="M17.924,175.072c1.646,1.846-2.442,6.183-5.843,4.687C13.969,179.093,17.061,178.287,17.924,175.072z"/>
			<path fill="#010101" d="M83.149,185.852c0.329,0.14,0.662,0.275,0.763,0.675c-2.161,18.044,1.072,39.898,0.433,59.847
				c-1.833-18.927-2.691-41.702-1.489-59.421C82.719,186.377,83.157,186.313,83.149,185.852z"/>
			<path fill="#010101" d="M23.557,243.255c2.431,2.375,5.294,4.261,5.942,8.652c1.025-0.34,2.031-0.695,2.427-1.593
				c0.284-3.267-2.345-3.24-2.869-5.595c1.915,1.422,4.095,2.543,3.991,6.247c-1.29,0.672-1.901,1.943-4.224,1.702
				c-1.176-4.563-4.272-6.954-7.086-9.664c-3.557,0.026-4.026,2.783-7.01,3.316c-1.044-1.256,0.445-2.62,0.476-3.997
				c-8.867-1.375-13.216,9.792-11.92,17.324c9.54,4.505,22.976,7.247,35.677,5.382c1.902,0.209,1.244-1.846,3.146-1.636
				c-0.27,1.346-1.524,1.822-2.36,2.669c-13.38,2.032-27.916-0.73-37.878-5.968c-0.44,1.229-0.918,2.449-0.476,3.997
				c1.222,4.271,22.841,10.622,29.232,6.138c1.892,3.051,9.162,3.696,9.298-1.293c2.648,4.751-7.636,6.621-9.232,2.372
				c-10.769,4.164-23.473-1.563-30.691-6.41c2.02-10.681,1.938-24.042,15.856-23.697c1.184-0.188-1.47-1.025-0.088-1.437
				c6.156,1.886,14.639,4.443,23.709,4.313c7.038-5.896,7.446-17.654,10.986-26.645c-0.084-2.808,0.558-5.419,0.951-7.994
				c0.261-1.707,0.012-3.95,1.51-4.78c1.734,13.252,6.254,26.029,4.768,36.495c-0.66-9.733-3.415-21.379-4.84-31.803
				c-0.499,1.331-1.696,4.245-0.41,5.074c-3.521,9.232-4.434,20.771-9.798,28.375c1.683,4.297,1.313,10.087,0.59,15.474
				c-1.046-4.137,0.886-10.509-1.265-14.711c-0.629,0.577-1.19,1.213-1.686,1.907C34.674,244.709,29.425,244.846,23.557,243.255z
				 M16.1,245.156c0.789-1.455,2.803-1.826,3.776-3.117C17.466,240.413,14.892,242.891,16.1,245.156z"/>
			<path fill="#010101" d="M80.75,246.594c1.521-0.438,1.45,0.922,2.582,0.924c0.126,1.47,0.251,2.939-0.116,3.974
				c-2.542-1.134-6.987-2.038-7.474-4.229c2.091,0.965,3.789,2.377,6.307,2.857C83.671,248.819,81.468,247.527,80.75,246.594z"/>
			<path fill="#010101" d="M42.562,259.039C42.679,257.584,42.389,261.184,42.562,259.039L42.562,259.039z"/>
			<path fill="#010101" d="M72.042,46.229c0.587-2.372-1-7.011,1.31-8.015c-2.035,0.03-1.029-5.212-1.9-7.457
				c-1.993-1.721-5.167-4.144-4.776-7.281c1.187,1.732,2.63,3.174,3.565,5.191c1.034,0.234,0.899-0.564,1.775-0.47
				c-0.001,1.25-0.776,2.142,1.188,1.73c-1.81,2.277,0.65,3.819,0.038,6.49c0.562-0.276,2.315,0.635,1.21,2.09
				c1.138-0.033,2.064-2,1.664-2.266c1.375-1.05,3.517-1.421,4.898-2.465c0.02,2.283-2.632,2.203-4.135,3.14
				c0.166,0.826,0.027,1.383-0.249,1.819c1.777,1.179,2.936-1.53,4.157-2.78c0.938-0.165,0.368,1.376,1.504,0.989
				c0.126,2.185-0.584,3.962,0.69,5.368c-0.984,1.906-3.162,2.37-4.495,3.162c5.091,0.829,6.202,11.56,0.414,12.598
				c1.384,14.155-2.378,26.344-12.496,31.426c-1.418-0.649-2.752,0.096-4.312,0.265c-0.179,2.752-5.424,3.447-6.833,6.191
				c-0.52-2.053,5.049-3.457,4.721-5.34c2.193-1.987,4.634-1.773,7.773-2.641c7.949-4.201,11.048-18.503,10.472-29.138
				c-0.805-0.626-2.66-0.066-3.3-0.879c-0.391-0.497,2.057,0.11,3.234-0.199c6.414-1.682,4.32-14.148-4.615-10.537
				C73.4,46.487,72.541,46.562,72.042,46.229z M78.538,40.42c1.142-0.576,2.105-1.31,2.742-2.333
				C79.929,38.479,79.416,39.611,78.538,40.42z M79.279,40.735c2.271,1.988-1.582,1.761-1.958,3.367
				c1.513-0.518,1.467-0.063,2.897,0.183c0.032-1.218,1.529-1.14,1.664-2.267c-0.793-0.256-0.417-1.834-1.211-2.09
				C80.624,40.565,80.104,40.785,79.279,40.735z"/>
			<path fill="#010101" d="M30.836,44.795c0.758-0.894-0.239,0.962,0.11,1.796C30.504,47.764,30.326,44.868,30.836,44.795z"/>
			<path fill="#010101" d="M41.164,89.605c-0.919,1.015-3.009,0.092-3.974-0.116c-0.929,1.217-1.449,2.796-2.272,4.107
				c2.519,2.721,6.965,1.261,10.304,3.334c-2.768,0.746-10.272-1.615-12.438-2.842c-8.23,4.276-8.264,15.8-12.241,23.836
				c2.147-8.976,3.308-21.767,13.253-24.98c1.333-0.86,1.863-2.43,2.272-4.107c-9.695-5.975-11.05-22.104-6.726-33.13
				c0.55-0.623-0.232,2.577-0.454,4.355c-0.855,6.875-1.177,16.528,2.066,21.875C33.907,85.004,36.547,88.423,41.164,89.605z"/>
			<path fill="#010101" d="M33.225,101.274c0.866,7.074-0.708,18.208-1.981,26.452c-5.616,11.448-6.461,27.921-9.229,43.488
				c-1.309,0.541-0.595,2.872-2.338,3.029c3.093-5.908,2.46-13.016,3.5-19.332c1.594-9.672,3.927-18.567,7.349-27.142
				C31.699,118.438,32.165,110.36,33.225,101.274z"/>
			<path fill="#010101" d="M84.967,121.538c1.124,0.54-5.264,1.613-7.458,1.901c2.806,15.292,4.526,25.476,4.425,42.649
				c-0.026,4.311-2.79,8.702-0.936,14.124c2.778,0.761,2.366-3.606,4.495-3.162c-0.749,1.83-1.503,3.654-2.947,4.872
				c1.253,3.621,6.563,3.68,9.967,3.715c3.599-2.142,4.125-7,7.353-9.469c-0.534,4.738-4.213,6.695-5.85,10.459
				c-5.518,0.581-7.794-0.582-11.675-2.168c-0.466-2.293-1.842-3.554-3.184-4.854c-0.172-3-0.206-3.791,0.725-5.815
				c-14.309,6.565-39.46,5.061-54.434,0.46c-3.472,21.271-1.756,42.38-8.125,61.454c0.627-7.92,3.195-15.631,3.932-24.047
				c0.403-12.551,1.665-25.184,3.093-37.701c-0.002-1.278-1.729-0.606-1.569-2.067c16.102,5.93,39.687,7.765,57.06,1.181
				c1.427-16.613,0.501-30.381-3.363-48.845c-0.253-0.996-1.772-0.559-2.582-0.924C76.236,121.872,81.144,123.409,84.967,121.538z"
				/>
			<path fill="#010101" d="M62.352,252.412c0.569-2.895,1.303-5.645,4.678-6.058c-2.61-0.904-5.123-0.036-7.143,1.159
				c-3.35,3.313-3.455,15.298-2.196,17.088c1.027,1.459,4.176,2.819,5.97,3.238c6.776,1.582,16.259-0.41,23.29-2.513
				c3.193-3.288,3.361-9.6,2.328-14.932c2.361,4.659,2.464,16.748-5.092,16.903c-2.846,7.941-16.836,6.724-23.964,3.275
				c-0.065-3.385-2.791-3.76-3.969-5.887c-1.137-8.82-0.222-15.827,4.579-19.397c5.369-0.186,16.567-0.655,21.09-3.1
				c-1.072,2.792-6.657,4.532-10.448,6.053C68.081,249.198,65.907,254.756,62.352,252.412z M69.339,272.182
				c5.177,0.169,12.08-0.618,13.814-4.096c-5.797,0.44-14.551,2.472-22.366-0.067C61.041,271.559,66.04,272.073,69.339,272.182z
				 M67.389,246.331c0.915-0.021,0.999,1.348,0.088,1.438c-0.069-0.563-0.028-1.249-0.785-1.034
				c-1.53,1.366-2.769,2.988-3.284,5.251c4.632-2.473,8.745-5.406,13.976-7.352C74.366,245.479,70.485,245.558,67.389,246.331z"/>
			<path fill="#010101" d="M81.745,22.189c-1.282,0.041-0.934-1.763-2.267-1.665c0.572-5.884-5.271-7.533-9.58-9.149
				c-0.018-2.029-0.421-3.623-1.028-4.986c-3.146-1.95-6.313-3.877-9.717-5.535c-5.605,3.223-15.825-0.982-19.432,6.604
				c-0.607,1.373,2.217,0.763,1.167,1.371c0.591,1.578-2.476-0.778-1.708,1.548c-1.134,0.386-0.802-0.886-1.503-0.99
				c-2.553,1.594-5.588,2.762-4.97,7.158c-3.209,1.256-1.141,4.763-2.074,7.341c3.324-0.142,6.918-1.115,8.425-3.764
				c1.487-0.4,0.886,1.56,1.57,2.067c1.63,2.596,6.263-0.443,6.689,3.196c-2.505-0.787-6.294-0.228-7.789-3.488
				c-2.019,0.707-3.554,1.841-5.617,2.509c-1.5,2.525-1.482,6.392-2.3,9.52c-0.531-2.347-2.533-3.028-3.543-4.832
				c2.285-7.722,1.192-17.819,9.924-20.447c1.902-5.535,8.379-7.382,15.031-7.777c1.3-0.317,1.426,0.693,2.56,0.564
				c3.09-2.032,5.523-1.07,9.071,0.885c3.961,2.184,5.788,4.493,7.064,9.304C78.027,11.929,81.204,17.596,81.745,22.189z
				 M31.551,27.077c0.885,0.177,1.241-1.795,0.608-1.841C32.047,25.93,31.44,26.188,31.551,27.077z M29.754,27.188
				c-0.663-1.378,1.544-0.22,1.371-1.166C30.211,25.329,28.852,26.561,29.754,27.188z M31.705,29.592
				c-1.33,0.699-2.308-0.927-2.537-0.205C29.701,30.196,31.985,32.263,31.705,29.592z"/>
			<path fill="#010101" d="M43.087,32.861c-0.136,1.918-1.147,3.063-3.035,3.433c2.748,0.735,5.667,1.277,6.396,4.295
				c2.171-10.212,21.505-4.652,14.456,6.325c-1.553,0.666-2.413,1.944-3.798,2.758c-1.732,0.421-2.414-0.345-3.638-0.498
				c0.863-1.121,2.282,0.362,3.212-0.558c4.672-1.797,5.393-8.419,1.808-11.653c-7.006-2.908-13.11,2.6-10.25,9.287
				c-1.402-0.57-2.534-3.137-1.746-4.942c-2.556-1.514-3.422-4.084-6.711-3.555c-3.915,0.629-5.301,5.873-2.997,9.922
				c-4.167-2.313-2.034-9.814,2.234-10.597c-0.783-0.78-2.992,0.053-4.334-0.094c-0.324-0.789,1.589-1.248,0.25-1.819
				C37.927,34.276,39.682,30.314,43.087,32.861z M37.493,35.729c0.678-0.193,1.538-0.225,1.371-1.167
				C37.961,34.557,37.773,35.183,37.493,35.729z"/>
		</g>
	</g>
</g>
</svg>
