<?xml version="1.0" encoding="utf-8"?>
<!-- Generator: Adobe Illustrator 15.1.0, SVG Export Plug-In . SVG Version: 6.00 Build 0)  -->
<!DOCTYPE svg PUBLIC "-//W3C//DTD SVG 1.1//EN" "http://www.w3.org/Graphics/SVG/1.1/DTD/svg11.dtd">
<svg version="1.1" id="Layer_1" xmlns="http://www.w3.org/2000/svg" xmlns:xlink="http://www.w3.org/1999/xlink" x="0px" y="0px"
	 width="160.043px" height="274.202px" viewBox="0 0 160.043 274.202" enable-background="new 0 0 160.043 274.202"
	 xml:space="preserve">
<g>
	<path fill="#F6F6F6" stroke="#231F20" stroke-width="2" stroke-miterlimit="10" d="M90.584,1.664
		c-4.282-1.472-9.333-0.333-11.333,1.833c-4.334-2.667-8.834-3.333-16.5,4.833c-3.333,2.333-5.5,6.833-5.5,8.833
		s-1.667,5-1.333,7.333s0.667,3.5,0.333,4.667s-1,3.833-0.5,4.833s1.167,2.833,1.167,3.333s-0.167,10.833-1.5,14.833
		c-5.167,19.333-4.833,27-1,30.667s10.834,8,10.667,9.667c-3.5,2-3.167,4.333-3.167,4.333s-3.166,0.333-4.833,3.5
		c-7.167,11.333-9.167,16.333-11.667,18.333s-2.333,2.5-1.167,3.167s4.667,2.833,4.667,2.833s-4,6.333-4.833,5.833
		s-10.333-11.167-11.333-13s-1.167-3.5-1-4s1.833-8,1.5-10.5s-1.834-10.5-3.667-4.833s-1.667,4.667-1.667,4.667
		s-0.833,0.167-1.333-0.833s-4.667-7.5-5.5-8.333s-8.667-6.5-9.5-5.333s-1.333,3-0.167,5.167s1.167,2.167,1.167,2.167
		s-5.167-6-7.667-4.167s1.667,7.667,1.667,7.667s-4.667-3.5-5.5-1.167s4.667,11,6.5,13.333s13.833,18.167,15.667,19.667
		s18.167,21.5,24.5,16.833c3-1.5,4.5-5.333,4.5-5.333s-3.167,14-3.167,17.5s-2.833,10-4.333,11.333s-1.333,2.5,7.167,4.5
		c-3.5,15.333-4,31.833-4.333,35.333s-4.333,18.668-5.833,20.834s-1.5,2.166-1.5,2.166l0.833,0.5c0,0-4.667-0.167-6.667,1
		c-6.333,4.167-7.167,10.501-8,14.834s-0.833,4.333-0.833,4.333l0.667,0.833c0,0-1.5,1-1.667,2.667s-0.333,3.667,1.5,4.667
		s7,2.666,13,3.166s12.167,0.667,12.167,0.667s1.167-0.167,1.5-0.667s2.167-1,2.167,0s1.667,3,3,3s6.667,0.668,7.5-1.166
		s0.833-3.5,0.833-3.5s3.667-4.501,4.5-9.834c1.667-9.167-2.833-14.667-2.833-14.667s0.834,0.167,1.167-0.833s2-8.166,2.833-12.333
		s3.834-15.501,4.167-16.167s1.833,1.001,1.833,2.834s1.501,11.166,2.334,14.666s1.666,8.334,1.666,9.834s1.834,1.5,1.834,1.5
		s0.166,1-0.834,1.833s-7.167,6.834-6.333,15s2.333,10.166,2.333,10.166s0.001,3.334,0.667,3.834s2,1.166,2,1.166
		s12.666,2.667,20.833,1.334s10.334-2.333,10.834-3.5s0.833-4.667,0.833-4.667s2.666-6.999,1.333-12.833
		s-10.833-11.834-10.833-11.834l2.167-1.166c0,0,0.833-1.001,0.833-1.667s-1.166-8.5-0.833-12.333s-0.501-17.501-0.834-23.334
		s0.501-18.166,0.167-21.5c-0.334-3.333-0.167-10.333-0.167-10.333s0.001-3.167,2.167-3s1.832-0.167,2.166-2.167
		s-1.167-8.333-1.333-11.5s-1-9-0.5-9.833s6.501,6.5,9.334,6c17.333-8,27.333-25.667,30.333-29.167s7.833-13.833,8.833-16.333
		s2.834-7.667,1.834-8.333s-3.834,2.667-3.834,2.667s1.5-6.167,0-7s-6.5,4.667-6.5,4.667s1.334-6.5-0.833-7
		s-4.999,6.167-6.833,8.833s-4.667,5-4.667,5s0.333-3.833-1-3.833s-3.5,3.667-3.5,7.167s-0.667,9.833-2.167,12
		s-9.166,11-10.833,10.667s-5-5.333-5-5.333s1.333-1.5,2.333-2.167s1.5-0.833,0.667-2.333s-5.001-11-7.167-14.833
		s-6.5-8.667-15.833-8c-0.167-0.833,0.167-0.667-1.333-1.5s-3.167-2.167-3.167-2.167s0.999-2.333,2.333-3.167
		c6.834-7,10.167-16.5,11.167-20.833s1.167-6.167,1.167-6.167s2.5,1.167,3.5-0.5c2.833-5.333,1.834-11.5-1-14.167
		c1.5-3.167,2.666-8.333,1.166-9s2.168-3.166,1.834-5.333s-0.333-4.833-2.5-7.333c1-2.5-0.167-3.833-0.167-3.833s-1.167-8.166-5-9.5
		s-2.167-1.5-2.167-1.5s0.334-1.5-1.333-1.667C98.084,6.164,95.917,3.497,90.584,1.664z"/>
	<path fill="#7B7C7C" d="M51.917,175.831c25-0.167,42,0.333,46.5-2.917s7.5-3.25,7.5-3.25l1.25,2c0,0-1.75,21.167-1.5,25.5
		s1.25,20.5,1.25,23.25s0,7.25,0,9s0.667,7.75,0.667,7.75s-1.167,0.75-2.167,1.25s-12,0.75-17.5,0.75s-6,0.168-6-1.166
		s-2.875-11.834-2.625-16.084s-1.625-9.25-1.625-11.25s-0.5-1-1.5,2s-4,8-4,10.5s-3.25,13.25-3.25,14s-2,2.75-2,2.75
		s-5.75,1.25-12.75-0.75s-13.083-4.5-13.083-4.5s1.083-3.5,2.083-6s3.084-11.5,4.417-17.5s-0.167-11.5,1.333-17
		S51.917,175.831,51.917,175.831z"/>
	<path fill="#7B7C7C" d="M56.917,37.331c0,0,0.5-1.917,0.5-4.667s0.5-8,1.25-8.25s3,0.75,3.25-0.5c2.25,0,4-0.5,5.25-3
		c2.75,2.25,3.5,2.75,4.75,2.75s3.75,1.25,6,1.25s4,0,5.5-1.25s1.75-2,3.25-2.5s6,0,6.25-1.75s2-2,2-2s-1,3.75-0.25,4.75
		s1.75,2.75,3.75,5s3,4.25,2.5,6s-2,3-1,4.25s1.25,2.25,1,3s-1,4.5-1,5.5s0.25,2,1,2.5s-0.5,0.75,0.75,0.5s1.416-0.917,3-1.25
		s2.25,0.75,2.5-3.25s0.5-7.25,0.5-7.25s1.25-2.25,1.25-5.5s-2.166-6-2.166-6s-1.334-7-1.834-9s-2-3.5-4.25-4.5s-2.583-3-2.583-3
		s1.167-5.25-7.5-7.5S79.251,3.497,79.251,3.497s-5.834-2.833-10.834,0.667s-5.5,4.75-6.5,5.75s-2.25,0.5-3,3.75s-2,4.5-2,6.25
		s-1,4.583-1,4.583s-0.5,6.667-0.75,8.417s1.5,5.25,1.5,5.25L56.917,37.331z"/>
	<g>
		<g>
			<path fill="#010101" d="M99.757,10.204c-0.152,0.752,0.247,0.953,0.36,1.44c4.891,0.597,6.959,6.733,6.479,10.44
				c0.086,0.633,0.619,0.821,1.439,0.72c-0.081,0.519-1.074,0.125-1.08,0.72c-1.477-2.596-2.225-7.092-3.6-9.36
				c-0.723-1.918-4.401-0.878-4.682-3.24c-1.291,0.131-1.318,0.966-2.52,0.36C96.525,9.805,97.73,10.493,99.757,10.204z"/>
			<path fill="#010101" d="M93.998,15.604c1.014,0.068,0.984,1.175,1.8,1.44c-1.854,0.963-3.274,4.087-5.399,3.6
				C91.72,19.085,94.164,18.649,93.998,15.604z"/>
			<path fill="#010101" d="M95.078,18.483c0.419-0.059,0.641,0.079,0.72,0.36c1.136,1.396-0.687,2.244-0.358,3.96
				c0.945,4.323,6.576,6.602,6.119,10.08c-1.529,0.33-1.537-0.863-1.439-2.16c-2.307-2.254-4.646-4.475-5.76-7.92
				C94.572,20.987,95.171,19.701,95.078,18.483z"/>
			<path fill="#010101" d="M87.877,20.644c-1.985,0.415-2.388,2.412-4.319,2.88C84.183,21.904,85.629,19.471,87.877,20.644z"/>
			<path fill="#010101" d="M107.318,24.244c0.629,0.784,0.689,3.713,2.52,4.32c-0.212,1.108-0.092,2.548-1.439,2.52
				c0.565-2.019-0.754-4.583-2.521-5.4C105.993,24.838,106.992,24.877,107.318,24.244z"/>
			<path fill="#010101" d="M88.958,35.764c-0.418-0.059-0.642,0.08-0.72,0.36c-2.305-1.416-4.031-3.409-6.48-4.68
				C83.349,26.125,90.674,31.48,88.958,35.764z M87.877,33.244c0.063-0.818-1.216-2.098-1.438-1.44
				C87.363,31.838,86.953,33.208,87.877,33.244z"/>
			<path fill="#010101" d="M104.078,35.043c1.15-0.025,2.619,0.579,1.8,1.44C105.001,36.28,104.025,36.175,104.078,35.043z"/>
			<path fill="#010101" d="M74.917,39.724c3.295-4.2,15.779-3.927,13.32,5.04c-1.313-4.687-3.121-7.584-8.641-6.48
				c-5.019,1.004-6.021,7.352-3.24,11.52c-2.559-2.071-6.422-5.622-11.159-3.24c-4.902,3.339-0.964,9.795,3.239,11.16
				c0.006,6.605-4.625,8.573-6.84,12.96c5.787,4.004,18.012,2.083,23.041-2.52c-0.236,1.324-1.328,1.793-2.16,2.52
				c0.258,5.556-4.02,9.648-10.799,9.36c-2.341-1.38-3.539-3.902-4.681-6.48c-3.278,0.038-5.28-1.199-6.84-2.88
				c2.089-4.164,7.167-7.214,6.84-12.6c-3.226-1.267-5.192-4.287-5.76-7.2c0.938-3.743,3.962-4.764,4.68-7.92
				c1.828,1.412,4.313,2.166,6.84,2.88c0.843-1.938,1.199-3.655,0.72-6.12c-4.508-4.855-12.308,1.173-11.16,6.48
				C57.666,39.438,71.482,32.958,74.917,39.724z M68.797,73.923c1.084,9.146,13.813,3.444,12.959-2.52
				C79.185,72.671,72.249,74.622,68.797,73.923z"/>
			<path fill="#010101" d="M77.078,42.244c0.72,0,1.439,0,2.16,0c-0.016,0.616,0.268,0.933,0.72,1.08
				c-0.065,1.825-2.229,3.425-3.601,1.8C77.138,43.909,76.509,43.521,77.078,42.244z"/>
			<path fill="#010101" d="M88.958,46.923c-0.106,1.813-2.999,0.841-4.68,1.08c-2.897,0.462-4.72,2.001-7.56,2.52
				C79.679,47.67,84.708,46.639,88.958,46.923z"/>
			<path fill="#010101" d="M105.517,52.684c-1.955,0.064-2.752,2.872-4.319,2.16C102.455,54.081,103.453,51.476,105.517,52.684z"/>
			<path fill="#010101" d="M104.797,54.844c0,0.96,0,1.92,0,2.88C103.632,57.531,103.269,54.792,104.797,54.844z"/>
			<path fill="#010101" d="M84.638,66.003c1.291-0.916,2.715,1.113,2.521,2.88C85.824,68.417,86.142,66.298,84.638,66.003z"/>
			<path fill="#010101" d="M70.238,85.804c2.712,0.162,5.292,0.733,7.199,0.72C75.042,87.031,71.367,87.163,70.238,85.804z"/>
			<path fill="#010101" d="M149.437,93.003c1.211-0.356,3.803-2.433,5.761-3.24c1.55,0.944,1.286,4.414,0.359,6.48
				c1.06,0.565,1.979-2.09,3.96-1.8c0.943,5.287-3.108,8.633-3.239,14.04c-8.343,16.858-21.575,28.824-35.28,40.32
				c-6.264,2.276-9.656-1.898-11.88-5.76c-1.91,1.959,1.431,8.444-1.08,9.72c0.035-2.361-0.683-6.918-0.36-10.8
				c-3.133-4.395-7.305-7.56-8.279-12.6c5.752,6.231,9.623,14.224,16.201,18.72c0.51-0.031,1.019-0.06,1.078,0.36
				c7.692-1.65,14.125-9.632,20.521-15.48c10.001-9.143,18.102-22.906,21.6-37.08c-1.662-0.335-2.759,2.995-5.04,3.24
				c-0.152-2.554,2.093-4.317,1.44-7.92c-3.952,0.368-4.561,4.079-7.561,5.4c-0.076-2.659,1.496-4.97,0.359-7.56
				c-5.533,3.586-7.15,11.088-12.24,15.12c-0.445-1.614,0.271-2.522-0.359-4.32c-3.975,3.346-2.881,11.759-4.68,17.28
				c-3.48,4.199-6.529,8.83-11.16,11.88c-3.285-0.915-5.117-3.282-6.84-5.76c-4.688,2.153-9.94,3.739-15.479,5.04
				c-1.658-4.342-2.769-9.232-3.96-14.04c2.578,3.181,2.438,9.083,5.04,12.24c0.94,0.101,1.802,0.122,1.438-1.08
				c5.25,1.235,11.377-2.663,16.2-5.04c0.276,1.716-1.228,1.652-2.159,2.16c1.188,2.171,2.971,3.749,5.039,5.04
				c4.987-3.305,9.887-7.275,11.521-12.96c1.457-5.067-0.25-12.619,4.68-16.2c1.374,0.187,1.836,1.284,1.8,2.88
				c3.755-4.405,6.063-10.259,10.802-13.68C149.377,88.265,149.638,90.403,149.437,93.003z"/>
			<path fill="#010101" d="M94.718,95.523c15.418-0.179,17.932,14.468,22.319,24.12c-4.552-4.265-4.915-11.632-8.64-16.56
				c-2.517-3.328-5.459-4.782-9.721-6.48C97.16,96.442,94.767,97.153,94.718,95.523z"/>
			<path fill="#010101" d="M57.638,107.764c0.582-0.101,0.619,0.34,1.08,0.36c1.451,20.55-7.379,32.046-9.361,48.96
				C49.665,140.223,60.261,124.917,57.638,107.764z"/>
			<path fill="#010101" d="M79.599,137.645c-2.871,0.767-8.85,0.221-11.162,0.36C71.388,136.611,76.099,137.349,79.599,137.645z"/>
			<path fill="#010101" d="M82.118,141.963c-3.45,0.859-6.964-1.352-10.08,0.36c-0.413-0.127-0.913-0.634-0.36-0.72
				C74.838,140.66,79.197,141.483,82.118,141.963z"/>
			<path fill="#010101" d="M36.397,143.765c0.699-0.143,0.526,1.64-0.36,1.08c0-0.24,0-0.48,0-0.72
				C36.344,144.189,36.377,143.983,36.397,143.765z"/>
			<path fill="#010101" d="M50.438,247.443c3.536-3.896-2.373-6.728-3.24-9.72c-2.356-1.124-5.693-1.269-6.84-3.601
				c8.041,3.646,17.58,6.832,27.361,5.04c4.941-11.019,5.108-24.623,10.079-35.641c0.884,2.521-0.306,5.747,0,8.64
				c0.918,8.688,4.779,17.147,5.4,25.921c-2.392-3.271-2.522-8.698-3.601-13.319c-1.08-4.632-2.218-8.832-2.521-13.32
				c-4.119,8.001-4.418,19.821-7.92,28.44c-6.423,1.684-12.898,0.632-19.8-1.08c0.516,1.71,5.319,6.146,2.16,9.359
				c-4.035,0.848-3.986-3.385-5.04-5.399c-1.258-2.407-3.023-3.911-4.32-5.76c-1.843-0.197-2.896-1.186-4.32-1.801
				c-9.604,0.744-10.513,12.007-11.88,19.801c13.081,3.575,26.003,7.949,40.68,8.278c3.993-5.604,5.318-15.159,1.44-21.6
				c5.772,5.249,3.123,18.106-1.44,23.04c-14.166-0.527-26.639-5.479-40.68-7.92c-0.983,0.815-0.675,2.925-0.72,4.68
				c7.976,4.41,16.271,3.896,25.92,5.04c1.853,0.293,1.467-1.653,2.88-1.8c1.962,0.316,1.755,2.805,2.88,3.96
				c4.097,0.298,9.024,1.37,9-3.24c2.466,6.955-11.83,5.645-11.88,0.721c-1.199,0.121-1.17,1.471-2.52,1.439
				c-10.691-0.895-20.017-1.043-27.36-5.399c1.433-8.681,1.239-19.647,6.48-24.841c1.122-1.11,3.672-2.665,5.4-2.88
				C44.99,233.372,45.908,242.602,50.438,247.443z"/>
			<path fill="#010101" d="M100.837,237.725c1.364,0.613-0.781,0.593-0.72,1.08c-5.724-0.986-12.881,2.85-16.56-0.72
				C89.478,239.065,93.562,238.224,100.837,237.725z"/>
			<path fill="#010101" d="M78.877,3.724c-5.385-4.331-13.752,0.492-16.2,6.12c-0.798,0.198-0.513-0.688-1.08-0.72
				c-2.877,4.4-5.897,10.695-3.959,16.2c0.574-0.505,0.918-1.24,1.08-2.16c0.92,0.892,3.27,0.859,2.879-1.44
				c1.529-0.209,1.67,0.97,2.16,1.8c2.061-0.339,2.191-2.608,3.24-3.96c2.348,0.052,1.635,3.166,3.6,3.6
				c4.738,0.2,7.9,2.067,12.24,0.72c-1.449,0.233-2.913,1.71-4.68,1.8c-1.393,0.071-3.217-1.536-5.4-1.8
				c-1.945-0.235-5.119-0.091-5.039-2.88c-0.693,1.467-1.773,2.547-3.24,3.24c-2.526-0.953-2.108,0.044-4.681,0.36
				c-3.005,5.608-1.591,13.173-2.52,20.52c-0.879,6.953-3.688,13.205-4.68,19.44c-1.011,6.35-0.795,13.561,2.16,17.64
				c1.304,1.8,3.476,2.343,4.679,4.68c5.681,1.28,7.3,6.621,11.881,9c-1.27,1.418-4.008-1.686-5.04-2.88
				c-1.446,1.178-4.353,1.635-3.24,4.32c-0.582,0.102-0.62-0.34-1.08-0.36c3.374,1.787,7.403,2.917,10.8,4.68
				c-1.966,2.523-6.303-3.945-10.08-2.88c-1.05,0.09-1.242-0.678-1.8-1.08c-7.88,5.44-9.428,17.212-16.56,23.4
				c0.643,1.397,2.582,1.498,3.6,2.52c1.016,0.056,0.902-1.018,1.44-1.44c-0.471,2.366,2.416,2.63,4.32,3.6
				c-0.683,0.756-2.821-0.595-4.32-1.08c-1.736,1.863-2.974,4.226-4.68,6.12c-5.862-1.337-6.459-7.94-10.8-10.8
				c-0.393-1.887-1.621-2.939-2.52-4.32c-0.807-6.531,3.339-14.276-0.36-19.08c-1.617,2.104-1.817,5.623-3.24,7.92
				c-4.524-6.156-7.378-13.981-15.84-16.2c-1.392,3.631,0.915,5.558,1.8,8.64c-2.633-2.047-4.116-5.244-8.64-5.4
				c-1.565,3.687,2.492,6.546,2.16,9c-1.939-0.581-2.352-2.688-4.68-2.88c-0.982-0.262-0.725,0.715-1.44,0.72
				c0.709,4.131,4.544,10.192,7.92,14.04c4.774,5.442,9.046,11.216,12.6,16.92c0.924-0.231,1.252,1.712,2.88,1.8
				c0.031,0.511,0.06,1.019-0.36,1.08c3.823,2.574,7.678,8.135,12.24,11.16c-1.1,1.318-3.294-1.797-4.32-2.88
				c-1.894-1.391-4.894-3.446-5.04-5.4c-3.036-0.804-3.743-3.938-6.12-5.4c-0.417-0.533-0.417-0.908,0-1.44
				c-0.991,0.811-1.28-1.385-2.52-1.44c-4.88-10.84-15.386-16.054-18.36-28.8c1.042-1.373,3.551-1.235,5.04-0.36
				c-0.681-1.676-2.027-4.348-1.08-6.48c2.431-0.908,5.457,0.482,6.84,1.8c0.014-0.614-0.309-3.901,0.36-5.76
				c8.925,1.515,11.818,9.062,16.2,15.12c1.23-1.77,1.311-4.689,2.52-6.48c7.34-0.345,1.334,15.354,2.52,19.44
				c3.705,4.936,6.607,10.673,11.52,14.4c2.136-0.984,2.63-3.61,4.32-5.04c-1.238-1.282-3.544-1.497-5.04-2.52
				c1.681-4.144,5.136-7.737,7.56-12.24c2.355-4.375,4.723-8.848,7.56-12.6c3.181-0.659,4.726-2.955,6.479-5.04
				c-5.215-6.163-12.54-6.729-13.68-16.92c-1.459-13.042,5.785-25.173,5.4-36.36c0.168-0.769-0.514-0.686-1.08-0.72
				c0.28-0.8,0.756-1.404,0.72-2.52c-2.719-3.793,1.036-8.561-1.8-11.88c2.562,0.212-0.262-4.738,2.52-5.04
				c-0.015-1.185-0.607-1.792-0.36-3.24c3.558-7.362,9.159-12.682,18-14.76c1.531,0.149,2.729,0.629,3.6,1.44
				c7.191-3.623,16.572-1.137,20.16,4.68c-0.71,0.25,0.089,2.008-0.721,2.16c-0.637,1.021,0.319-0.925,0-1.8
				c-1.252-2.107-4.234-2.485-5.039-5.04c-2.104-0.658-5.685,0.164-7.2-1.08C83.22,2.066,80.427,2.271,78.877,3.724z M56.198,32.164
				c1.086,0.555,0.947-1.863,0.36-1.8C56.255,30.781,56.083,31.329,56.198,32.164z"/>
			<path fill="#010101" d="M68.797,30.363c-1.502,2.578-3.727,4.434-6.84,5.4c0.853-0.816,0.697-1.308-0.72-1.44
				C61.675,30.639,66.564,25.865,68.797,30.363z"/>
			<path fill="#010101" d="M89.318,92.645c-2.942,1.172-7.586,2.041-7.562,5.04c-1.646-0.44-1.997,1.496-3.239,0.36
				c2.791-2.37,5.777-4.542,9.721-5.76c2.398-5.281,8.848-6.512,9.72-13.32c3.381-3.819,3.562-10.839,5.04-16.56
				c0.029-1.35-1.318-1.321-1.439-2.52c1.994,0.405,1.918,2.882,5.041,2.16c2.721-3.104,2.832-11.916-0.722-14.4
				c-2.974-0.574-2.7,2.1-5.04,2.16c-1.027-1.57-0.254-2.807-2.16-3.6c1.684-1.97,0.782-4.432,2.521-6.48
				c-0.251-0.949-1.639-0.761-1.801-1.8c-0.192-1.994,0.483-3.116,1.08-4.32c1.858,0.951-0.646,2.343-0.359,3.96
				c0.568,0.661,1.225-1.634,2.16-1.8c-0.123,1.783-0.385,2.753-0.36,5.04c1.329-0.802,0.849-3.12,2.521-4.32
				c0.769-0.168,0.687,0.514,0.721,1.08c3.003-0.022,3.34-3.725,3.24-5.76c2.465,1.174,0.238,5-1.08,5.76
				c2.175,1.914,0.818,7.122-0.721,8.64c3.109,3.326,4.004,12.889,0.721,16.56c-1.223-0.098-2.92,0.279-3.602-0.36
				c-1.05,14.389-6.191,22.563-14.398,29.52c1.594,1.046,3.111,2.167,4.68,3.24c-0.65,3.188-4.385,3.295-6.84,4.68
				c0.322-1.838,5.997-2.032,6.12-3.96C93.375,94.346,90.107,94.155,89.318,92.645z M104.078,39.003
				c1.182,0.976,2.093,2.575,2.16,3.96c0.09,1.848-1.865,2.824-1.08,3.6c1.332-0.899,2.516-4.223,2.16-7.92
				C106.226,38.743,104.689,37.808,104.078,39.003z M101.558,49.083c-0.061-0.814,1.73-1.583,0.721-2.16
				C101.843,47.244,100.718,48.679,101.558,49.083z"/>
			<path fill="#010101" d="M50.438,143.403c0.715,3.598-2.822,6.055-6.84,6.12c-0.123-0.958-1.337-0.823-1.44-1.8
				C45.49,149.604,49.709,147.179,50.438,143.403z"/>
			<path fill="#010101" d="M37.118,145.563c0.089-0.391,0.716-0.244,0.72-0.72c0.568,0.632,1.653,0.747,1.8,1.8
				C38.69,145.62,38.272,145.938,37.118,145.563z"/>
			<path fill="#010101" d="M41.078,146.645c0,0.36,0,0.72,0,1.08c-0.519,0.192-0.878-1.403-1.08-0.36
				C39.094,147.21,40.344,146.335,41.078,146.645z"/>
			<path fill="#010101" d="M48.998,157.443c1.264,4.376-1.333,10.826-3.6,14.04C46.631,167.609,48.851,160.672,48.998,157.443z"/>
			<path fill="#010101" d="M105.517,170.043c-1.545-0.248-3.613,1.835-5.039,2.88c-15.512,4.073-32.334,4.722-47.521,2.88
				c-3.254,9.367-3.38,23.342-5.4,35.64c-1.354,8.246-3.152,16.183-5.4,22.681c-2.175-0.305,0.721-2.822,1.08-3.96
				c0.195-2.086,0.624-3.937,1.44-5.399c2.435-15.63,3.959-33.19,6.84-48.6c-1.915-1.813-5.706-1.088-6.84-2.88
				c11.592,3.142,30.568,2.317,44.28,1.08c8.322-0.751,15.561-3.711,18.359-10.08c1.051-0.09,1.242,0.678,1.801,1.08
				c1.765-2.172,0.044-3.859,0.359-7.2c1.537,1.76,2.244,5.442,1.08,7.92c-1.021,0.328-3.388,0.989-3.601,0
				c-1.616,6.396-0.47,12.881-1.08,20.88c-0.983,12.889,2.254,29.306,1.44,41.04c-0.387,5.555-2.105,9.801-4.32,13.318
				c-6.662,0.907-10.02,7.008-16.561,6.841c-0.822-0.865-0.062-2.178,0.359-2.881c0.605,0.515-0.458,1.953,0.721,2.521
				c5.606-1.593,8.525-5.874,14.76-6.84c0.431-0.624,0.68-2.207,1.439-1.44c4.551-13.727,1.287-35.112,1.801-53.28
				C105.708,179.509,105.003,175.021,105.517,170.043z"/>
			<path fill="#010101" d="M96.877,239.523c-1.891,0.898-5.979,1.665-7.56,3.96C89.709,241.623,94.12,239.05,96.877,239.523z"/>
			<path fill="#010101" d="M108.398,242.765c4.846,1.77,8.248,7.011,8.279,13.68c0.022,4.903-2.947,9.368-2.521,13.682
				c-8.812,4.447-24.62,4.104-34.56,1.079c-1.761-5.571-3.395-11.046-3.602-17.279c1.456-4.61,2.738-11.362,7.92-13.32
				c-1.281,2.078-3.343,3.377-4.68,5.4c-2.664,5.555-2.336,14.499,0.359,20.159c9.241,2.881,28.172,3.496,34.92-2.521
				C117.214,255.063,114.197,246.067,108.398,242.765z M103.718,268.323c-8.15,0.518-17.127,1.687-23.761-0.72
				c-0.642,4.293,4.483,4.469,6.84,4.681c7.218,0.646,12.804-1.179,18.722,0c2.067-1.292,5.9-0.817,7.56-2.521
				c0.474-0.98,1.512-3.271,0.72-4.32C111.562,268.341,108.332,268.031,103.718,268.323z"/>
			<path fill="#010101" d="M107.677,242.045c0.139,0.471,1.161,2.189,0.36,3.6c-4.042,0.729-5.427-3.138-8.28-1.439
				c1.832-3.77,4.235,1.825,7.92,0.721c0.252-1.933-1.082-2.277-2.158-2.88C105.982,240.7,107.538,243.063,107.677,242.045z"/>
		</g>
	</g>
</g>
</svg>
