<?xml version="1.0" encoding="utf-8"?>
<!-- Generator: Adobe Illustrator 15.1.0, SVG Export Plug-In . SVG Version: 6.00 Build 0)  -->
<!DOCTYPE svg PUBLIC "-//W3C//DTD SVG 1.1//EN" "http://www.w3.org/Graphics/SVG/1.1/DTD/svg11.dtd">
<svg version="1.1" id="Layer_1" xmlns="http://www.w3.org/2000/svg" xmlns:xlink="http://www.w3.org/1999/xlink" x="0px" y="0px"
	 width="143.919px" height="317.666px" viewBox="0 0 143.919 317.666" enable-background="new 0 0 143.919 317.666"
	 xml:space="preserve">
<g>
	<path fill="#F6F6F6" stroke="#231F20" stroke-width="2" stroke-miterlimit="10" d="M109.6,7.82c10.75,3.5,16.75,21.5,16.5,37
		s4.25,24.75,5.75,26.5s4.25,2.5,4.25,2.5s0.25,2.5-10,3s-19.25-9.5-23.75-15.75c-1,2-3.75,8.5-5.25,10.25s-3.75,9.5-3,11
		s1.5,4.75,7.75,6s16.25,12.25,18.75,14.5c7,5.5,9.5,14.75,12.75,17.75s9.5,15.5,9.5,17.25s-3.25,9.25-4.5,11.75
		s-5.75,8.75-5.75,8.75l-0.5,2.5l2.25,1.5c0,0,2.5,2,2.75,4s-1.5,4.25-2.25,6s-2,2.5-5.25,4.25c-4,4-10.75-5.5-12.5-8.75
		s2-16,3.75-19.75s3.25-9.5,4-10.75s-3.25-4.75-4.5-6.25s-6.5-6.25-6.5-6.25s-2.25,6.75-4,11s-2,13.75,1,20.75
		c3,7,5.5,12.5,5.5,12.5l-2,1.75c0,0,6.5,8.75,6.75,19s-5.5,29.5-5.75,39.25s0.5,26.75,2.5,30.75s4,7.75,4,7.75l-3,0.75
		c0,0-0.75,1-0.75,3.5s4.25,10,3.25,17.25c7.25,2,6.75,9.75,6.75,13s-5.25,5.5-6.5,5.5s-1.75-1.75-1.75-1.75s-1.5,2.25-8.75,6.75
		c-13.25,8.75-24,1.25-25.25-2s12.25-14,12.25-14s4.5-2.25,6.75-10s-1.5-11.75-1.5-11.75s-4.5,1.5-7,2.25c3.25-7.5-6-18-9.5-32
		s-0.75-26-2.5-28.5c-1.5,0-4.5,6.5-8.25,15s-3.25,11.75-11.75,29c-2,3.5-2.5,6.5-2.5,6.5h-1.5l-2.25-0.25c0,0-7.5,13.75-10.5,27.5
		c-0.75,4.25-3,8.75-5.5,12s-7.75-0.5-8.5-0.5s-1-3.75-1-4.5s-1.75-0.25-3.25,0.75s-7.25-1.75-16.75-6.75s-12.75-10.5-11.25-12.75
		c7.25-9.75,22.25-1.75,22.25-1.75s5.5,0.5,9.25,0.25s7.25-7,10.25-19.75c-4.25-1.25-6.75-2.75-6.75-2.75s4.5,0.5,9.75-17.5
		s3.25-34.25,9.25-49.75c1.25-6,8-19.5,8-19.5l-2.75-2c0,0-1-1,1.75-5c2.75-4,0-11-0.75-13.5s-2.5-9.75-2.5-10.5
		s-0.75-5.25-1.5-6.75s-4.5-7.5-5.5-7.5s-9,4-19.5,8.25s-9.25-9.75-8.75-14.5s16.5-27.75,19.25-32s11-18,11-18s-4.25-0.75-5-0.75
		s-1.25-0.25-0.5-1.25c2.75-1.5,6.5-15.5,6.5-20.25s1.5-13.5,4.25-19.5c-9.25-0.5-13.75-9-14.75-10s-5.25-4.75,0-2.25
		s12.25-1.25,15.25-3.25S72.6,1.82,82.6,1.07s13.75,4.75,13.75,4.75S98.85,4.32,109.6,7.82z M54.6,80.07
		c1.5,2.25,4.5,10.5,1.25,16.25s-9,6-10.5,7s-4.75,11.75-4.75,11.75s5.5-2.75,12.25-10.5S71.1,88.32,71.1,88.32s2.75-1.5,3.5-2.5
		s1.25-3.25-3-5.75c-6.75-4-10-10.25-10-10.25s-1.5,0.25-4,0.25C57.6,70.07,55.6,75.82,54.6,80.07z"/>
	<path fill="#C6C7C9" d="M62.6,32.904c3.482-1.968-0.166,5.167-0.666,7.5S58.6,53.737,58.6,56.571s1.666,9.5,2.5,11.167
		s0.5,2.083,0.5,2.083l-4,0.25c0,0,0.313-1.013-0.26-1.84c-0.573-0.827-2.406,1.34-2.406,1.34s-2.166,0.167-3.5,0s-2.334,0-2.334,0
		s7.334-9.167,8.667-17.5S58.859,35.017,62.6,32.904z"/>
	<path fill="#C6C7C9" d="M96.767,6.737l-4.667,5.5c0,0,4-2.667,6.5-0.167s6.001,4.5,4.834,20.667s8.166,34.333,19,37.667
		s10.166,1.667,10.166,1.667s-7.666-11-6.833-17.833s0.667-27.5-7.833-38.667S96.767,6.737,96.767,6.737z"/>
	<path fill="#C6C7C9" d="M97.267,6.07c0,0-8.667-6.667-14.667-5s-14.999,6.333-19.666,9.833s-15.667,8.333-20.167,5.333
		c10,8.167,18.667,11.167,28,7.333s11.334-7.667,15.667-8.333S97.267,6.07,97.267,6.07z"/>
	<path fill="#C6C7C9" d="M65.6,92.82c0,0,5.75-4.75,8.25-5.75c-0.5,3-3.55,4.56-3.55,4.56s2.55,2.44,4.05,4.19s3.87,5.53,3.87,5.53
		s2.88-2.78,5.13-4.78s7.35-5.89,8.551-7.82c1.199-1.93,3.199-3.43,3.199-3.43s3.75,2.5,5.75,2.75c1.25,3.75,2.25,27.25,7.25,34.5
		s4.5,5.5,4.5,5.5s-4,11.5-4,15.25s-1,5.75,0,8.5s6,13.75,6,13.75l1.78,3.102c0,0-10.78,11.148-28.78,10.648s-26.25-8.5-26.25-8.5
		l-0.75-1c0,0-1.75,0,0-2.5s2.25-1.5,2.25-4.75c0-3.25,1.5-5.5,0.5-7.5s-2.76-4.59-3.13-6.92s-0.069-4.85-0.72-6.84
		c-0.651-1.99-0.4-4.24-0.9-5.24s-2.75-5-3.5-6.25s-3.25-6.75,0-13.75s6.5-8.75,7-11.25S67.1,99.07,65.6,92.82z"/>
	<g>
		<g>
			<path fill="#010101" d="M104.14,26.47c-1.741-3.726-0.803-8.746-2.88-11.52c-1.77-2.152-3.895-3.142-6.479-2.88
				c-3.894,0.395-5.944,5.288-8.642,5.04c3.093-3.409,7.437-7.76,12.24-6.12C103.414,12.709,104.955,19.32,104.14,26.47z"/>
			<path fill="#010101" d="M90.82,27.55c1.625,2.086-0.324,5.274-2.16,6.12c2.151,5.994-1.451,13.4-7.561,12.24
				c4.811,0.535,9.102-6.499,6.48-11.16c-0.68,0.641-0.267,2.374-1.801,2.16c-2.154,0.488-3.218-4.06-0.721-3.96
				c-6.035-1.723-8.895,8.749-5.398,12.24c-5.67-1.137-0.396-12.151,2.879-13.68c1.439,0,2.881,0,4.32,0
				C88.936,30.946,89.22,28.59,90.82,27.55z"/>
			<path fill="#010101" d="M103.42,29.35c0.58-0.102,0.619,0.34,1.08,0.36c-1.946,21.039,6.465,34.479,19.8,41.4
				c1.644-0.203,2.242,0.638,3.96,0.36c-4.677,1.466-9.283-1.909-12.6-4.68C106.283,58.955,102.58,47.182,103.42,29.35z"/>
			<path fill="#010101" d="M71.74,42.31c1.592,3.071-4.472,4.62-6.119,6.84c-0.778,4.297,6.632,2.195,5.039,6.12
				c-1.082,0.363-0.639-0.802-0.721-1.44c-3.344,0.224-4.328-1.912-5.76-3.6C65.106,45.997,70.701,46.431,71.74,42.31z"/>
			<path fill="#010101" d="M78.22,66.07c-3.582-0.109-6.168,1.053-9.36,2.16C69.828,65.803,75.669,64.528,78.22,66.07z"/>
			<path fill="#010101" d="M58.06,67.15c1.194,3.942-2.637,8.478-3.601,12.6c6.498,6.854,3.84,22.001-7.199,23.04
				c-5.033,3.324-5.119,11.57-8.641,15.48c0.865-5.627,4.131-11.939,7.561-16.2c10.423-0.475,13.533-14.767,6.84-22.32
				c1.458-3.822,3.674-6.888,4.32-11.52c-5.051,2.75-6.297,9.303-10.08,13.32c-4.736,10.29-13.339,21.576-19.439,32.76
				c-4.089,7.495-8.693,17.728,1.439,21.6c7.287-2.072,13.352-5.368,19.439-8.64c-0.211,3.152-5.938,3.9-8.641,5.76
				c-3.652,0.465-6.822,4.369-10.439,4.32c-3.56-0.048-4.944-3.544-7.561-5.76c-1.322-8.208,3.952-16.99,7.92-23.4
				c3.645-5.887,8.932-13.66,12.96-20.52c1.689-2.875,3.974-6.52,6.12-10.08c2.713-4.497,5.085-9.204,7.92-10.8
				C57.27,66.981,57.564,67.166,58.06,67.15z"/>
			<path fill="#010101" d="M102.34,89.47c0.392,12.983,2.54,29.322,9.72,37.8C103.205,120.036,100.88,101.679,102.34,89.47z"/>
			<path fill="#010101" d="M78.22,101.35c-3.813-1.707-3.634-7.407-7.92-8.64c0-0.36,0-0.72,0-1.08
				C74.301,92.092,76.152,97.762,78.22,101.35z"/>
			<path fill="#010101" d="M96.939,131.591c-2.433,0.807-4.851,1.628-7.92,1.8C90.074,131.636,95.537,130.614,96.939,131.591z"/>
			<path fill="#010101" d="M123.939,176.591C126.826,176.714,125.275,178.264,123.939,176.591L123.939,176.591z"/>
			<path fill="#010101" d="M47.979,294.671c0.419-0.06,0.642,0.079,0.722,0.359c-0.948,3.612-2.592,6.529-4.682,9
				C45.335,300.906,47.052,298.182,47.979,294.671z"/>
			<path fill="#010101" d="M46.9,20.71c0.375,1.91,4.518,3.159,6.119,5.04c12.086,4.274,28.039,0.802,33.84-7.56
				c0.233,2.745-2.961,4.014-5.039,5.4c-2.273,1.517-4.693,2.837-6.841,3.96c-4.414,0.778-9.032,1.492-14.04,0.72
				c-7.195,11.751-3.594,30.637-12.96,40.68C54.33,58.804,54.035,40.765,59.5,28.27c-6.303-1.136-11.149-3.73-14.76-7.56
				c-0.572-2.549-3.559-2.682-3.24-6.12c2.48-0.432,4.154,1.633,6.479,1.8c9.695,0.697,17.472-10.271,26.28-13.68
				c7.541-2.919,17.494-3.7,22.32,2.16c5.269,0.132,9.061,1.74,13.68,2.52c12.486,7.235,14.918,24.938,16.2,42.84
				c0.587,8.195,1.655,14.624,4.319,20.16c-5.453-5.733-4.478-15.413-5.04-24.48c-1.261-20.292-8.02-40.892-29.521-39.96
				c-1.564-1.675-3.963-2.517-5.76-3.96c-18.852-3.753-26.375,13.631-40.32,15.48c-2.538,0.336-4.68-0.126-6.479-1.44
				c5.75,10.018,28.931,11.051,37.08,1.44c0.432-0.504,0.14-0.031,0,0.36C74.806,26.396,55.423,28.4,46.9,20.71z"/>
			<path fill="#010101" d="M103.06,61.39c-1.034,5.5-9.717,14.529-9.358,19.44c0.232,3.21,3.614,3.856,5.76,6.12
				c1.318,0.21,1.453,0.175,3.24,0.36c9.014,4.983,17.107,11.993,24.479,21.96c2.949,3.988,5.209,9.072,8.641,14.4
				c2.744,4.262,9.257,11.563,7.92,16.56c-1.878,7.019-8.222,13.1-11.521,19.8c0.85,2.39,4.028,2.452,5.04,4.68
				c1.695,5.642-5.3,13.109-10.8,12.6c4.796-0.656,10.608-6.079,9.72-10.438c-0.559-2.739-3.193-3.388-5.04-5.761
				c1.949-7.898,10.021-12.776,11.521-22.321c-5.793-12.882-13.076-25.434-22.32-35.64c-5.27-5.817-10.748-10.682-18-14.76
				c-3.843,0.425-6.458-3.014-9-5.04c0.06-0.418-0.079-0.641-0.36-0.72c-0.097-4.691,2.082-8.058,3.961-11.88
				c1.639-3.333,4.854-6.795,5.039-10.8c0.19-4.084-3.042-9.995-3.6-14.76c-0.563-4.816,0.605-10.026,0-14.04
				c-0.814-5.403-5.561-10.388-10.08-11.88c6.271-1.436,8.993,6.819,11.16,11.88c-2.356,18.866,4.955,43.993,26.279,45
				c3.484,0.165,7.866-1.162,9.721-2.16c0.714,0.392-1.462,0.91-1.44,1.8c-2.967,0.738-5.476,1.607-8.278,1.44
				C114.684,76.572,107.037,69.866,103.06,61.39z"/>
			<path fill="#010101" d="M41.5,115.031c8.473-8.568,16.882-20.318,29.16-26.28c0.801-0.759,1.816-1.302,2.16-2.52
				c0.358,0,0.719,0,1.078,0c-0.068,1.25-1.271,1.367-1.438,2.52C59.416,94.787,52.471,106.921,41.5,115.031z"/>
			<path fill="#010101" d="M76.42,83.35c-1.079,2.76-1.246,6.434-4.32,7.2c1.182-2.179,2.717-4.004,2.88-7.2
				c-7.929-5.054-16.053-11.97-16.92-23.04c-0.608-7.778,2.349-14.725,3.96-22.68c-0.339-3.118,0.486-3.148,0-6.12
				c1.61,0.922,1.184,3.726,1.08,5.04c-0.609,7.792-4.382,15.286-3.96,23.04c0.573,10.536,7.142,16.353,14.761,21.96
				c1.229,0.271,0.457-1.462,1.801-1.08c0.302,0.417,0.475,0.965,0.358,1.8c7.021-0.059,11.114-3.046,14.761-6.48
				C89.209,80.06,83.066,82.915,76.42,83.35z"/>
			<path fill="#010101" d="M91.9,88.75c-2.074,4.406-7.891,8.188-12.24,11.52C82.801,95.491,88.566,93.337,91.9,88.75z"/>
			<path fill="#010101" d="M63.82,172.27c-15.06,24.995-9.272,63.057-25.561,86.4c-0.253-2.179,1.813-5.144,3.24-6.84
				c11.019-24.354,8.051-57.488,21.6-79.92c-1.436-0.866-2.033-3.416-3.96-1.802c6.724-5.718,2.962-14.745,1.08-21.959
				c-0.569-2.184-0.349-4.629-0.72-6.84c-0.959-5.713-4.93-9.867-6.12-14.04c-1.593-0.152-2.523,0.357-3.24,1.08
				c-0.646-0.904,1.815-1.771,2.88-2.16c-0.67-14.241,10.438-19.796,12.96-32.04c1.448,1.526-1.542,4.64-1.438,7.2
				c-2.541,6.835-11.342,13.778-10.801,22.68c0.326,5.351,4.275,8.56,6.119,13.32c-0.363,10.961,7.096,17.848,3.24,27.721
				c-0.24,0.615-2.156,3.313-2.16,3.239c0.141,3.939,15.365,9.918,21.24,10.44c4.756,0.423,10.596,0.025,14.04-0.722
				c8.063-1.747,16.08-4.625,20.16-10.079c-3.711-9.759,6.748-21.406,7.92-30.241c0.448-3.374-8.049-9.312-10.08-12.6
				c-2.151,6.767-6.528,14.842-5.76,23.04c0.458,4.886,3.201,7.892,4.68,12.24c-10.251-7.85-3.944-26.769,0.36-36.36
				c4.416,3.744,8.577,7.743,11.88,12.6c-1.724,9.197-6.643,15.198-8.641,24.12c-0.407,6.861,2.771,10.211,6.12,14.76
				c-2.688-0.315-4.189-4.928-6.479-6.84C107.063,181.646,75.652,183.677,63.82,172.27z"/>
			<path fill="#010101" d="M98.38,276.31c3.368-2.75,8.918-3.321,12.6-5.76c0.378-3.508-1.487-6.252-0.358-9.36
				c2.992,1.087,3.335,4.825,5.76,6.48c1.488-0.035,2.639-0.453,4.32-1.08c-5.394-12.184-7.114-26.995-5.762-41.76
				c1.826-19.917,11.021-38.273,0.36-54.36c14.486,18.396-2.122,46.436,0.36,71.641c0.896,9.107,2.588,16.681,6.119,25.199
				c-1.5,0.901-3.647,1.152-5.399,1.801c-2.101-1.739-3.107-4.572-5.04-6.479c-0.437,3.416,0.961,5.405,1.08,9
				c-3.471,0.129-4.665,2.535-7.92,2.88c1.324,3.475,2.998,6.601,2.52,11.88c-1.186,4.937-5.969,6.271-7.199,11.16
				c7.7,7.797,17.744-2.336,21.601-7.56c1.194-7.492-6.596-14.88-2.521-20.881c-1.431,6.233,3.992,12.385,3.96,20.521
				c-4.601,6.771-11.831,14.943-23.399,10.439c-0.041-1.278-1.331-1.309-1.08-2.88c-4.355,3.828-11.18,7.028-12.24,12.96
				c8.025,11.928,28.813,1.204,33.84-5.04c1.446-0.126,0.95,1.69,1.801,2.159c8.47-0.166,5.358-11.277,2.521-16.92
				c5.112,4.183,7.438,18.577-3.24,18c-1.124,0.165-1.149-0.769-1.08-1.8c-6.636,7.658-27.146,15.867-34.92,4.681
				c-0.374-3.375,1.259-4.742,2.16-6.841c8.873-6.389,24.572-16.298,15.84-29.52c-0.676,0.687,0.214,0.65,0,1.8
				c-0.306,0.065-0.339-0.142-0.358-0.36C102.291,273.652,99.803,277.781,98.38,276.31z"/>
			<path fill="#010101" d="M66.699,176.23c1.166,1.474-2.703,3.644-4.319,4.682C63.789,179.32,65.813,178.344,66.699,176.23z"/>
			<path fill="#010101" d="M103.781,178.03c4.293,4.468,8.739,8.78,14.76,11.521C112.838,187.931,106.343,183.988,103.781,178.03z"
				/>
			<path fill="#010101" d="M79.66,197.11c9.088,7.813,4.361,29.466,6.479,43.2c1.871,12.135,9.693,20.599,11.16,32.761
				c-4.662-14.065-12.803-26.449-12.96-42.119c-0.043-4.22,0.641-9.024,0-14.04c-9.589,11.291-11.438,33.441-20.88,46.08
				c-0.6,0.073-1.307,2.813-1.44,1.079c9.765-13.281,11.813-35.456,22.32-48.961c-0.028-3.995-0.354-8.641-1.8-12.238
				C81.572,200.46,79.49,199.142,79.66,197.11z"/>
			<path fill="#010101" d="M46.539,294.671c0.283,1.492-3.482,2.031-5.039,2.88c-7.34-0.424-19.797-5.259-22.32-9.359
				c-1.671-2.715-0.408-6.241,2.16-7.561c-5.7-1.909-14.697-3.921-18.72,0.72c-1.451,3.077,0.593,6.71,3.24,9
				c3.871,3.352,15.533,9.674,20.88,11.16c2.322,0.646,4.154-0.28,6.84-0.359c1.105,1.193-0.151,2.531,0.72,3.96
				c1.747,1.492,4.257,2.224,7.56,2.159c-2.673,1.815-7.307-0.271-9-1.8c0-1.08,0-2.16,0-3.24c-2.535,1.04-5.054,0.108-8.279,0
				c-3.625-2.101-8.379-4.549-13.32-7.56c-4.642-2.829-11.732-5.544-10.08-12.96c4.21-7.144,18.005-3.583,23.04-1.08
				c13.642,3.492,16.83-9.464,18.36-19.08c-1.795-1.206-5.618-0.382-6.48-2.52c5.908,0.932,11.09,2.59,16.561,3.96
				c2.699-1.741,2.178-6.703,4.319-9c1.031,1.922,0.165,8.046-0.358,10.8c0.529,2.17,3.722,0.813,3.959,2.52
				c-0.721,0-1.439,0-2.159,0c-3.862,8.139-7.362,16.64-10.44,25.562c0.611-9.471,5.945-17.335,9.36-25.2
				c-2.601-1.68-0.67-5.722-1.08-9.36c-1.154,1.967-1.511,4.729-3.24,6.12c-2.737-1.103-5.657-2.021-9-2.52
				c-2.257,6.929-3.665,17.646-11.521,20.159c-2.938,0.044-7.598-0.815-10.799-0.359c-2.521,1.839-2.313,4.229-0.36,6.479
				C24.998,292.406,39.223,299.177,46.539,294.671z"/>
			<path fill="#010101" d="M66.34,30.79c0.359,0,0.72,0,1.08,0c-0.022,1.223,0.422,1.978,1.08,2.52
				c1.941-1.237,2.535-1.888,5.76-1.44c0.709,1.311,2.523,3.099,1.439,5.04c-1.209,0.37-0.561-1.12-0.721-1.8
				c-0.652,0.919-1.538,1.819-2.88,1.08c0.028,0.016-0.278-0.875-0.295-0.93c-0.101-0.362-0.119-0.863,0.121-1.178
				c0.446-0.583,1.698-0.076,2.329-0.063c-0.444-0.525-0.985-1.011-1.647-1.235c-2.336-0.791-4.129,1.86-4.875,3.681
				c-1.021,2.493-1.239,5.721,0.407,8.005c-2.418-0.823-2.748-5.916-1.439-8.28C65.559,34.48,65.486,33.176,66.34,30.79z"/>
		</g>
	</g>
</g>
</svg>
