<?xml version="1.0" encoding="iso-8859-1"?>
<!-- Generator: Adobe Illustrator 15.1.0, SVG Export Plug-In . SVG Version: 6.00 Build 0)  -->
<!DOCTYPE svg PUBLIC "-//W3C//DTD SVG 1.1//EN" "http://www.w3.org/Graphics/SVG/1.1/DTD/svg11.dtd">
<svg version="1.1" id="Layer_1" xmlns="http://www.w3.org/2000/svg" xmlns:xlink="http://www.w3.org/1999/xlink" x="0px" y="0px"
	 width="792px" height="612px" viewBox="0 0 792 612" style="enable-background:new 0 0 792 612;" xml:space="preserve">
<g>
	<path style="fill:#FFFFFF;stroke:#231F20;stroke-miterlimit:10;" d="M388.065,336.999c0,0,2,1.332-1.333,2.666
		s-13.333,1.334-13.333,1.334l-2.667-1.334c0,0-8.667,0.666-8-2S388.065,336.999,388.065,336.999z"/>
	<path style="fill:#FFFFFF;stroke:#231F20;stroke-miterlimit:10;" d="M370.732,328.332c0,0,4,0.667,7.333,0.667s9.333-2,10,3.333
		s-1.333,6-8.667,6s-12,0-12,0s-4,1.333-4.667-0.667s2.667-9.333,2.667-9.333"/>
	<path style="fill:none;stroke:#231F20;stroke-linecap:round;stroke-linejoin:round;stroke-miterlimit:10;" d="M373.064,329
		c0,0-3,2-3,3.5"/>
	<path style="fill:#FFFFFF;stroke:#231F20;stroke-miterlimit:10;" d="M435.398,333.665c0,0,2,2.001-3.333,5.334s-12.667,2-12.667,2
		l-3.333-1.334l-7,1.667c0,0-1.667-2.999-1-4.333S435.398,333.665,435.398,333.665z"/>
	<path style="fill:#FFFFFF;stroke:#231F20;stroke-miterlimit:10;" d="M419.398,292.999c0,0-2,10.666-5.333,11.333s-9.333,0-9.333,0
		l-1.334-4.667h-22.667l-3.333,5.334c0,0-5.333,1.332-8,0.666s-14.667-0.666-16-7.333s4-7.333,4-7.333L419.398,292.999z"/>
	<path style="fill:#FFFFFF;stroke:#231F20;stroke-miterlimit:10;" d="M359.537,272.332h61.196c0,0,6,7.334,5.333,14.667
		s-9.333,6-9.333,6s-33.333,0.666-36.667,0.666s-22.667-2.666-22.667-2.666S355.008,272.332,359.537,272.332z"/>
	<path style="fill:#FFFFFF;stroke:#231F20;stroke-miterlimit:10;" d="M414.065,304.332l-2,7.333c0,0,2.667,2,2.667,4.667
		s0,2.667,0,2.667l-1.334,10l-4.666,0.666l-0.667-12c0,0-3.333-1.332-3.333-4.666s0-8.667,0-8.667H414.065z"/>
	<path style="fill:#FFFFFF;stroke:#231F20;stroke-miterlimit:10;" d="M373.399,304.999l-0.667,8c0,0,0.667,2,0,4
		s-2.667,4.666-2.667,4.666l0.667,6.667h-5.333l0.667-7.333v-8.667l-1.333-9.333L373.399,304.999z"/>
	<path style="fill:#FFFFFF;stroke:#231F20;stroke-miterlimit:10;" d="M408.732,329.665l-0.667,7.334l4.667,0.666
		c0,0,8.666,0.666,12,0c3.333-0.666,10.666-2,10.666-4s-1.333-6.666-1.333-6.666s-9.333-2.667-10.667-0.667
		c-1.333,2-7.333,3.333-7.333,3.333l-2.667-0.666L408.732,329.665z"/>
	<path style="fill:none;stroke:#231F20;stroke-linecap:round;stroke-linejoin:round;stroke-miterlimit:10;" d="M416.065,329.665
		c0,0-3.001,2.335-3.501,3.835"/>
	<path style="fill:#231F20;" d="M416.564,272c0,0,3,8,8.5,8l-2.072-8.826L416.564,272z"/>
	<path style="fill:#231F20;" d="M357.064,280c0,0,6,0,8.5,0s7-7,7-7l-7-1c0,0-7.5-1.5-8,4.5"/>
	<path style="fill:#231F20;" d="M419.949,275.877c0,0,4.195,13.961,6.707,17.074c2.511,3.113,1.582,5.147,1.582,5.147l11.928,14.789
		l1.708-2.662l-8.175-13.32l-2.523-6.314l-5.438-12.316l-4.084-6.127L419.949,275.877z"/>
	<path style="fill:#231F20;" d="M359.866,273.305l-8.614,11.562l-2.509,10.402l-4.01,7.757l0.798,2.571l2.96-1.112
		c0,0,5.952-9.331,6.393-13.551s3.38-8.534,3.38-8.534l5.27-6.203L359.866,273.305z"/>
	<path style="fill:#231F20;" d="M437.602,304.205l15.092,5.171c0,0,1.808,3.038,0.641,3.979c-1.168,0.942-3.905-0.062-3.905-0.062
		s8.313,8.712,5.978,10.596c-2.336,1.883-4.533-0.841-4.533-0.841s1.42,3.352-0.063,3.904c-1.48,0.553-4.381-2.247-4.381-2.247
		s0.564,4.684-1.23,4.847s-3.139-3.892-3.139-3.892l-5.363-13.02l-1.042-6.867"/>
	<path style="fill:#231F20;" d="M349.156,300.387l6.691,14.482c0,0-0.947,3.407-2.434,3.214s-2.653-2.865-2.653-2.865
		s-0.553,12.028-3.528,11.642c-2.975-0.386-2.524-3.856-2.524-3.856s-1.442,3.342-2.865,2.653c-1.423-0.689-1.404-4.72-1.404-4.72
		s-2.994,3.645-4.353,2.459c-1.358-1.184,0.644-4.958,0.644-4.958l5.705-12.873l4.244-5.499"/>
</g>
</svg>
