<?xml version="1.0" encoding="iso-8859-1"?>
<!-- Generator: Adobe Illustrator 15.1.0, SVG Export Plug-In . SVG Version: 6.00 Build 0)  -->
<!DOCTYPE svg PUBLIC "-//W3C//DTD SVG 1.1//EN" "http://www.w3.org/Graphics/SVG/1.1/DTD/svg11.dtd">
<svg version="1.1" id="Layer_1" xmlns="http://www.w3.org/2000/svg" xmlns:xlink="http://www.w3.org/1999/xlink" x="0px" y="0px"
	 width="792px" height="612px" viewBox="0 0 792 612" style="enable-background:new 0 0 792 612;" xml:space="preserve">
<g>
	<path style="fill:#FFFFFF;stroke:#231F20;stroke-miterlimit:10;" d="M455.648,315.402c0,0,7.264-5.406,7.535-9.324
		c0.262-3.91-9.658-1.719-11.627-1.846"/>
	<path style="fill:#FFFFFF;stroke:#231F20;stroke-miterlimit:10;" d="M450.397,300.982c0,0,4.864-3.62,5.046-6.243
		c0.176-2.619-6.468-1.151-7.785-1.236"/>
	<path style="fill:#231F20;" d="M448.453,319.827c0,0,7.517-1.941,7.195-4.425c-0.32-2.483-2.584-12.483-2.584-12.483l-3.986,0.709"
		/>
	<path style="fill:#231F20;" d="M415.916,275.861c-45.139,2.778-49.485,45.426-49.485,45.426l-38.194,1.083
		c0,0,21.708,40.296,59.208,43.074h64.583c0,0,5.903-67.013-11.805-84.722c0,0-2.084-14.583-11.111-18.056
		S415.916,275.861,415.916,275.861z"/>
	<path style="fill:#FFFFFF;stroke:#231F20;stroke-miterlimit:10;" d="M415.792,277.53c-43.154,2.656-47.287,43.166-47.287,43.166
		l-36.515,1.035c0,0,20.73,38.787,56.582,41.442h61.743c0,0,5.644-64.065-11.286-80.996c0,0-1.992-13.941-10.623-17.262
		C419.775,261.597,415.792,277.53,415.792,277.53z"/>
	<path style="fill:#FFFFFF;stroke:#231F20;stroke-miterlimit:10;" d="M389.527,324.473c0,0,0-4.861-1.389-6.945
		s-5.555-2.777-7.639,0s-7.819,0.287-7.819,0.287l-4.86-5.555l-4.168,6.25l-8.332-11.806l-5.557-1.39l-15.277,14.89L389.527,324.473
		z"/>
	<path style="fill:#231F20;" d="M325.459,319.593c62.123-5.116,61.146,6.438,71.707,4.574c11.807-2.084,13.195,4.472,13.195,4.472
		s-23.611,0-32.639,0c-9.028,0-43.236-6.963-49.486-6.269S325.459,319.593,325.459,319.593z"/>
	<g>
		<circle style="fill:#231F20;" cx="407.236" cy="291.486" r="9.375"/>
		<circle style="fill:#231F20;" cx="393.181" cy="293.486" r="5.671"/>
		<circle style="fill:#FFFFFF;stroke:#231F20;stroke-miterlimit:10;" cx="406.447" cy="291.486" r="7.946"/>
		<circle style="fill:#FFFFFF;stroke:#231F20;stroke-miterlimit:10;" cx="394.534" cy="293.182" r="4.807"/>
	</g>
	<circle style="fill:#231F20;" cx="391.611" cy="293.917" r="2.431"/>
	<circle style="fill:#231F20;" cx="401.333" cy="292.527" r="2.431"/>
	<path style="fill:#231F20;" d="M428.406,264.916l-1.379-14.749c0,0,2.778-4.168,3.473-2.084s0.694,17.361,0.694,17.361"/>
	<path style="fill:#231F20;" d="M430.5,252.944c0,0,18.75-4.861,28.473-4.861c9.722,0,11.11,3.472,6.943,5.556
		c-4.166,2.084-11.109,3.473-18.055,3.473S430.5,252.944,430.5,252.944z"/>
	<path style="fill:#231F20;" d="M427.027,250.167c0,0-13.889-3.474-22.222-2.084s-4.86,6.944-0.694,6.25
		S427.027,250.167,427.027,250.167z"/>
	<path style="fill:#FFFFFF;stroke:#231F20;stroke-miterlimit:10;" d="M452.027,323.777c0,0,9.027-3.471,11.111,1.39
		s-10.416,13.194-10.416,13.194"/>
	<path style="fill:#FFFFFF;stroke:#231F20;stroke-miterlimit:10;" d="M451.334,344.611c0,0,13.193-2.084,13.193,3.472
		S450.639,358.5,450.639,358.5"/>
	<path style="fill:#231F20;" d="M450.315,363.174c3.843,1.201,3.796-9.535,3.796-13.701s-6.25-6.25-3.473-7.64
		s4.167-9.027,4.167-9.027s-1.39-3.473-2.083-6.944c-0.695-3.472-2.084-4.861-2.084-4.861"/>
	<path style="fill:#231F20;" d="M372.477,307.11c2.695,9.23,13.957,7.788,22.871,6.168c8.913-1.621,12.154-4.052,10.533-7.294
		c-1.62-3.241-14.586-6.482-21.879-5.672S370.676,300.942,372.477,307.11z"/>
</g>
</svg>
