<?xml version="1.0" encoding="iso-8859-1"?>
<!-- Generator: Adobe Illustrator 15.1.0, SVG Export Plug-In . SVG Version: 6.00 Build 0)  -->
<!DOCTYPE svg PUBLIC "-//W3C//DTD SVG 1.1//EN" "http://www.w3.org/Graphics/SVG/1.1/DTD/svg11.dtd">
<svg version="1.1" id="Layer_1" xmlns="http://www.w3.org/2000/svg" xmlns:xlink="http://www.w3.org/1999/xlink" x="0px" y="0px"
	 width="792px" height="612px" viewBox="0 0 792 612" style="enable-background:new 0 0 792 612;" xml:space="preserve">
<g>
	<path style="fill:#FFFFFF;stroke:#231F20;stroke-miterlimit:10;" d="M449.815,315.402c0,0,7.265-5.406,7.534-9.324
		c0.263-3.91-9.658-1.719-11.626-1.846"/>
	<path style="fill:#FFFFFF;stroke:#231F20;stroke-miterlimit:10;" d="M444.564,300.982c0,0,4.865-3.62,5.045-6.243
		c0.177-2.619-6.467-1.151-7.784-1.236"/>
	<path style="fill:#231F20;" d="M442.619,319.827c0,0,7.518-1.941,7.196-4.425s-2.583-12.483-2.583-12.483l-3.987,0.709"/>
	<path style="fill:#231F20;" d="M410.084,275.861c-13.868,0.854-26.656,6.738-35.626,17.443c-3.581,4.273-6.419,9.096-8.718,14.164
		c-3.928,8.661-7.199,3.682-15.34,3.531c-7.159-0.133-12.434,3.729-14.521,10.499c-8.576,27.823,22.69,42.238,45.732,43.945h64.584
		c0,0,5.902-67.013-11.807-84.722c0,0-2.082-14.583-11.11-18.056S410.084,275.861,410.084,275.861z"/>
	<path style="fill:#FFFFFF;stroke:#231F20;stroke-miterlimit:10;" d="M409.958,277.53c-13.49,0.831-25.865,6.647-34.46,17.163
		c-3.279,4.013-5.927,8.527-8.023,13.259c-0.62,1.4-1.373,5.451-2.554,6.295c-2.904,2.074-8.303-1.037-11.421-1.247
		c-5.146-0.346-8.624,0.482-11.499,4.89c-5.524,8.468-2.464,25.522,5.26,31.728c9.27,7.445,23.476,13.557,35.477,13.557
		c0.009,0,61.744,0,61.744,0s5.644-64.065-11.286-80.996c0,0-1.991-13.941-10.622-17.262
		C413.943,261.597,409.959,277.53,409.958,277.53z"/>
	<g>
		<g>
			<ellipse style="fill:#231F20;" cx="393.716" cy="288.332" rx="11.809" ry="10.51"/>
			<ellipse style="fill:#231F20;" cx="376.012" cy="290.574" rx="7.144" ry="6.356"/>
			<ellipse style="fill:#FFFFFF;stroke:#231F20;stroke-miterlimit:10;" cx="392.724" cy="288.332" rx="10.009" ry="8.908"/>
			<ellipse style="fill:#FFFFFF;stroke:#231F20;stroke-miterlimit:10;" cx="377.717" cy="290.232" rx="6.054" ry="5.389"/>
		</g>
		<path style="fill:#231F20;" d="M379.815,291.057c0-0.849-0.771-1.537-1.729-1.537c-0.951,0-1.725,0.688-1.725,1.537
			c0,0.85,0.773,1.537,1.725,1.537C379.044,292.594,379.815,291.906,379.815,291.057z"/>
		<ellipse style="fill:#231F20;" cx="390.334" cy="289.499" rx="2.626" ry="2.336"/>
	</g>
	<path style="fill:#231F20;" d="M422.574,264.916l-1.379-14.749c0,0,2.777-4.168,3.472-2.084s0.694,17.361,0.694,17.361"/>
	<path style="fill:#231F20;" d="M424.667,252.944c0,0,18.75-4.861,28.472-4.861c9.723,0,11.111,3.472,6.945,5.556
		c-4.167,2.084-11.111,3.473-18.056,3.473S424.667,252.944,424.667,252.944z"/>
	<path style="fill:#231F20;" d="M421.195,250.167c0,0-13.889-3.474-22.223-2.084s-4.861,6.944-0.694,6.25
		S421.195,250.167,421.195,250.167z"/>
	<path style="fill:#FFFFFF;stroke:#231F20;stroke-miterlimit:10;" d="M446.195,323.777c0,0,9.027-3.471,11.11,1.39
		s-10.417,13.194-10.417,13.194"/>
	<path style="fill:#FFFFFF;stroke:#231F20;stroke-miterlimit:10;" d="M445.5,344.611c0,0,13.195-2.084,13.195,3.472
		s-13.89,10.417-13.89,10.417"/>
	<path style="fill:#231F20;" d="M444.806,321c0,0,1.39,1.39,2.083,4.861c0.695,3.472,2.084,6.944,2.084,6.944
		s-1.39,7.638-4.167,9.027s3.473,3.474,3.473,7.64s0.048,14.902-3.796,13.701"/>
	<path style="fill:#231F20;" d="M366.644,307.11c2.695,9.23,13.956,7.788,22.87,6.168c8.914-1.621,12.156-4.052,10.535-7.294
		c-1.621-3.241-14.587-6.482-21.88-5.672C370.875,301.123,364.842,300.942,366.644,307.11z"/>
	<path style="fill:#231F20;" d="M372,288l11.771,2.232l16.563-7.565c0,0-5.334-6-11.334-3s-5.333,6-5.333,6L383,287
		c0,0-4.977-3.901-6.988-2.784S372,288,372,288z"/>
	<path style="fill:#231F20;" d="M337.5,338c0,0,39.555,7.391,54.527,6.445S416,338.5,415,336s-8-14-29.5-14.5s-29-1-34,1.5
		s-13-0.5-13,6S337.5,338,337.5,338z"/>
	<path style="fill:#FFFFFF;stroke:#231F20;stroke-miterlimit:10;" d="M397.027,341.445c0,0,0-4.861-1.389-6.945
		s-5.555-2.777-7.639,0s-7.819,0.287-7.819,0.287l-4.86-5.555l-4.168,6.25l-8.332-11.806l-5.557-1.39l-15.277,14.89L397.027,341.445
		z"/>
</g>
</svg>
