<?xml version="1.0" encoding="iso-8859-1"?>
<!-- Generator: Adobe Illustrator 15.1.0, SVG Export Plug-In . SVG Version: 6.00 Build 0)  -->
<!DOCTYPE svg PUBLIC "-//W3C//DTD SVG 1.1//EN" "http://www.w3.org/Graphics/SVG/1.1/DTD/svg11.dtd">
<svg version="1.1" id="Layer_1" xmlns="http://www.w3.org/2000/svg" xmlns:xlink="http://www.w3.org/1999/xlink" x="0px" y="0px"
	 width="792px" height="612px" viewBox="0 0 792 612" style="enable-background:new 0 0 792 612;" xml:space="preserve">
<g>
	<path style="fill:#FFFFFF;stroke:#231F20;stroke-miterlimit:10;" d="M444.936,276.953c0,0,11.415,0.571,11.986,5.708
		c0.57,5.137,3.424,14.84-10.846,14.84"/>
	<path style="fill:#FFFFFF;stroke:#231F20;stroke-miterlimit:10;" d="M361.031,277.524c0,0-16.552-8.562-19.406,2.283
		c-2.854,10.845,1.143,15.41,1.143,15.41s2.283,6.279,9.132,3.425c6.85-2.854,6.85-2.854,6.85-2.854"/>
	<path style="fill:#E2E2E1;stroke:#231F20;stroke-miterlimit:10;" d="M357.975,335.665c0,0-26.605-62.589,13.095-69.747
		c39.7-7.159,72.891-2.604,78.097,15.619c5.207,18.223,0.067,43.757-4.6,52.571c-4.666,8.814-23.367,13.62-37.066,13.62
		C393.802,347.729,368.863,352.775,357.975,335.665z"/>
	<path style="fill:#FFFFFF;stroke:#231F20;stroke-miterlimit:10;" d="M416.396,344.875c0,0-17.123,1.712-24.543-2.283
		s-11.986-3.995-15.41-9.703c-3.426-5.707-3.996-17.123-2.283-19.406c1.712-2.283,4.565-3.424,14.269-3.995
		c9.703-0.57,22.831-0.57,29.681-0.57c6.849,0,24.543-2.283,26.255,5.137S449.501,343.163,416.396,344.875z"/>
	<path style="fill:#FFFFFF;stroke:#231F20;stroke-miterlimit:10;" d="M394.137,314.054c0,0-5.708-7.42,1.141-9.703
		c6.85-2.283,9.133-9.703,17.694-7.991c8.562,1.713,10.845,5.138,10.845,5.138s7.42,0,7.99,5.137
		c0.571,5.137-2.282,6.849-2.282,6.849"/>
	<path style="fill:#FFFFFF;stroke:#231F20;stroke-miterlimit:10;" d="M400.415,311.771c0,0,11.415,9.703,24.543,0"/>
	<path style="fill:#FFFFFF;stroke:#231F20;stroke-miterlimit:10;" d="M398.132,268.432c0,0-6.849-1.141-14.84-0.57
		s-10.845-0.57-11.415,1.712c-0.571,2.283-2.283,5.138,2.854,5.708c5.137,0.571,8.562,0,11.415,0c2.854,0,13.698,0.571,13.698-2.283
		C399.844,270.145,398.132,268.432,398.132,268.432z"/>
	<path style="fill:#FFFFFF;stroke:#231F20;stroke-miterlimit:10;" d="M418.531,268.392c0,0,6.053-0.505,10.592,0
		c4.538,0.504,7.564,1.513,8.068,3.531c0.505,2.017,3.026,3.529,0,4.034c-3.025,0.504-4.539,1.009-9.582,0.504
		c-5.043-0.504-8.574-1.009-10.592-1.513c-2.017-0.504-3.529,0-3.529-2.521C413.488,269.904,416.01,269.4,418.531,268.392z"/>
	<ellipse style="fill:#231F20;" cx="389.57" cy="293.506" rx="2.283" ry="3.425"/>
	<ellipse style="fill:#231F20;" cx="427.241" cy="293.506" rx="2.283" ry="3.425"/>
	<ellipse style="fill:#FFFFFF;stroke:#231F20;stroke-miterlimit:10;" cx="411.545" cy="331.462" rx="8.847" ry="6.563"/>
</g>
</svg>
