<?xml version="1.0" encoding="iso-8859-1"?>
<!-- Generator: Adobe Illustrator 15.1.0, SVG Export Plug-In . SVG Version: 6.00 Build 0)  -->
<!DOCTYPE svg PUBLIC "-//W3C//DTD SVG 1.1//EN" "http://www.w3.org/Graphics/SVG/1.1/DTD/svg11.dtd">
<svg version="1.1" id="Layer_1" xmlns="http://www.w3.org/2000/svg" xmlns:xlink="http://www.w3.org/1999/xlink" x="0px" y="0px"
	 width="149.633px" height="123.945px" viewBox="0 0 149.633 123.945" style="enable-background:new 0 0 149.633 123.945;"
	 xml:space="preserve">
<g>
	<g>
		<path style="fill:#FFFFFF;" d="M123.967,47.358c0,0,2.299,0.146,2.301,0.146c0.271,0,0.779-0.054,1.318-0.108
			c0.951-0.104,2.137-0.229,3.268-0.229c1.914,0,3.154,0.373,3.904,1.175c0.504,0.538,0.742,1.229,0.691,1.996
			c-0.223,3.155-4.744,6.675-5.648,7.348l-1.611,1.198L123.967,47.358z"/>
		<path d="M130.854,48.67c1.707,0,3.184,0.318,3.1,1.57c-0.184,2.623-5.047,6.243-5.047,6.243l-2.736-7.479
			c0.037,0.002,0.078,0.004,0.127,0.004C127.09,49.008,129.094,48.67,130.854,48.67 M130.854,45.67c-1.211,0-2.438,0.13-3.424,0.234
			c-0.393,0.041-0.924,0.098-1.113,0.104l-4.549-0.295l1.582,4.322l2.738,7.479l1.383,3.774l3.227-2.399
			c1.795-1.335,5.996-4.832,6.248-8.44c0.08-1.184-0.309-2.291-1.09-3.129C134.471,45.841,132.338,45.67,130.854,45.67
			L130.854,45.67z"/>
	</g>
	<g>
		<path style="fill:#FFFFFF;" d="M65.898,122.445l-0.055-0.004C31.055,119.864,9.394,85.378,5.918,79.445
			c-0.227,0.012-0.442,0.018-0.646,0.018c-1.916,0-3.123-0.568-3.589-1.692c-0.682-1.647,0.766-3.275,1.226-3.735l0.39-0.39
			L3.847,73.6c3.358-0.276,6.682-0.517,9.889-0.709l14.091-13.732l6.908,1.729l7.393,10.476l4.042-6.063l0.067,0.077
			C50.966,52.051,63.051,32.24,93.271,29.94c1.021-3.384,4.68-13.567,11.746-13.739l-1.023-10.922l0.295-0.442
			c1.014-1.521,2.547-3.336,4.092-3.336c0.947,0,1.715,0.603,2.053,1.607c0.133,0.396,0.293,1.142,0.438,3.329
			c5.357-1.303,18.771-4.354,26.613-4.354c6.225,0,9.98,1.398,10.58,3.938c0.188,0.801,0.277,2.838-2.967,4.461
			c-4.479,2.24-11.652,3.631-18.727,3.631c-5.023,0-11.617-2.023-15.313-3.313c0.082,2.757,0.117,5.665,0.135,7.646
			c6.445,4.739,8.527,14.702,8.939,17.069c4.164,4.375,7.357,11.676,9.514,21.724l3.074-0.547l0.293,1.298
			c1.25-0.129,2.686-0.256,4.053-0.256c2.639,0,4.316,0.48,5.287,1.52c0.607,0.65,0.896,1.49,0.836,2.428
			c-0.271,3.936-5.729,8.544-7.594,10.01c-0.375,1.604-2.152,2.703-3.438,3.332c0.061,0.715,0.117,1.431,0.168,2.146
			c1.219-0.304,2.783-0.592,4.33-0.592c4.021,0,5.686,1.904,6.369,3.501c2.037,4.753-5.184,10.908-9.939,14.318
			c-0.037,0.085-0.072,0.17-0.107,0.254c0.006,1.237,0.004,2.454-0.004,3.642c0.707-0.041,1.398-0.062,2.064-0.062
			c7.85,0,9.498,2.912,9.498,5.354c0,3.47-3.646,6.89-10.846,10.171c-0.309,2.16-0.791,3.74-1.469,4.798
			c-0.111,1.622-0.191,2.523-0.191,2.523l-0.119,1.369h-1.375H65.898L65.898,122.445z"/>
		<path d="M108.381,3c0.268,0,0.49,0.167,0.629,0.583c0.211,0.632,0.357,2.48,0.459,4.744c2.928-0.739,19.189-4.744,28.016-4.744
			c9.723,0,11.107,3.475,6.941,5.559s-11.107,3.473-18.055,3.473c-6.068,0-14.781-3.18-16.889-3.984
			c0.152,3.617,0.199,8.18,0.215,10.607c7.271,4.702,9.033,16.987,9.033,16.987c4.768,4.767,7.818,13.104,9.74,22.748l3.104-0.554
			c0,0,0.104,0.459,0.27,1.201c1.447-0.147,3.422-0.387,5.225-0.387c2.547,0,4.75,0.475,4.625,2.345
			c-0.271,3.918-7.533,9.324-7.533,9.324c0.162,1.267-1.711,2.39-3.588,3.188c0.15,1.68,0.277,3.359,0.389,5.037
			c0.947-0.319,3.359-1.053,5.697-1.053c2.098,0,4.131,0.59,4.99,2.592c1.801,4.202-7.287,10.992-9.787,12.759
			c-0.121,0.311-0.25,0.61-0.387,0.907c0.014,1.92,0.006,3.785-0.016,5.581c0.947-0.094,2.223-0.186,3.58-0.186
			c3.691,0,7.998,0.68,7.998,3.854c0,3.839-6.627,7.345-10.729,9.146c-0.254,2.229-0.717,4.258-1.555,5.301
			c-0.127,1.867-0.219,2.915-0.219,2.915H65.954c-37.5-2.778-59.208-43.074-59.208-43.074l1.513-0.043
			c-0.153-0.004-0.301-0.005-0.442-0.005c-0.415,0-0.775,0.015-1.071,0.048c-0.568,0.063-1.056,0.092-1.474,0.092
			c-4.173,0-1.303-2.869-1.303-2.869c3.69-0.304,7.152-0.547,10.413-0.738l13.891-13.538l5.557,1.39l8.332,11.806l4.168-6.25
			l0.505,0.577c3.878-12.582,15.287-34.985,47.592-36.976c0,0,3.42-13.666,10.771-13.665c0.477,0,0.971,0.058,1.48,0.181
			l-1.143-12.21C105.537,5.668,107.314,3,108.381,3 M108.369,0c-0.676,0-2.68,0.026-5.328,4.005l-0.59,0.886l0.1,1.058l0.836,8.933
			c-6.465,1.33-9.924,9.583-11.254,13.647c-13.965,1.261-25.492,6.381-34.291,15.235c-6.665,6.706-10.566,14.424-12.81,20.534
			l-1.199,1.8l-1.742,2.61l-5.811-8.232l-0.643-0.91l-1.081-0.271L29,57.904l-1.623-0.406l-1.198,1.168L13.087,71.427
			c-3.045,0.188-6.189,0.416-9.364,0.679l-1.097,0.091l-0.778,0.777c-0.626,0.626-2.589,2.862-1.551,5.369
			c0.484,1.171,1.705,2.56,4.766,2.618c2.004,3.359,7.108,11.289,15.071,19.495c13.754,14.17,29.521,22.29,45.598,23.481l0.11,0.008
			h0.111h64.584h2.748l0.24-2.738c0,0,0.066-0.775,0.168-2.188c0.604-1.065,1.047-2.453,1.354-4.242
			c7.293-3.459,10.986-7.221,10.986-11.192c0-2.56-1.428-6.854-10.998-6.854c-0.186,0-0.369,0.001-0.561,0.005
			c0.002-0.502,0.002-1,0-1.495c5.992-4.38,12.191-10.462,9.926-15.753c-0.707-1.647-2.65-4.409-7.748-4.41
			c-0.629,0-1.254,0.042-1.861,0.111c0.893-0.668,1.713-1.531,2.115-2.619c2.563-2.045,7.479-6.504,7.773-10.783
			c0.092-1.346-0.348-2.605-1.234-3.557c-1.67-1.787-4.441-1.994-6.383-1.994c-0.965,0-1.947,0.059-2.879,0.138l-0.316-1.407
			l-2.82,0.502l-0.252,0.046c-2.152-9.359-5.264-16.31-9.268-20.697c-0.58-3.027-2.773-12.165-8.846-17.106
			c-0.012-1.374-0.033-3.063-0.07-4.804c3.887,1.25,9.363,2.71,13.756,2.71c7.291,0,14.725-1.452,19.396-3.79
			c4.32-2.162,3.967-5.252,3.756-6.147c-0.549-2.322-3.082-5.093-12.041-5.093c-7.258,0-19.094,2.538-25.266,3.989
			c-0.115-1.058-0.24-1.573-0.361-1.938c-0.545-1.625-1.873-2.635-3.475-2.636C108.377,0,108.373,0,108.369,0L108.369,0z"/>
	</g>
	<g>
		<path style="fill:#FFFFFF;" d="M81.9,11.393c-2.66,0-4.979-1.834-5.165-4.089c-0.079-0.961,0.144-4.167,6.331-5.2
			c1.387-0.231,2.998-0.351,4.787-0.351c8.129,0,17.646,2.356,18.049,2.457l6.691,1.674l-6.783,1.258
			c-0.188,0.033-18.813,3.481-22.943,4.17C82.549,11.366,82.223,11.393,81.9,11.393L81.9,11.393z"/>
		<path d="M87.854,3.256c8.037,0,17.684,2.412,17.684,2.412S86.787,9.14,82.621,9.834c-0.242,0.041-0.484,0.062-0.721,0.062
			c-3.813,0-6.436-5,1.41-6.312C84.701,3.352,86.246,3.256,87.854,3.256 M87.854,0.256c-1.871,0-3.566,0.124-5.033,0.369
			c-7.453,1.244-7.686,5.522-7.579,6.806c0.254,3.063,3.179,5.465,6.659,5.465c0.404,0,0.813-0.034,1.215-0.103
			c4.145-0.688,22.201-4.033,22.969-4.175l13.566-2.513l-13.387-3.349C105.857,2.655,96.166,0.256,87.854,0.256L87.854,0.256z"/>
	</g>
</g>
<g>
	<path style="fill:#FFFFFF;stroke:#231F20;stroke-miterlimit:10;" d="M134.158,70.903c0,0,7.264-5.406,7.533-9.324
		c0.264-3.91-9.656-1.719-11.627-1.846"/>
	<path style="fill:#FFFFFF;stroke:#231F20;stroke-miterlimit:10;" d="M128.906,56.483c0,0,4.861-3.62,5.047-6.243
		c0.176-2.619-6.471-1.151-7.785-1.236"/>
	<path style="fill:#231F20;" d="M126.963,75.328c0,0,7.518-1.939,7.195-4.425c-0.32-2.484-2.584-12.483-2.584-12.483l-3.986,0.709"
		/>
	<path style="fill:#231F20;" d="M94.426,31.362c-45.14,2.778-49.484,45.426-49.484,45.426L6.746,77.871
		c0,0,21.708,40.296,59.208,43.074h64.583c0,0,5.902-67.013-11.807-84.722c0,0-2.084-14.583-11.109-18.059
		C98.594,14.694,94.426,31.362,94.426,31.362z"/>
	<path style="fill:#D3D3D3;stroke:#231F20;stroke-miterlimit:10;" d="M94.301,33.031c-43.152,2.656-47.287,43.167-47.287,43.167
		L10.5,77.233c0,0,20.729,38.785,56.581,41.438h61.745c0,0,5.645-64.063-11.287-80.996c0,0-1.99-13.938-10.621-17.262
		C98.285,17.098,94.301,33.031,94.301,33.031z"/>
	<path style="fill:#FFFFFF;stroke:#231F20;stroke-miterlimit:10;" d="M68.036,79.973c0,0,0-4.859-1.389-6.943
		c-1.39-2.084-5.556-2.777-7.64,0c-2.084,2.775-7.818,0.287-7.818,0.287l-4.86-5.559l-4.168,6.25l-8.332-11.804l-5.557-1.39
		l-15.277,14.89L68.036,79.973z"/>
	<path style="fill:#231F20;" d="M3.968,75.094c62.123-5.114,61.146,6.438,71.708,4.574c11.807-2.084,13.195,4.474,13.195,4.474
		s-23.612,0-32.641,0c-9.029,0-43.235-6.965-49.485-6.271S3.968,75.094,3.968,75.094z"/>
	<g>
		<circle style="fill:#231F20;" cx="85.746" cy="46.987" r="9.375"/>
		<circle style="fill:#231F20;" cx="71.69" cy="48.987" r="5.671"/>
		<circle style="fill:#FFFFFF;stroke:#231F20;stroke-miterlimit:10;" cx="84.957" cy="46.987" r="7.946"/>
		<circle style="fill:#FFFFFF;stroke:#231F20;stroke-miterlimit:10;" cx="73.043" cy="48.683" r="4.807"/>
	</g>
	<circle style="fill:#231F20;" cx="70.12" cy="49.418" r="2.431"/>
	<circle style="fill:#231F20;" cx="79.842" cy="48.028" r="2.431"/>
	<path style="fill:#231F20;" d="M106.916,20.417l-1.379-14.749c0,0,2.773-4.168,3.473-2.084c0.695,2.084,0.693,17.361,0.693,17.361"
		/>
	<path style="fill:#231F20;stroke:#231F20;stroke-miterlimit:10;" d="M109.01,8.445c0,0,18.75-4.861,28.473-4.861
		s11.109,3.475,6.943,5.559s-11.109,3.473-18.055,3.473C119.424,12.613,109.01,8.445,109.01,8.445z"/>
	<path style="fill:#231F20;stroke:#231F20;stroke-miterlimit:10;" d="M105.537,5.668c0,0-13.891-3.474-22.227-2.084
		c-8.331,1.393-4.855,6.944-0.689,6.25C86.787,9.14,105.537,5.668,105.537,5.668z"/>
	<path style="fill:#FFFFFF;stroke:#231F20;stroke-miterlimit:10;" d="M130.537,79.278c0,0,9.023-3.473,11.109,1.39
		c2.084,4.863-10.416,13.194-10.416,13.194"/>
	<path style="fill:#FFFFFF;stroke:#231F20;stroke-miterlimit:10;" d="M129.844,100.112c0,0,13.193-2.084,13.193,3.472
		c0,5.558-13.889,10.417-13.889,10.417"/>
	<path style="fill:#231F20;" d="M128.824,118.675c3.844,1.201,3.797-9.533,3.797-13.699s-6.25-6.25-3.475-7.642
		c2.775-1.39,4.164-9.025,4.164-9.025s-1.389-3.475-2.08-6.942c-0.693-3.474-2.084-4.861-2.084-4.861"/>
	<path style="fill:#231F20;" d="M50.986,62.611c2.695,9.229,13.957,7.788,22.871,6.168c8.912-1.621,12.154-4.054,10.533-7.294
		c-1.621-3.241-14.586-6.482-21.879-5.672C55.218,56.623,49.185,56.443,50.986,62.611z"/>
</g>
</svg>
